<?xml version="1.0" encoding="utf-8"?>
<!-- Generator: Adobe Illustrator 15.1.0, SVG Export Plug-In . SVG Version: 6.00 Build 0)  -->
<!DOCTYPE svg PUBLIC "-//W3C//DTD SVG 1.1//EN" "http://www.w3.org/Graphics/SVG/1.1/DTD/svg11.dtd">
<svg version="1.1" id="Layer_1" xmlns="http://www.w3.org/2000/svg" xmlns:xlink="http://www.w3.org/1999/xlink" x="0px" y="0px"
	 width="1280px" height="720px" viewBox="0 0 1280 720" enable-background="new 0 0 1280 720" xml:space="preserve">
<g enable-background="new    ">
	<path fill="#959595" stroke="#959595" d="M384.024,703.789c-4.317,0-7.73-1.919-10.239-5.757c-2.51-3.838-3.765-9.189-3.765-16.055
		s1.235-12.29,3.706-16.274c2.471-3.984,5.933-5.977,10.386-5.977c2.734,0,5.263,0.723,7.588,2.168l-1.758,3.838
		c-1.856-1.23-3.77-1.846-5.742-1.846c-2.949,0-5.269,1.597-6.958,4.79c-1.689,3.193-2.534,7.568-2.534,13.125
		s0.859,9.922,2.578,13.096c1.718,3.174,4.091,4.761,7.119,4.761c2.285,0,4.384-0.508,6.299-1.523v4.102
		C388.985,703.271,386.759,703.789,384.024,703.789z"/>
	<path fill="#959595" stroke="#959595" d="M416.251,703.203h-3.604c-0.157-1.094-0.342-2.549-0.557-4.365h-0.293
		c-0.703,1.562-1.68,2.778-2.93,3.647c-1.25,0.869-2.637,1.304-4.16,1.304c-2.676,0-4.658-0.942-5.947-2.827
		s-1.934-4.849-1.934-8.892v-20.918h4.453v20.303c0,2.91,0.341,5.044,1.025,6.401c0.684,1.357,1.768,2.036,3.252,2.036
		c2.148,0,3.73-0.938,4.746-2.812c1.015-1.875,1.523-4.902,1.523-9.082v-16.846h4.424V703.203z"/>
	<path fill="#959595" stroke="#959595" d="M425.26,699.116c1.357,0.439,2.734,0.659,4.131,0.659c1.396,0,2.524-0.43,3.384-1.289
		c0.859-0.859,1.289-1.934,1.289-3.223c0-0.977-0.234-1.943-0.703-2.9c-0.137-0.293-0.43-0.649-0.879-1.069
		c-0.45-0.42-0.772-0.703-0.967-0.85c-0.195-0.146-0.908-0.659-2.139-1.538s-2.422-1.777-3.574-2.695
		c-2.383-1.895-3.574-4.365-3.574-7.412c0-2.441,0.83-4.434,2.49-5.977c1.699-1.543,3.872-2.314,6.519-2.314
		c2.646,0,4.985,0.664,7.017,1.992l-1.816,3.457c-1.777-1.094-3.447-1.641-5.01-1.641c-1.563,0-2.759,0.41-3.589,1.23
		c-0.831,0.82-1.245,1.895-1.245,3.223c0,1.719,0.586,3.027,1.758,3.926l3.809,2.842c0.839,0.625,1.509,1.143,2.007,1.553
		s1.04,0.928,1.626,1.553s1.035,1.24,1.348,1.846c0.742,1.406,1.113,2.998,1.113,4.775c0,2.832-0.776,4.961-2.329,6.387
		s-3.784,2.139-6.694,2.139c-2.911,0-5.244-0.605-7.002-1.816v-4.424C422.891,698.154,423.902,698.677,425.26,699.116z"/>
	<path fill="#959595" stroke="#959595" d="M448.829,671.152h5.332v3.691h-5.332v20.244c0,1.738,0.224,2.974,0.674,3.706
		c0.449,0.732,1.196,1.099,2.241,1.099c1.044,0,1.967-0.166,2.769-0.498v3.574c-0.996,0.547-2.363,0.82-4.102,0.82
		c-2.266,0-3.838-0.859-4.717-2.578s-1.318-4.453-1.318-8.203v-18.164h-2.988v-2.256l3.223-1.465l1.289-7.354h2.93V671.152z"/>
	<path fill="#959595" stroke="#959595" d="M458.028,687.104c0-5.322,0.923-9.414,2.769-12.275s4.458-4.292,7.837-4.292
		c3.379,0,6.016,1.47,7.91,4.409c1.894,2.939,2.842,7.036,2.842,12.29s-0.938,9.326-2.812,12.217s-4.497,4.336-7.866,4.336
		s-5.991-1.45-7.866-4.351S458.028,692.427,458.028,687.104z M468.692,674.492c-2.129,0-3.677,1.035-4.644,3.105
		s-1.45,5.234-1.45,9.492s0.493,7.446,1.479,9.565c0.986,2.119,2.524,3.179,4.614,3.179c4.062,0,6.094-4.224,6.094-12.671
		S472.754,674.492,468.692,674.492z"/>
	<path fill="#959595" stroke="#959595" d="M489.464,671.152l0.469,4.336h0.352c1.328-3.301,3.604-4.951,6.826-4.951
		c3.516,0,5.811,1.855,6.885,5.566c0.391-0.664,0.698-1.177,0.923-1.538c0.224-0.361,0.586-0.84,1.084-1.436s0.981-1.05,1.45-1.362
		c1.23-0.82,2.588-1.23,4.072-1.23c2.559,0,4.458,0.957,5.698,2.871c1.24,1.914,1.86,4.873,1.86,8.877v20.918h-4.424v-20.918
		c0-5.156-1.436-7.734-4.307-7.734c-1.992,0-3.433,0.894-4.321,2.681c-0.889,1.787-1.333,4.556-1.333,8.306v17.666h-4.453v-20.918
		c0-5.156-1.436-7.734-4.307-7.734c-1.973,0-3.409,0.923-4.307,2.769c-0.898,1.846-1.348,4.858-1.348,9.038v16.846h-4.424v-32.051
		H489.464z"/>
	<path fill="#959595" stroke="#959595" d="M544.571,703.203h-4.395v-42.832h4.395V703.203z"/>
	<path fill="#959595" stroke="#959595" d="M556.993,671.152l0.469,4.336h0.352c1.328-3.301,3.604-4.951,6.826-4.951
		c3.516,0,5.811,1.855,6.885,5.566c0.391-0.664,0.698-1.177,0.923-1.538c0.224-0.361,0.586-0.84,1.084-1.436s0.981-1.05,1.45-1.362
		c1.23-0.82,2.588-1.23,4.072-1.23c2.559,0,4.458,0.957,5.698,2.871c1.24,1.914,1.86,4.873,1.86,8.877v20.918h-4.424v-20.918
		c0-5.156-1.436-7.734-4.307-7.734c-1.992,0-3.433,0.894-4.321,2.681c-0.889,1.787-1.333,4.556-1.333,8.306v17.666h-4.453v-20.918
		c0-5.156-1.436-7.734-4.307-7.734c-1.973,0-3.409,0.923-4.307,2.769c-0.898,1.846-1.348,4.858-1.348,9.038v16.846h-4.424v-32.051
		H556.993z"/>
	<path fill="#959595" stroke="#959595" d="M596.368,676.162l-1.699-3.252c2.539-1.602,5.244-2.402,8.115-2.402s5,0.889,6.387,2.666
		c1.387,1.777,2.08,4.551,2.08,8.32v21.709h-3.398l-0.762-4.453h-0.146c-1.602,3.32-3.955,4.98-7.061,4.98
		c-2.344,0-4.17-0.82-5.479-2.461c-1.309-1.641-1.963-3.994-1.963-7.061s0.918-5.474,2.754-7.222c1.835-1.748,4.472-2.7,7.91-2.856
		l3.721-0.176v-2.52c0-2.5-0.352-4.331-1.055-5.493s-1.924-1.743-3.662-1.743C600.372,674.199,598.458,674.854,596.368,676.162z
		 M606.827,690.312v-3.105c-0.664,0.02-1.66,0.068-2.988,0.146c-2.305,0.117-4.009,0.757-5.112,1.919
		c-1.104,1.162-1.655,2.866-1.655,5.112c0,3.887,1.337,5.83,4.014,5.83c1.797,0,3.203-0.874,4.219-2.622
		C606.319,695.845,606.827,693.418,606.827,690.312z"/>
	<path fill="#959595" stroke="#959595" d="M626.397,698.223h2.9c2.832,0,5.005,0.752,6.519,2.256
		c1.513,1.504,2.271,3.701,2.271,6.592c0,3.262-1.128,5.835-3.384,7.72s-5.298,2.827-9.126,2.827c-3.125,0-5.522-0.747-7.192-2.241
		s-2.505-3.638-2.505-6.431c0-3.965,2.099-6.709,6.299-8.232c-1.016-0.43-1.821-1.04-2.417-1.831
		c-0.596-0.791-0.894-1.675-0.894-2.651s0.273-1.841,0.82-2.593c0.546-0.752,1.465-1.626,2.754-2.622
		c-1.523-0.742-2.695-1.948-3.516-3.618s-1.23-3.618-1.23-5.845c0-3.457,0.786-6.157,2.358-8.101
		c1.572-1.943,3.765-2.915,6.577-2.915c1.191,0,2.373,0.215,3.545,0.645c0.253-0.02,1.015-0.029,2.285-0.029
		c1.27,0,3.066,0.01,5.391,0.029v2.812l-4.189,0.615c0.508,0.723,0.923,1.714,1.245,2.974s0.483,2.544,0.483,3.853
		c0,3.203-0.801,5.767-2.402,7.69c-1.602,1.924-3.682,2.886-6.24,2.886h-0.234c-0.586,0-1.036-0.039-1.348-0.117
		c-0.84,0.625-1.475,1.226-1.904,1.802c-0.43,0.576-0.645,1.25-0.645,2.021s0.332,1.382,0.996,1.831
		C624.278,697.998,625.206,698.223,626.397,698.223z M628.302,702.295h-2.227c-1.895,0-3.369,0.562-4.424,1.685
		s-1.582,2.617-1.582,4.482s0.488,3.291,1.465,4.277c0.977,0.986,2.412,1.479,4.307,1.479c2.52,0,4.487-0.605,5.903-1.816
		c1.416-1.211,2.124-2.881,2.124-5.01C633.868,703.994,632.012,702.295,628.302,702.295z M629.913,675.767
		c-0.762-1.318-1.875-1.978-3.34-1.978s-2.593,0.674-3.384,2.021s-1.187,3.237-1.187,5.669s0.405,4.263,1.216,5.493
		c0.81,1.23,1.938,1.846,3.384,1.846c2.969,0,4.453-2.471,4.453-7.412C631.056,678.965,630.675,677.085,629.913,675.767z"/>
	<path fill="#959595" stroke="#959595" d="M652.56,703.789c-3.614,0-6.411-1.431-8.394-4.292s-2.974-6.948-2.974-12.261
		s0.889-9.424,2.666-12.334c1.776-2.91,4.316-4.365,7.617-4.365c2.93,0,5.244,1.274,6.943,3.823s2.549,6.001,2.549,10.356v3.105
		h-15.264c0.117,8.086,2.559,12.129,7.324,12.129c2.227,0,4.492-0.693,6.797-2.08v3.926
		C657.638,703.125,655.215,703.789,652.56,703.789z M656.573,684.277c0-3.066-0.469-5.513-1.406-7.339s-2.217-2.739-3.838-2.739
		c-3.38,0-5.226,3.359-5.537,10.078H656.573z"/>
	<path fill="#959595" stroke="#959595" d="M684.288,671.094l-0.205,4.277h0.293c1.699-3.203,4.038-4.805,7.017-4.805
		s5.278,1.406,6.899,4.219s2.432,6.919,2.432,12.319s-0.806,9.531-2.417,12.393s-3.916,4.292-6.914,4.292s-5.366-1.582-7.104-4.746
		h-0.322c-0.156,1.074-0.381,2.461-0.674,4.16h-3.428v-45.586h4.424V671.094z M684.288,686.826v0.762
		c0,4.18,0.498,7.275,1.494,9.287s2.505,3.018,4.526,3.018s3.501-1.05,4.438-3.149s1.406-5.293,1.406-9.58s-0.469-7.471-1.406-9.551
		s-2.437-3.12-4.497-3.12s-3.569,0.947-4.526,2.842S684.288,682.393,684.288,686.826z"/>
	<path fill="#959595" stroke="#959595" d="M711.9,715.288c-0.615,0.693-1.357,1.255-2.227,1.685s-1.826,0.645-2.871,0.645
		s-2.095-0.166-3.149-0.498v-3.867c0.82,0.273,1.631,0.41,2.432,0.41c1.211,0,2.188-0.474,2.93-1.421s1.357-2.466,1.846-4.556
		l1.143-4.365l-8.525-32.168h4.57l4.688,19.365c0.547,2.246,1.035,4.805,1.465,7.676h0.205c0.41-2.695,0.85-5.186,1.318-7.471
		c2.109-9.258,3.584-15.781,4.424-19.57h4.6c-2.617,10.234-5.342,20.977-8.174,32.227c-0.547,2.07-1.021,3.745-1.421,5.024
		s-0.889,2.573-1.465,3.882S712.516,714.595,711.9,715.288z"/>
	<path fill="#959595" stroke="#959595" d="M741.769,660.371h9.023c4.57,0,8.081,1.797,10.532,5.391s3.677,8.906,3.677,15.938
		s-1.23,12.373-3.691,16.025s-6.113,5.479-10.957,5.479h-8.584V660.371z M746.339,664.414v34.746h3.896
		c6.699,0,10.049-5.859,10.049-17.578c0-5.645-0.815-9.917-2.446-12.817s-4.038-4.351-7.222-4.351H746.339z"/>
	<path fill="#959595" stroke="#959595" d="M770.538,687.104c0-5.322,0.923-9.414,2.769-12.275s4.458-4.292,7.837-4.292
		s6.016,1.47,7.91,4.409s2.842,7.036,2.842,12.29s-0.938,9.326-2.812,12.217s-4.497,4.336-7.866,4.336s-5.991-1.45-7.866-4.351
		S770.538,692.427,770.538,687.104z M781.202,674.492c-2.129,0-3.677,1.035-4.644,3.105s-1.45,5.234-1.45,9.492
		s0.493,7.446,1.479,9.565s2.524,3.179,4.614,3.179c4.062,0,6.094-4.224,6.094-12.671S785.265,674.492,781.202,674.492z"/>
	<path fill="#959595" stroke="#959595" d="M807.394,703.789c-3.418,0-6.001-1.392-7.749-4.175s-2.622-6.87-2.622-12.261
		c0-11.211,3.457-16.816,10.371-16.816c2.227,0,4.141,0.469,5.742,1.406l-1.465,3.633c-1.387-0.723-2.666-1.084-3.838-1.084
		c-4.16,0-6.24,4.268-6.24,12.803c0,4.297,0.522,7.461,1.567,9.492s2.661,3.047,4.849,3.047c1.445,0,3.066-0.41,4.863-1.23v3.838
		C811.134,703.34,809.308,703.789,807.394,703.789z"/>
	<path fill="#959595" stroke="#959595" d="M822.833,671.152h5.332v3.691h-5.332v20.244c0,1.738,0.225,2.974,0.674,3.706
		s1.196,1.099,2.241,1.099s1.968-0.166,2.769-0.498v3.574c-0.996,0.547-2.363,0.82-4.102,0.82c-2.266,0-3.838-0.859-4.717-2.578
		s-1.318-4.453-1.318-8.203v-18.164h-2.988v-2.256l3.223-1.465l1.289-7.354h2.93V671.152z"/>
	<path fill="#959595" stroke="#959595" d="M832.032,687.104c0-5.322,0.923-9.414,2.769-12.275s4.458-4.292,7.837-4.292
		s6.016,1.47,7.91,4.409s2.842,7.036,2.842,12.29s-0.938,9.326-2.812,12.217s-4.497,4.336-7.866,4.336s-5.991-1.45-7.866-4.351
		S832.032,692.427,832.032,687.104z M842.696,674.492c-2.129,0-3.677,1.035-4.644,3.105s-1.45,5.234-1.45,9.492
		s0.493,7.446,1.479,9.565s2.524,3.179,4.614,3.179c4.062,0,6.094-4.224,6.094-12.671S846.759,674.492,842.696,674.492z"/>
	<path fill="#959595" stroke="#959595" d="M866.91,671.973c1.006-0.977,2.085-1.465,3.237-1.465s2.158,0.146,3.018,0.439
		l-0.732,4.365c-0.703-0.273-1.426-0.41-2.168-0.41c-1.699,0-3.115,1.084-4.248,3.252s-1.699,4.912-1.699,8.232v16.816h-4.453
		v-32.08h3.662l0.498,5.42h0.205C865.011,674.473,865.904,672.949,866.91,671.973z"/>
	<path fill="#959595" stroke="#959595" d="M900.733,681.172l8.291,22.031h-4.746l-6.328-18.252l-6.855,18.252h-4.688l9.258-22.588
		l-8.174-20.244h4.688l6.123,16.582l5.742-16.582h4.717L900.733,681.172z"/>
</g>
<g>
	<path fill="#FFFF00" stroke="#8DC63F" d="M576.429,618.592l4.977-20.158h14.929l-0.816,3.208h-10.181l-1.253,5.013h9.725
		l-0.741,3.131h-9.725l-1.387,5.599h10.181l-0.778,3.208H576.429z"/>
	<path fill="#FFFF00" stroke="#8DC63F" d="M617.571,605.328c0,0.422-0.028,0.936-0.085,1.542c-0.057,0.607-0.171,1.263-0.342,1.967
		s-0.412,1.435-0.722,2.189c-0.311,0.756-0.725,1.494-1.244,2.214c-0.52,0.72-1.149,1.403-1.89,2.051
		c-0.741,0.648-1.627,1.216-2.659,1.704c-1.032,0.489-2.222,0.877-3.571,1.165s-2.884,0.432-4.606,0.432h-6.496l4.977-20.158h7.123
		c3.14,0,5.511,0.573,7.113,1.72S617.571,603.025,617.571,605.328z M612.557,605.652c0-0.648-0.095-1.224-0.285-1.728
		s-0.494-0.926-0.912-1.265c-0.418-0.34-0.962-0.6-1.634-0.779c-0.671-0.18-1.488-0.27-2.45-0.27h-2.488l-3.4,13.804h1.957
		c1.33,0,2.481-0.173,3.457-0.517c0.975-0.345,1.801-0.795,2.479-1.35c0.677-0.556,1.231-1.188,1.662-1.897
		c0.43-0.709,0.763-1.424,0.997-2.144s0.396-1.419,0.484-2.098S612.557,606.146,612.557,605.652z"/>
	<path fill="#FFFF00" stroke="#8DC63F" d="M622.737,601.55l0.779-3.116h15.728l-0.779,3.116h-5.489l-3.438,13.927h5.451
		l-0.741,3.115H618.54l0.741-3.115h5.509l3.457-13.927H622.737z"/>
	<path fill="#FFFF00" stroke="#8DC63F" d="M654.363,601.596l-4.16,16.996h-4.787l4.16-16.996h-6.799l0.816-3.162h18.387
		l-0.818,3.162H654.363z"/>
	<path fill="#FFFF00" stroke="#8DC63F" d="M665.513,601.55l0.778-3.116h15.728l-0.779,3.116h-5.489l-3.438,13.927h5.451
		l-0.741,3.115h-15.708l0.741-3.115h5.508l3.457-13.927H665.513z"/>
	<path fill="#FFFF00" stroke="#8DC63F" d="M690.642,618.946c-2.596,0-4.587-0.58-5.974-1.742s-2.08-2.849-2.08-5.06
		c0-1.027,0.107-2.087,0.323-3.177c0.215-1.09,0.544-2.156,0.988-3.2c0.442-1.044,1.006-2.03,1.69-2.961
		c0.684-0.931,1.5-1.743,2.45-2.438c0.949-0.693,2.035-1.246,3.257-1.657c1.223-0.411,2.587-0.617,4.094-0.617
		c2.596,0,4.587,0.578,5.974,1.735c1.387,1.156,2.08,2.84,2.08,5.051c0,1.028-0.108,2.09-0.323,3.185
		c-0.216,1.095-0.545,2.165-0.987,3.208c-0.443,1.044-1.007,2.028-1.69,2.954c-0.685,0.925-1.501,1.737-2.45,2.437
		c-0.95,0.699-2.036,1.255-3.258,1.666C693.513,618.741,692.148,618.946,690.642,618.946z M691.307,615.538
		c0.798,0,1.529-0.144,2.194-0.432c0.664-0.288,1.266-0.679,1.804-1.173c0.538-0.493,1.01-1.071,1.415-1.734
		s0.744-1.378,1.017-2.145c0.272-0.766,0.475-1.562,0.607-2.39c0.134-0.828,0.2-1.648,0.2-2.46c0-1.275-0.302-2.211-0.902-2.808
		c-0.602-0.596-1.574-0.895-2.916-0.895c-0.798,0-1.529,0.142-2.193,0.425c-0.665,0.282-1.267,0.671-1.805,1.164
		s-1.01,1.074-1.415,1.743c-0.405,0.668-0.744,1.383-1.017,2.144s-0.475,1.558-0.607,2.391s-0.199,1.655-0.199,2.468
		c0,1.274,0.297,2.21,0.893,2.807C688.977,615.24,689.951,615.538,691.307,615.538z"/>
	<path fill="#FFFF00" stroke="#8DC63F" d="M715.41,618.592l-3.685-12.03l-0.74-2.591l-2.07,8.359l-1.521,6.262h-4.235l4.977-20.158
		h5.489l3.78,12.107l0.607,2.359l2.185-8.898l1.405-5.568h4.274l-4.977,20.158H715.41z"/>
</g>
<g id="Layer_2">
</g>
<g id="Ebene_1">
	<path fill="#C90012" d="M431.529,323.098L431.529,323.098L431.529,323.098z"/>
	<path fill="#C90012" d="M431.529,240.216L431.529,240.216L431.529,240.216z"/>
	<path fill="#C90012" d="M431.529,157.306L431.529,157.306L431.529,157.306z"/>
	<path fill="#C90012" d="M431.529,198.753L431.529,198.753L431.529,198.753z"/>
	<path fill="#C90012" d="M431.529,364.544L431.529,364.544L431.529,364.544z"/>
	<path fill="#C90012" d="M431.529,281.642L431.529,281.642L431.529,281.642z"/>
	<path fill="#C90012" d="M431.529,115.842L431.529,115.842L431.529,115.842z"/>
	
		<linearGradient id="SVGID_1_" gradientUnits="userSpaceOnUse" x1="118.3154" y1="636.3193" x2="323.8036" y2="321.3367" gradientTransform="matrix(1 0 0 1 0 -213)">
		<stop  offset="0" style="stop-color:#004E73"/>
		<stop  offset="1" style="stop-color:#00A1B0"/>
	</linearGradient>
	<path fill="url(#SVGID_1_)" d="M431.529,126.951c0-6.11-4.999-11.108-11.105-11.108H69.563c-6.112,0-14.644,3.534-18.963,7.855
		l-25.745,25.745C20.533,153.764,17,162.296,17,168.406v226.468c0,6.111,4.999,11.109,11.106,11.109h350.86
		c6.107,0,14.646-3.535,18.963-7.854l25.741-25.736c4.32-4.312,7.854-12.853,7.854-18.963L431.529,126.951z"/>
	<path opacity="0.2" enable-background="new    " d="M382.22,273.789l-25.729-25.729c-4.319-4.318-12.854-7.854-18.963-7.854H318.28
		c-6.112,0.001-11.11,0.001-11.11,0.001s3.532-3.534,7.854-7.855l67.19-67.193c4.32-4.321,2.854-7.855-3.253-7.855h-102.13
		c-6.111,0-14.643,3.534-18.963,7.855L25.142,397.86c-1.825,1.815-3.517,3.514-4.871,4.86c2.012,2.017,4.786,3.265,7.836,3.265
		c0.005,0,0.01,0,0.016,0h99.953h167.988c6.111,0,11.122-0.019,11.133-0.023c0.015-0.016,3.559-3.562,7.88-7.88l67.144-67.132
		c4.32-4.316,7.854-12.854,7.854-18.964v-19.234C390.073,286.64,386.54,278.104,382.22,273.789z"/>
	
		<linearGradient id="SVGID_2_" gradientUnits="userSpaceOnUse" x1="144.8115" y1="634.3779" x2="399.8021" y2="382.3879" gradientTransform="matrix(1 0 0 1 0 -213)">
		<stop  offset="0.3077" style="stop-color:#D3D3D3"/>
		<stop  offset="0.6752" style="stop-color:#FFFFFF"/>
	</linearGradient>
	<path fill="url(#SVGID_2_)" d="M276.824,281.649c-6.108,0-14.643-3.536-18.96-7.857l-25.71-25.718
		c-4.321-4.321-7.857-12.855-7.865-18.966l-0.012-19.246c-0.008-6.11,3.525-14.643,7.846-18.964l25.741-25.737
		c4.321-4.321,12.852-7.855,18.963-7.855h102.14c6.107,0,7.573,3.534,3.253,7.855l-25.735,25.737
		c-4.32,4.321-12.854,7.855-18.969,7.855h-60.688c-6.112,0-11.11,4.998-11.11,11.108v19.246c0,6.11,4.998,11.108,11.106,11.106
		l60.702-0.007c6.104-0.002,14.644,3.533,18.963,7.853l25.729,25.729c4.32,4.313,7.854,12.851,7.854,18.963v19.235
		c0,6.107-3.532,14.646-7.854,18.963l-25.734,25.74c-4.321,4.312-12.854,7.854-18.97,7.854h-60.688
		c-6.112,0-14.643-3.536-18.963-7.854l-25.741-25.74c-4.32-4.316-2.858-7.854,3.253-7.854h102.14c6.112,0,11.11-4.998,11.11-11.106
		V292.75c0-6.112,0-11.11,0.003-11.11c0.004,0-4.994,0-11.103,0L276.824,281.649z"/>
	<g opacity="0.2">
		<path d="M17.008,251.877c0-6.109,0-11.238,0-11.393c0-0.155,3.532-3.818,7.854-8.138l67.185-67.186
			c4.321-4.321,12.855-7.855,18.963-7.855h102.15c6.108,0,7.574,3.534,3.253,7.855l-67.197,67.182
			c-4.32,4.321-7.853,7.855-7.853,7.855s4.998,0.002,11.11,0.006l19.228,0.007c6.108,0.004,10.75,4.993,10.318,11.086l-1.114,15.593
			c-0.433,6.092-1.707,11.997-2.833,13.122c-1.125,1.125-5.576,5.58-9.896,9.896l-25.201,25.2c-4.32,4.314-7.885,7.886-7.922,7.918
			c-0.034,0.033,4.933,0.062,11.041,0.062h17.979c6.108-0.004,14.784,3.379,19.281,7.521l26.836,24.691
			c4.497,4.141,8.181,7.623,8.058,7.75c-0.126,0.126-3.766,3.766-8.087,8.083l-34.827,34.854l-147.212,0.002
			c-6.107,0-11.105-4.998-11.105-11.11L17.008,251.877z"/>
	</g>
	
		<linearGradient id="SVGID_3_" gradientUnits="userSpaceOnUse" x1="71.2695" y1="559.957" x2="326.2597" y2="307.9674" gradientTransform="matrix(1 0 0 1 0 -213)">
		<stop  offset="0.3077" style="stop-color:#D3D3D3"/>
		<stop  offset="0.6752" style="stop-color:#FFFFFF"/>
	</linearGradient>
	<path fill="url(#SVGID_3_)" d="M111.01,323.098c-6.107,0-11.104-4.998-11.104-11.106v-19.235c0-6.112,4.998-11.11,11.104-11.11
		h60.69c6.108,0,11.106-4.997,11.106-11.107v-19.21c0-6.112-4.998-11.11-11.106-11.11h-60.69c-6.107,0-11.104-4.998-11.104-11.108
		v-19.246c0-6.11,4.998-11.108,11.104-11.108h60.69c6.108,0,14.643-3.534,18.964-7.854l25.749-25.741
		c4.321-4.319,2.855-7.853-3.253-7.853H111.01c-6.107,0-14.643,3.534-18.963,7.855L66.31,190.9
		c-4.32,4.321-7.857,12.854-7.857,18.964v102.125c0,6.109,3.537,14.646,7.857,18.964l25.737,25.74
		c4.321,4.312,12.855,7.854,18.963,7.854h102.143c6.112,0,7.574-3.536,3.253-7.854l-25.741-25.744
		c-4.32-4.321-12.854-7.857-18.964-7.857L111.01,323.098z"/>
	<g>
		<path fill="#FFFFFF" d="M558.605,207.562c-1.623,3.8-3.854,7.115-6.688,9.943c-2.832,2.836-6.146,5.06-9.947,6.682
			c-3.796,1.623-7.838,2.434-12.11,2.434h-8.496c-4.283,0-8.324-0.812-12.121-2.434c-3.8-1.623-7.115-3.846-9.942-6.682
			c-2.836-2.828-5.062-6.143-6.683-9.943c-1.626-3.796-2.438-7.838-2.438-12.121v-47.858c0-4.282,0.812-8.324,2.438-12.12
			c1.619-3.801,3.847-7.115,6.683-9.947c2.827-2.833,6.146-5.056,9.942-6.682c3.796-1.619,7.838-2.434,12.121-2.434h8.496
			c4.272,0,8.313,0.815,12.11,2.434c3.806,1.626,7.115,3.85,9.947,6.682s5.062,6.146,6.688,9.947
			c1.617,3.796,2.434,7.838,2.434,12.12v24.964h-58.114v23.618c0,2.556,0.481,4.956,1.45,7.202c0.965,2.243,2.277,4.195,3.936,5.852
			c1.66,1.657,3.608,2.97,5.854,3.938c2.243,0.964,4.643,1.447,7.199,1.447h8.495c2.554,0,4.947-0.482,7.193-1.447
			c2.243-0.968,4.195-2.281,5.854-3.938c1.655-1.657,2.971-3.609,3.938-5.852c0.964-2.246,1.451-4.646,1.451-7.202v-7.042
			l12.739,2.07v4.248C561.038,199.724,560.229,203.765,558.605,207.562z M548.299,146.855c0-2.553-0.486-4.952-1.451-7.199
			c-0.968-2.243-2.274-4.194-3.938-5.854c-1.656-1.658-3.608-2.97-5.854-3.938c-2.247-0.964-4.646-1.45-7.193-1.45h-8.496
			c-2.562,0-4.956,0.486-7.199,1.45c-2.246,0.969-4.194,2.281-5.854,3.938c-1.656,1.657-2.976,3.609-3.938,5.854
			c-0.969,2.247-1.451,4.646-1.451,7.199V162.6h45.375V146.855L548.299,146.855z"/>
		<path fill="#FFFFFF" d="M698.506,224.55v-77.695c0-2.553-0.479-4.952-1.45-7.199c-0.969-2.243-2.271-4.194-3.938-5.854
			c-1.652-1.657-3.608-2.97-5.854-3.938c-2.246-0.964-4.646-1.45-7.192-1.45h-6.317c-2.558,0-4.956,0.486-7.202,1.45
			c-2.243,0.969-4.21,2.281-5.897,3.938c-1.693,1.657-3.021,3.609-3.989,5.854c-0.968,2.247-1.445,4.646-1.445,7.199v77.695H642.57
			v-77.695c0-2.553-0.479-4.952-1.447-7.199c-0.971-2.243-2.296-4.194-3.987-5.854c-1.688-1.657-3.658-2.97-5.905-3.938
			c-2.236-0.964-4.643-1.45-7.193-1.45h-6.317c-2.558,0-4.956,0.486-7.198,1.45c-2.246,0.969-4.191,2.281-5.854,3.938
			c-1.657,1.657-2.974,3.609-3.938,5.854c-0.969,2.247-1.449,4.646-1.449,7.199v77.695h-12.736V118.474h4.243l6.938,10.773
			c2.899-3.938,6.54-7.061,10.935-9.376c4.384-2.312,9.166-3.471,14.346-3.471h1.036c6.01,0,11.429,1.485,16.267,4.455
			c4.833,2.97,8.562,6.908,11.188,11.811c1.312-2.419,2.937-4.627,4.866-6.629c1.937-2.005,4.072-3.712,6.424-5.128
			s4.902-2.522,7.669-3.318c2.762-0.792,5.627-1.19,8.598-1.19h1.037c4.276,0,8.317,0.815,12.119,2.434
			c3.798,1.626,7.112,3.85,9.944,6.682c2.826,2.832,5.059,6.146,6.687,9.947c1.617,3.796,2.437,7.838,2.437,12.12v76.968h-12.746
			v-0.002H698.506L698.506,224.55z"/>
		<path fill="#FFFFFF" d="M803.343,224.55l-7.046-10.773c-2.9,3.938-6.525,7.061-10.878,9.376
			c-4.348,2.312-9.115,3.467-14.294,3.467h-3.211c-4.286,0-8.323-0.812-12.12-2.434c-3.801-1.623-7.114-3.846-9.946-6.682
			c-2.832-2.828-5.061-6.143-6.684-9.943c-1.622-3.796-2.434-7.838-2.434-12.121v-76.966h12.737v77.691
			c0,2.556,0.481,4.956,1.446,7.202c0.969,2.243,2.28,4.195,3.938,5.852c1.655,1.657,3.607,2.97,5.854,3.938
			c2.242,0.964,4.646,1.447,7.203,1.447h8.496c2.549,0,4.952-0.482,7.188-1.447c2.243-0.968,4.198-2.281,5.854-3.938
			c1.655-1.657,2.971-3.609,3.936-5.852c0.974-2.246,1.454-4.646,1.454-7.202v-77.691h12.736V224.55H803.343z"/>
		<path fill="#FFFFFF" d="M837.319,224.55V76h12.733v148.55H837.319z"/>
		<path fill="#FFFFFF" d="M946.404,224.55l-7.047-10.567c-2.899,3.8-6.524,6.854-10.887,9.17c-4.348,2.312-9.109,3.467-14.288,3.467
			h-3.217c-4.276,0-8.313-0.812-12.11-2.434c-3.811-1.623-7.118-3.846-9.946-6.682c-2.836-2.828-5.063-6.143-6.688-9.943
			c-1.627-3.796-2.436-7.838-2.436-12.121v-1.037c0-4.279,0.809-8.32,2.436-12.121c1.618-3.796,3.853-7.111,6.688-9.943
			c2.828-2.832,6.144-5.06,9.946-6.682c3.797-1.623,7.834-2.434,12.11-2.434h26.938v-16.368c0-2.553-0.481-4.952-1.45-7.199
			c-0.969-2.243-2.276-4.194-3.938-5.854c-1.646-1.657-3.604-2.97-5.853-3.938c-2.246-0.964-4.646-1.45-7.198-1.45h-7.459
			c-2.558,0-4.956,0.486-7.197,1.45c-2.242,0.969-4.189,2.281-5.854,3.938c-1.652,1.657-2.97,3.609-3.938,5.854
			c-0.969,2.247-1.444,4.646-1.444,7.199v3.835l-12.74-2.075v-1.033c0-4.282,0.812-8.324,2.436-12.12
			c1.622-3.801,3.854-7.115,6.688-9.947c2.828-2.833,6.146-5.056,9.938-6.682c3.801-1.619,7.845-2.434,12.12-2.434h7.459
			c4.278,0,8.319,0.815,12.117,2.434c3.8,1.626,7.113,3.85,9.949,6.682c2.828,2.832,5.057,6.146,6.68,9.947
			c1.622,3.796,2.438,7.838,2.438,12.12v76.968H946.404L946.404,224.55z M937.907,173.167H910.97c-2.558,0-4.956,0.486-7.198,1.451
			c-2.24,0.968-4.188,2.296-5.853,3.988c-1.661,1.695-2.971,3.663-3.938,5.905c-0.971,2.247-1.446,4.646-1.446,7.203v4.451
			c0,2.556,0.479,4.956,1.446,7.202c0.973,2.243,2.274,4.195,3.938,5.852c1.656,1.657,3.604,2.97,5.853,3.938
			c2.242,0.964,4.646,1.447,7.198,1.447h8.496c2.553,0,4.952-0.482,7.198-1.447c2.242-0.968,4.198-2.281,5.853-3.938
			c1.661-1.657,2.977-3.609,3.938-5.852c0.969-2.246,1.45-4.646,1.45-7.202L937.907,173.167L937.907,173.167z"/>
		<path fill="#FFFFFF" d="M1014.771,224.55c-3.864,0-7.515-0.724-10.937-2.174c-3.418-1.451-6.389-3.456-8.909-6.009
			c-2.52-2.557-4.521-5.526-6.009-8.91c-1.479-3.383-2.225-7.007-2.225-10.876V130.59H967.63v-12.116h19.063V92.989l12.733-2.07
			v27.555h26.938v12.116H999.43v66.611c0,2.143,0.398,4.129,1.194,5.955c0.788,1.833,1.879,3.437,3.261,4.818
			c1.387,1.381,3.004,2.472,4.868,3.264c1.866,0.792,3.864,1.189,6.009,1.189h11.604v12.121L1014.771,224.55L1014.771,224.55z"/>
		<path fill="#FFFFFF" d="M1052.996,92.989V76h14.812v16.989H1052.996z M1054.033,224.55V118.474h12.74V224.55H1054.033z"/>
		<path fill="#FFFFFF" d="M1164.93,207.562c-1.623,3.8-3.852,7.115-6.679,9.943c-2.837,2.836-6.149,5.06-9.95,6.682
			c-3.797,1.623-7.838,2.434-12.11,2.434h-8.496c-4.282,0-8.319-0.812-12.116-2.434c-3.805-1.623-7.119-3.846-9.946-6.682
			c-2.837-2.828-5.062-6.143-6.683-9.943c-1.627-3.796-2.438-7.838-2.438-12.121v-47.858c0-4.282,0.812-8.324,2.438-12.12
			c1.619-3.801,3.846-7.115,6.683-9.947c2.827-2.833,6.146-5.056,9.946-6.682c3.797-1.619,7.834-2.434,12.116-2.434h8.496
			c4.272,0,8.313,0.815,12.11,2.434c3.807,1.626,7.114,3.85,9.95,6.682c2.827,2.832,5.056,6.146,6.679,9.947
			c1.622,3.796,2.438,7.838,2.438,12.12v47.858C1167.363,199.724,1166.552,203.765,1164.93,207.562z M1154.622,146.855
			c0-2.553-0.481-4.952-1.449-7.199c-0.97-2.243-2.276-4.194-3.938-5.854c-1.653-1.657-3.608-2.97-5.854-3.938
			c-2.246-0.964-4.646-1.45-7.199-1.45h-8.494c-2.559,0-4.951,0.486-7.193,1.45c-2.247,0.969-4.194,2.281-5.854,3.938
			c-1.659,1.657-2.971,3.609-3.938,5.854c-0.976,2.247-1.45,4.646-1.45,7.199v49.309c0,2.556,0.479,4.956,1.45,7.202
			c0.968,2.243,2.271,4.195,3.938,5.852c1.656,1.657,3.604,2.97,5.854,3.938c2.24,0.964,4.643,1.447,7.193,1.447h8.494
			c2.56,0,4.953-0.482,7.199-1.447c2.243-0.968,4.197-2.281,5.854-3.938c1.661-1.657,2.97-3.609,3.938-5.852
			c0.968-2.246,1.449-4.646,1.449-7.202V146.855z"/>
		<path fill="#FFFFFF" d="M1250.964,224.55v-77.695c0-2.553-0.485-4.952-1.451-7.199c-0.969-2.243-2.28-4.194-3.935-5.854
			c-1.661-1.657-3.612-2.97-5.855-3.938c-2.242-0.964-4.646-1.45-7.197-1.45h-8.486c-2.562,0-4.96,0.486-7.203,1.45
			c-2.241,0.969-4.193,2.281-5.854,3.938c-1.646,1.657-2.97,3.609-3.935,5.854c-0.969,2.247-1.45,4.646-1.45,7.199v77.695h-12.74
			V118.474h4.248l6.938,10.773c2.896-3.938,6.541-7.061,10.931-9.376c4.382-2.312,9.166-3.471,14.354-3.471h3.211
			c4.281,0,8.316,0.815,12.12,2.434c3.797,1.626,7.104,3.85,9.938,6.682s5.062,6.146,6.688,9.947
			c1.623,3.796,2.436,7.838,2.436,12.12v76.968L1250.964,224.55L1250.964,224.55z"/>
		<path fill="#FFFFFF" d="M563.109,377.258c0,4.278-0.865,8.198-2.588,11.758c-1.729,3.562-4.075,6.612-7.051,9.169
			c-2.971,2.562-6.4,4.539-10.308,5.955s-7.995,2.12-12.276,2.12H522.4c-4.283,0-8.377-0.812-12.277-2.434
			c-3.903-1.623-7.32-3.843-10.257-6.688c-2.938-2.819-5.28-6.14-7.042-9.938c-1.76-3.798-2.646-7.839-2.646-12.116v-4.248
			l12.739-2.074v7.043c0,2.562,0.531,4.961,1.604,7.201c1.064,2.243,2.503,4.194,4.301,5.854c1.795,1.649,3.866,2.973,6.217,3.938
			c2.346,0.967,4.799,1.447,7.354,1.447h8.487c2.562,0,5.008-0.376,7.355-1.137c2.347-0.77,4.438-1.854,6.27-3.271
			c1.829-1.416,3.28-3.123,4.354-5.129c1.062-1.997,1.604-4.276,1.604-6.835c0-3.797-0.823-6.902-2.481-9.323
			c-1.657-2.419-3.854-4.438-6.575-6.062c-2.729-1.623-5.836-2.965-9.322-4.034c-3.49-1.071-7.062-2.146-10.725-3.216
			c-3.663-1.07-7.236-2.295-10.729-3.674c-3.479-1.391-6.594-3.199-9.317-5.441c-2.729-2.242-4.918-5.061-6.574-8.441
			c-1.661-3.385-2.487-7.594-2.487-12.639c0-4.278,0.826-8.196,2.487-11.757c1.656-3.562,3.896-6.613,6.729-9.17
			c2.832-2.559,6.127-4.539,9.896-5.955c3.763-1.416,7.785-2.128,12.062-2.128h7.459c4.282,0,8.323,0.817,12.12,2.435
			c3.796,1.631,7.115,3.854,9.947,6.684c2.827,2.834,5.056,6.146,6.683,9.951c1.618,3.797,2.438,7.838,2.438,12.115v0.413
			l-12.744,2.074v-3.215c0-2.551-0.48-4.953-1.45-7.195c-0.97-2.241-2.272-4.192-3.935-5.854c-1.657-1.652-3.608-2.973-5.854-3.938
			c-2.243-0.964-4.644-1.453-7.198-1.453h-7.459c-2.554,0-4.955,0.385-7.193,1.143c-2.243,0.767-4.195,1.854-5.854,3.262
			c-1.657,1.424-2.971,3.13-3.938,5.128c-0.975,2.006-1.451,4.287-1.451,6.844c0,3.658,0.831,6.646,2.488,8.955
			c1.651,2.319,3.85,4.271,6.574,5.854c2.729,1.593,5.833,2.917,9.321,3.983c3.486,1.072,7.042,2.178,10.67,3.314
			c3.625,1.141,7.187,2.436,10.67,3.889c3.486,1.446,6.601,3.312,9.323,5.588c2.729,2.28,4.922,5.129,6.579,8.555
			C562.282,367.989,563.109,372.214,563.109,377.258z"/>
		<path fill="#FFFFFF" d="M626.196,404.194c-3.865,0-7.509-0.729-10.933-2.181c-3.421-1.449-6.392-3.461-8.903-6.01
			c-2.521-2.557-4.522-5.521-6.015-8.906c-1.479-3.387-2.229-7.015-2.229-10.878v-65.997h-19.062V298.11h19.062v-25.479l12.74-2.072
			v27.556h26.938v12.117h-26.937v66.611c0,2.146,0.396,4.126,1.188,5.955s1.879,3.438,3.268,4.813
			c1.381,1.386,3.004,2.473,4.861,3.27c1.868,0.788,3.869,1.188,6.014,1.188h11.604v12.125L626.196,404.194L626.196,404.194z"/>
		<path fill="#FFFFFF" d="M727.821,404.194l-7.042-10.57c-2.899,3.804-6.527,6.856-10.876,9.169
			c-4.354,2.312-9.116,3.468-14.3,3.468h-3.207c-4.285,0-8.327-0.812-12.123-2.434c-3.808-1.623-7.114-3.844-9.943-6.688
			c-2.836-2.818-5.062-6.139-6.682-9.938c-1.627-3.796-2.438-7.84-2.438-12.116v-1.041c0-4.276,0.812-8.319,2.438-12.116
			c1.611-3.797,3.846-7.104,6.682-9.938c2.829-2.832,6.144-5.062,9.943-6.688c3.796-1.621,7.838-2.435,12.123-2.435h26.933v-16.372
			c0-2.549-0.485-4.953-1.449-7.195c-0.97-2.24-2.28-4.191-3.936-5.854c-1.661-1.653-3.612-2.973-5.854-3.938
			c-2.242-0.964-4.646-1.452-7.199-1.452h-7.459c-2.557,0-4.949,0.488-7.195,1.452c-2.243,0.966-4.194,2.281-5.854,3.938
			c-1.653,1.66-2.971,3.611-3.936,5.854c-0.97,2.242-1.45,4.646-1.45,7.195v3.834l-12.744-2.074v-1.031
			c0-4.276,0.813-8.317,2.438-12.115c1.623-3.808,3.852-7.117,6.685-9.95c2.832-2.832,6.146-5.054,9.946-6.685
			c3.796-1.613,7.838-2.436,12.117-2.436h7.459c4.279,0,8.316,0.818,12.117,2.436c3.801,1.631,7.109,3.853,9.941,6.685
			c2.832,2.833,5.061,6.146,6.684,9.95c1.623,3.797,2.438,7.838,2.438,12.115v76.974L727.821,404.194L727.821,404.194z
			 M719.328,352.811h-26.932c-2.562,0-4.967,0.481-7.202,1.446c-2.247,0.976-4.193,2.296-5.854,3.988
			c-1.657,1.698-2.971,3.666-3.936,5.907c-0.975,2.238-1.45,4.646-1.45,7.203v4.44c0,2.562,0.479,4.96,1.45,7.202
			c0.965,2.243,2.271,4.193,3.936,5.854c1.661,1.647,3.607,2.972,5.854,3.937c2.235,0.965,4.643,1.446,7.202,1.446h8.485
			c2.56,0,4.957-0.481,7.199-1.446c2.241-0.965,4.193-2.28,5.854-3.937c1.65-1.66,2.97-3.61,3.938-5.854
			c0.964-2.242,1.449-4.646,1.449-7.202L719.328,352.811L719.328,352.811z"/>
		<path fill="#FFFFFF" d="M796.193,404.194c-3.869,0-7.52-0.729-10.934-2.181c-3.421-1.449-6.392-3.461-8.902-6.01
			c-2.526-2.557-4.523-5.521-6.016-8.906c-1.479-3.387-2.229-7.015-2.229-10.878v-65.997h-19.062V298.11h19.062v-25.479
			l12.738-2.072v27.556h26.935v12.117h-26.93v66.611c0,2.146,0.395,4.126,1.188,5.955c0.796,1.829,1.883,3.438,3.271,4.813
			c1.383,1.386,3.006,2.473,4.862,3.27c1.864,0.788,3.869,1.188,6.016,1.188h11.6v12.125L796.193,404.194L796.193,404.194z"/>
		<path fill="#FFFFFF" d="M834.419,272.632v-16.987h14.813v16.987H834.419z M835.455,404.194V298.113h12.74v106.083L835.455,404.194
			L835.455,404.194z"/>
		<path fill="#FFFFFF" d="M946.352,387.201c-1.623,3.805-3.851,7.117-6.683,9.938c-2.832,2.847-6.146,5.062-9.942,6.688
			c-3.802,1.622-7.839,2.434-12.115,2.434h-8.492c-4.286,0-8.327-0.812-12.124-2.434c-3.796-1.623-7.109-3.844-9.941-6.688
			c-2.832-2.818-5.061-6.139-6.684-9.938c-1.623-3.797-2.438-7.84-2.438-12.116v-47.86c0-4.276,0.813-8.317,2.438-12.115
			c1.623-3.808,3.852-7.117,6.684-9.95c2.831-2.832,6.146-5.054,9.941-6.685c3.797-1.613,7.838-2.436,12.124-2.436h8.492
			c4.276,0,8.313,0.818,12.115,2.436c3.803,1.631,7.11,3.853,9.942,6.685c2.831,2.833,5.06,6.146,6.683,9.95
			c1.622,3.797,2.438,7.838,2.438,12.115v47.86C948.783,379.363,947.974,383.404,946.352,387.201z M936.044,326.496
			c0-2.549-0.485-4.953-1.45-7.195c-0.968-2.24-2.281-4.191-3.936-5.854c-1.661-1.653-3.611-2.973-5.854-3.938
			c-2.241-0.964-4.646-1.452-7.192-1.452h-8.492c-2.562,0-4.96,0.488-7.202,1.452c-2.242,0.966-4.193,2.281-5.854,3.938
			c-1.647,1.66-2.971,3.611-3.937,5.854c-0.968,2.242-1.449,4.646-1.449,7.195v49.311c0,2.562,0.481,4.959,1.449,7.2
			c0.966,2.243,2.281,4.194,3.937,5.854c1.66,1.646,3.611,2.971,5.854,3.936c2.242,0.967,4.646,1.447,7.202,1.447h8.492
			c2.554,0,4.955-0.48,7.192-1.447c2.243-0.965,4.193-2.279,5.854-3.936c1.646-1.66,2.968-3.611,3.936-5.854
			c0.965-2.241,1.45-4.646,1.45-7.2V326.496z"/>
		<path fill="#FFFFFF" d="M1032.385,404.194v-77.698c0-2.549-0.479-4.953-1.449-7.195c-0.97-2.24-2.271-4.191-3.938-5.854
			c-1.652-1.653-3.608-2.973-5.854-3.938c-2.245-0.964-4.646-1.452-7.197-1.452h-8.496c-2.562,0-4.956,0.488-7.198,1.452
			c-2.246,0.966-4.192,2.281-5.853,3.938c-1.661,1.66-2.976,3.611-3.938,5.854c-0.97,2.242-1.451,4.646-1.451,7.195v77.698h-12.733
			V298.113h4.237l6.942,10.773c2.9-3.938,6.545-7.062,10.931-9.375c4.393-2.312,9.17-3.477,14.351-3.477h3.215
			c4.278,0,8.317,0.816,12.117,2.436c3.8,1.629,7.108,3.853,9.945,6.684c2.826,2.834,5.061,6.146,6.684,9.951
			c1.622,3.795,2.435,7.838,2.435,12.113v76.979L1032.385,404.194L1032.385,404.194z"/>
	</g>
</g>
<g id="Layer_3">
</g>
<g enable-background="new    ">
	<path d="M243.066,458.765h-20.795v-1.372h20.795V458.765z"/>
	<path d="M263.861,458.765h-20.795v-1.372h20.795V458.765z"/>
	<path d="M347.044,458.765h-20.796v-1.372h20.796V458.765z"/>
	<path d="M367.839,458.765h-20.796v-1.372h20.796V458.765z"/>
</g>
<g enable-background="new    ">
	<path fill="none" stroke="#8DC63F" stroke-width="3" d="M243.066,458.765h-20.795v-1.372h20.795V458.765z"/>
	<path fill="none" stroke="#8DC63F" stroke-width="3" d="M263.861,458.765h-20.795v-1.372h20.795V458.765z"/>
	<path fill="none" stroke="#8DC63F" stroke-width="3" d="M347.044,458.765h-20.796v-1.372h20.796V458.765z"/>
	<path fill="none" stroke="#8DC63F" stroke-width="3" d="M367.839,458.765h-20.796v-1.372h20.796V458.765z"/>
</g>
<g enable-background="new    ">
	<path fill="#00FFFF" d="M492.612,458.765h-20.796v-1.372h20.796V458.765z"/>
	<path fill="#00FFFF" d="M513.408,458.765h-20.796v-1.372h20.796V458.765z"/>
	<path fill="#00FFFF" d="M534.203,458.765h-20.796v-1.372h20.796V458.765z"/>
	<path fill="#00FFFF" d="M554.999,458.765h-20.796v-1.372h20.796V458.765z"/>
	<path fill="#00FFFF" d="M575.794,458.765h-20.796v-1.372h20.796V458.765z"/>
	<path fill="#00FFFF" d="M596.59,458.765h-20.796v-1.372h20.796V458.765z"/>
	<path fill="#00FFFF" d="M638.181,458.765h-20.796v-1.372h20.796V458.765z"/>
	<path fill="#00FFFF" d="M658.976,458.765H638.18v-1.372h20.796V458.765z"/>
	<path fill="#00FFFF" d="M679.771,458.765h-20.798v-1.372h20.798V458.765z"/>
	<path fill="#00FFFF" d="M700.566,458.765H679.77v-1.372h20.798L700.566,458.765L700.566,458.765z"/>
	<path fill="#00FFFF" d="M721.362,458.765h-20.796v-1.372h20.796V458.765z"/>
	<path fill="#00FFFF" d="M762.953,458.765h-20.796v-1.372h20.796V458.765z"/>
	<path fill="#00FFFF" d="M783.748,458.765h-20.796v-1.372h20.796V458.765z"/>
	<path fill="#00FFFF" d="M804.544,458.765h-20.796v-1.372h20.796V458.765z"/>
	<path fill="#00FFFF" d="M825.339,458.765h-20.796v-1.372h20.796V458.765z"/>
	<path fill="#00FFFF" d="M846.135,458.765h-20.796v-1.372h20.796V458.765z"/>
	<path fill="#00FFFF" d="M866.931,458.765h-20.796v-1.372h20.796V458.765z"/>
	<path fill="#00FFFF" d="M887.726,458.765H866.93v-1.372h20.796V458.765z"/>
	<path fill="#00FFFF" d="M908.521,458.765h-20.798v-1.372h20.798V458.765z"/>
	<path fill="#00FFFF" d="M929.316,458.765H908.52v-1.372h20.798L929.316,458.765L929.316,458.765z"/>
	<path fill="#00FFFF" d="M950.112,458.765h-20.796v-1.372h20.796V458.765z"/>
	<path fill="#00FFFF" d="M970.907,458.765h-20.796v-1.372h20.796V458.765z"/>
	<path fill="#00FFFF" d="M1012.498,458.765h-20.796v-1.372h20.796V458.765z"/>
	<path fill="#00FFFF" d="M1033.294,458.765h-20.796v-1.372h20.796V458.765z"/>
	<path fill="#00FFFF" d="M1054.089,458.765h-20.796v-1.372h20.796V458.765z"/>
	<path fill="#00FFFF" d="M1074.885,458.765h-20.796v-1.372h20.796V458.765z"/>
	<path fill="#00FFFF" d="M1095.68,458.765h-20.796v-1.372h20.796V458.765z"/>
</g>
<g enable-background="new    ">
	<path fill="none" stroke="#00FFFF" stroke-width="3" d="M492.612,458.765h-20.796v-1.372h20.796V458.765z"/>
	<path fill="none" stroke="#00FFFF" stroke-width="3" d="M513.408,458.765h-20.796v-1.372h20.796V458.765z"/>
	<path fill="none" stroke="#00FFFF" stroke-width="3" d="M534.203,458.765h-20.796v-1.372h20.796V458.765z"/>
	<path fill="none" stroke="#00FFFF" stroke-width="3" d="M554.999,458.765h-20.796v-1.372h20.796V458.765z"/>
	<path fill="none" stroke="#00FFFF" stroke-width="3" d="M575.794,458.765h-20.796v-1.372h20.796V458.765z"/>
	<path fill="none" stroke="#00FFFF" stroke-width="3" d="M596.59,458.765h-20.796v-1.372h20.796V458.765z"/>
	<path fill="none" stroke="#00FFFF" stroke-width="3" d="M638.181,458.765h-20.796v-1.372h20.796V458.765z"/>
	<path fill="none" stroke="#00FFFF" stroke-width="3" d="M658.976,458.765H638.18v-1.372h20.796V458.765z"/>
	<path fill="none" stroke="#00FFFF" stroke-width="3" d="M679.771,458.765h-20.798v-1.372h20.798V458.765z"/>
	<path fill="none" stroke="#00FFFF" stroke-width="3" d="M700.566,458.765H679.77v-1.372h20.798L700.566,458.765L700.566,458.765z"
		/>
	<path fill="none" stroke="#00FFFF" stroke-width="3" d="M721.362,458.765h-20.796v-1.372h20.796V458.765z"/>
	<path fill="none" stroke="#00FFFF" stroke-width="3" d="M762.953,458.765h-20.796v-1.372h20.796V458.765z"/>
	<path fill="none" stroke="#00FFFF" stroke-width="3" d="M783.748,458.765h-20.796v-1.372h20.796V458.765z"/>
	<path fill="none" stroke="#00FFFF" stroke-width="3" d="M804.544,458.765h-20.796v-1.372h20.796V458.765z"/>
	<path fill="none" stroke="#00FFFF" stroke-width="3" d="M825.339,458.765h-20.796v-1.372h20.796V458.765z"/>
	<path fill="none" stroke="#00FFFF" stroke-width="3" d="M846.135,458.765h-20.796v-1.372h20.796V458.765z"/>
	<path fill="none" stroke="#00FFFF" stroke-width="3" d="M866.931,458.765h-20.796v-1.372h20.796V458.765z"/>
	<path fill="none" stroke="#00FFFF" stroke-width="3" d="M887.726,458.765H866.93v-1.372h20.796V458.765z"/>
	<path fill="none" stroke="#00FFFF" stroke-width="3" d="M908.521,458.765h-20.798v-1.372h20.798V458.765z"/>
	<path fill="none" stroke="#00FFFF" stroke-width="3" d="M929.316,458.765H908.52v-1.372h20.798L929.316,458.765L929.316,458.765z"
		/>
	<path fill="none" stroke="#00FFFF" stroke-width="3" d="M950.112,458.765h-20.796v-1.372h20.796V458.765z"/>
	<path fill="none" stroke="#00FFFF" stroke-width="3" d="M970.907,458.765h-20.796v-1.372h20.796V458.765z"/>
	<path fill="none" stroke="#00FFFF" stroke-width="3" d="M1012.498,458.765h-20.796v-1.372h20.796V458.765z"/>
	<path fill="none" stroke="#00FFFF" stroke-width="3" d="M1033.294,458.765h-20.796v-1.372h20.796V458.765z"/>
	<path fill="none" stroke="#00FFFF" stroke-width="3" d="M1054.089,458.765h-20.796v-1.372h20.796V458.765z"/>
	<path fill="none" stroke="#00FFFF" stroke-width="3" d="M1074.885,458.765h-20.796v-1.372h20.796V458.765z"/>
	<path fill="none" stroke="#00FFFF" stroke-width="3" d="M1095.68,458.765h-20.796v-1.372h20.796V458.765z"/>
</g>
<g enable-background="new    ">
	<path d="M240.96,480.329h-3.065l-12.669-15.516h3.065L240.96,480.329z"/>
	<path d="M282.551,480.329h-3.065l-12.669-15.516h3.065L282.551,480.329z"/>
	<path d="M323.312,464.812l-12.672,15.517h-3.063l12.669-15.517H323.312z"/>
	<path d="M364.902,464.812l-12.67,15.517h-3.065l12.669-15.517H364.902z"/>
</g>
<g enable-background="new    ">
	<path fill="none" stroke="#8DC63F" stroke-width="3" d="M240.96,480.329h-3.065l-12.669-15.516h3.065L240.96,480.329z"/>
	<path fill="none" stroke="#8DC63F" stroke-width="3" d="M282.551,480.329h-3.065l-12.669-15.516h3.065L282.551,480.329z"/>
	<path fill="none" stroke="#8DC63F" stroke-width="3" d="M323.312,464.812l-12.672,15.517h-3.063l12.669-15.517H323.312z"/>
	<path fill="none" stroke="#8DC63F" stroke-width="3" d="M364.902,464.812l-12.67,15.517h-3.065l12.669-15.517H364.902z"/>
</g>
<g enable-background="new    ">
	<path fill="#00FFFF" d="M483.729,482.188H480.7v-19.519h3.028V482.188L483.729,482.188z"/>
	<path fill="#00FFFF" d="M534.203,482.188h-20.796v-1.37h20.796V482.188z"/>
	<path fill="#00FFFF" d="M554.999,482.188h-20.796v-1.37h20.796V482.188z"/>
	<path fill="#00FFFF" d="M575.794,482.188h-20.796v-1.37h20.796V482.188z"/>
	<path fill="#00FFFF" d="M615.279,480.329h-3.066l-12.669-15.516h3.065L615.279,480.329z"/>
	<path fill="#00FFFF" d="M679.771,482.188h-20.798v-1.37h20.798V482.188z"/>
	<path fill="#00FFFF" d="M700.566,482.188H679.77v-1.37h20.798L700.566,482.188L700.566,482.188z"/>
	<path fill="#00FFFF" d="M721.362,482.188h-20.796v-1.37h20.796V482.188z"/>
	<path fill="#00FFFF" d="M733.273,482.188h-3.028v-19.519h3.028V482.188z"/>
	<path fill="#00FFFF" d="M762.953,482.188h-20.796v-1.37h20.796V482.188z"/>
	<path fill="#00FFFF" d="M846.135,482.188h-20.796v-1.37h20.796V482.188z"/>
	<path fill="#00FFFF" d="M858.047,482.188h-3.028v-19.519h3.028V482.188z"/>
	<path fill="#00FFFF" d="M908.521,482.188h-20.798v-1.37h20.798V482.188z"/>
	<path fill="#00FFFF" d="M929.316,482.188H908.52v-1.37h20.798L929.316,482.188L929.316,482.188z"/>
	<path fill="#00FFFF" d="M950.112,482.188h-20.796v-1.37h20.796V482.188z"/>
	<path fill="#00FFFF" d="M989.598,480.329h-3.064l-12.669-15.516h3.063L989.598,480.329z"/>
	<path fill="#00FFFF" d="M1054.089,482.188h-20.796v-1.37h20.796V482.188z"/>
	<path fill="#00FFFF" d="M1107.592,482.188h-3.026v-19.519h3.026V482.188z"/>
</g>
<g enable-background="new    ">
	<path fill="none" stroke="#00FFFF" stroke-width="3" d="M483.729,482.188H480.7v-19.519h3.028V482.188L483.729,482.188z"/>
	<path fill="none" stroke="#00FFFF" stroke-width="3" d="M534.203,482.188h-20.796v-1.37h20.796V482.188z"/>
	<path fill="none" stroke="#00FFFF" stroke-width="3" d="M554.999,482.188h-20.796v-1.37h20.796V482.188z"/>
	<path fill="none" stroke="#00FFFF" stroke-width="3" d="M575.794,482.188h-20.796v-1.37h20.796V482.188z"/>
	<path fill="none" stroke="#00FFFF" stroke-width="3" d="M615.279,480.329h-3.066l-12.669-15.516h3.065L615.279,480.329z"/>
	<path fill="none" stroke="#00FFFF" stroke-width="3" d="M679.771,482.188h-20.798v-1.37h20.798V482.188z"/>
	<path fill="none" stroke="#00FFFF" stroke-width="3" d="M700.566,482.188H679.77v-1.37h20.798L700.566,482.188L700.566,482.188z"/>
	<path fill="none" stroke="#00FFFF" stroke-width="3" d="M721.362,482.188h-20.796v-1.37h20.796V482.188z"/>
	<path fill="none" stroke="#00FFFF" stroke-width="3" d="M733.273,482.188h-3.028v-19.519h3.028V482.188z"/>
	<path fill="none" stroke="#00FFFF" stroke-width="3" d="M762.953,482.188h-20.796v-1.37h20.796V482.188z"/>
	<path fill="none" stroke="#00FFFF" stroke-width="3" d="M846.135,482.188h-20.796v-1.37h20.796V482.188z"/>
	<path fill="none" stroke="#00FFFF" stroke-width="3" d="M858.047,482.188h-3.028v-19.519h3.028V482.188z"/>
	<path fill="none" stroke="#00FFFF" stroke-width="3" d="M908.521,482.188h-20.798v-1.37h20.798V482.188z"/>
	<path fill="none" stroke="#00FFFF" stroke-width="3" d="M929.316,482.188H908.52v-1.37h20.798L929.316,482.188L929.316,482.188z"/>
	<path fill="none" stroke="#00FFFF" stroke-width="3" d="M950.112,482.188h-20.796v-1.37h20.796V482.188z"/>
	<path fill="none" stroke="#00FFFF" stroke-width="3" d="M989.598,480.329h-3.064l-12.669-15.516h3.063L989.598,480.329z"/>
	<path fill="none" stroke="#00FFFF" stroke-width="3" d="M1054.089,482.188h-20.796v-1.37h20.796V482.188z"/>
	<path fill="none" stroke="#00FFFF" stroke-width="3" d="M1107.592,482.188h-3.026v-19.519h3.026V482.188z"/>
</g>
<g enable-background="new    ">
	<path d="M261.756,503.751h-3.065l-12.669-15.516h3.065L261.756,503.751z"/>
	<path d="M305.378,489.246l-8.2,12.456h-4.432l-8.016-12.456h3.712l5.208,8.396l1.478,2.458l1.514-2.458l5.227-8.396H305.378z"/>
	<path d="M344.107,488.235l-12.672,15.516h-3.063l12.669-15.516H344.107z"/>
</g>
<g enable-background="new    ">
	<path fill="none" stroke="#8DC63F" stroke-width="3" d="M261.756,503.751h-3.065l-12.669-15.516h3.065L261.756,503.751z"/>
	<path fill="none" stroke="#8DC63F" stroke-width="3" d="M305.378,489.246l-8.2,12.456h-4.432l-8.016-12.456h3.712l5.208,8.396
		l1.478,2.458l1.514-2.458l5.227-8.396H305.378z"/>
	<path fill="none" stroke="#8DC63F" stroke-width="3" d="M344.107,488.235l-12.672,15.516h-3.063l12.669-15.516H344.107z"/>
</g>
<g enable-background="new    ">
	<path fill="#FF6400" d="M388.636,505.609H367.84v-1.372h20.796V505.609z"/>
	<path fill="#FF6400" d="M409.432,505.609h-20.796v-1.372h20.796V505.609z"/>
	<path fill="#FF6400" d="M430.227,505.609h-20.796v-1.372h20.796V505.609z"/>
	<path fill="#FF6400" d="M451.022,505.609h-20.798v-1.372h20.798V505.609z"/>
</g>
<g enable-background="new    ">
	<path fill="none" stroke="#FF6400" stroke-width="3" d="M388.636,505.609H367.84v-1.372h20.796V505.609z"/>
	<path fill="none" stroke="#FF6400" stroke-width="3" d="M409.432,505.609h-20.796v-1.372h20.796V505.609z"/>
	<path fill="none" stroke="#FF6400" stroke-width="3" d="M430.227,505.609h-20.796v-1.372h20.796V505.609z"/>
	<path fill="none" stroke="#FF6400" stroke-width="3" d="M451.022,505.609h-20.798v-1.372h20.798V505.609z"/>
</g>
<g enable-background="new    ">
	<path fill="#00FFFF" d="M483.729,505.609H480.7v-19.521h3.028V505.609L483.729,505.609z"/>
	<path fill="#00FFFF" d="M525.319,505.609h-3.028v-19.521h3.028V505.609z"/>
	<path fill="#00FFFF" d="M554.999,505.609h-20.796v-1.372h20.796V505.609z"/>
	<path fill="#00FFFF" d="M572.857,488.235l-12.67,15.516h-3.065l12.669-15.516H572.857z"/>
	<path fill="#00FFFF" d="M614.448,488.235l-12.67,15.516h-3.065l12.669-15.516H614.448z"/>
	<path fill="#00FFFF" d="M650.092,505.609h-3.026v-19.521h3.026V505.609z"/>
	<path fill="#00FFFF" d="M679.771,505.609h-20.798v-1.372h20.798V505.609z"/>
	<path fill="#00FFFF" d="M700.566,505.609H679.77v-1.372h20.798L700.566,505.609L700.566,505.609z"/>
	<path fill="#00FFFF" d="M774.864,505.609h-3.028v-19.521h3.028V505.609z"/>
	<path fill="#00FFFF" d="M816.455,505.609h-3.028v-19.521h3.028V505.609z"/>
	<path fill="#00FFFF" d="M858.047,505.609h-3.028v-19.521h3.028V505.609z"/>
	<path fill="#00FFFF" d="M899.638,505.609h-3.026v-19.521h3.026V505.609z"/>
	<path fill="#00FFFF" d="M929.316,505.609H908.52v-1.372h20.798L929.316,505.609L929.316,505.609z"/>
	<path fill="#00FFFF" d="M947.176,488.235l-12.67,15.516h-3.063l12.669-15.516H947.176z"/>
	<path fill="#00FFFF" d="M988.767,488.235l-12.67,15.516h-3.063l12.669-15.516H988.767z"/>
	<path fill="#00FFFF" d="M1024.41,505.609h-3.028v-19.521h3.028V505.609z"/>
	<path fill="#00FFFF" d="M1066.001,505.609h-3.028v-19.521h3.028V505.609z"/>
	<path fill="#00FFFF" d="M1107.592,505.609h-3.026v-19.521h3.026V505.609z"/>
</g>
<g enable-background="new    ">
	<path fill="none" stroke="#00FFFF" stroke-width="3" d="M483.729,505.609H480.7v-19.521h3.028V505.609L483.729,505.609z"/>
	<path fill="none" stroke="#00FFFF" stroke-width="3" d="M525.319,505.609h-3.028v-19.521h3.028V505.609z"/>
	<path fill="none" stroke="#00FFFF" stroke-width="3" d="M554.999,505.609h-20.796v-1.372h20.796V505.609z"/>
	<path fill="none" stroke="#00FFFF" stroke-width="3" d="M572.857,488.235l-12.67,15.516h-3.065l12.669-15.516H572.857z"/>
	<path fill="none" stroke="#00FFFF" stroke-width="3" d="M614.448,488.235l-12.67,15.516h-3.065l12.669-15.516H614.448z"/>
	<path fill="none" stroke="#00FFFF" stroke-width="3" d="M650.092,505.609h-3.026v-19.521h3.026V505.609z"/>
	<path fill="none" stroke="#00FFFF" stroke-width="3" d="M679.771,505.609h-20.798v-1.372h20.798V505.609z"/>
	<path fill="none" stroke="#00FFFF" stroke-width="3" d="M700.566,505.609H679.77v-1.372h20.798L700.566,505.609L700.566,505.609z"
		/>
	<path fill="none" stroke="#00FFFF" stroke-width="3" d="M774.864,505.609h-3.028v-19.521h3.028V505.609z"/>
	<path fill="none" stroke="#00FFFF" stroke-width="3" d="M816.455,505.609h-3.028v-19.521h3.028V505.609z"/>
	<path fill="none" stroke="#00FFFF" stroke-width="3" d="M858.047,505.609h-3.028v-19.521h3.028V505.609z"/>
	<path fill="none" stroke="#00FFFF" stroke-width="3" d="M899.638,505.609h-3.026v-19.521h3.026V505.609z"/>
	<path fill="none" stroke="#00FFFF" stroke-width="3" d="M929.316,505.609H908.52v-1.372h20.798L929.316,505.609L929.316,505.609z"
		/>
	<path fill="none" stroke="#00FFFF" stroke-width="3" d="M947.176,488.235l-12.67,15.516h-3.063l12.669-15.516H947.176z"/>
	<path fill="none" stroke="#00FFFF" stroke-width="3" d="M988.767,488.235l-12.67,15.516h-3.063l12.669-15.516H988.767z"/>
	<path fill="none" stroke="#00FFFF" stroke-width="3" d="M1024.41,505.609h-3.028v-19.521h3.028V505.609z"/>
	<path fill="none" stroke="#00FFFF" stroke-width="3" d="M1066.001,505.609h-3.028v-19.521h3.028V505.609z"/>
	<path fill="none" stroke="#00FFFF" stroke-width="3" d="M1107.592,505.609h-3.026v-19.521h3.026V505.609z"/>
</g>
<g enable-background="new    ">
	<path d="M260.925,511.658l-12.669,15.516h-3.065l12.669-15.516H260.925L260.925,511.658z"/>
	<path d="M344.938,527.174h-3.064l-12.669-15.516h3.063L344.938,527.174z"/>
</g>
<g enable-background="new    ">
	<path fill="none" stroke="#8DC63F" stroke-width="3" d="M260.925,511.658l-12.669,15.516h-3.065l12.669-15.516H260.925
		L260.925,511.658z"/>
	<path fill="none" stroke="#8DC63F" stroke-width="3" d="M344.938,527.174h-3.064l-12.669-15.516h3.063L344.938,527.174z"/>
</g>
<g enable-background="new    ">
	<path fill="#FF6400" d="M358.955,529.032h-3.028v-19.521h3.028V529.032z"/>
	<path fill="#FF6400" d="M388.635,529.032h-20.796v-1.372h20.796V529.032z"/>
	<path fill="#FF6400" d="M409.43,529.032h-20.796v-1.372h20.796V529.032z"/>
	<path fill="#FF6400" d="M430.226,529.032H409.43v-1.372h20.796V529.032L430.226,529.032z"/>
	<path fill="#FF6400" d="M451.021,529.032h-20.798v-1.372h20.798V529.032z"/>
	<path fill="#FF6400" d="M462.933,529.032h-3.026v-19.521h3.026V529.032z"/>
</g>
<g enable-background="new    ">
	<path fill="none" stroke="#FF6400" stroke-width="3" d="M358.955,529.032h-3.028v-19.521h3.028V529.032z"/>
	<path fill="none" stroke="#FF6400" stroke-width="3" d="M388.635,529.032h-20.796v-1.372h20.796V529.032z"/>
	<path fill="none" stroke="#FF6400" stroke-width="3" d="M409.43,529.032h-20.796v-1.372h20.796V529.032z"/>
	<path fill="none" stroke="#FF6400" stroke-width="3" d="M430.226,529.032H409.43v-1.372h20.796V529.032L430.226,529.032z"/>
	<path fill="none" stroke="#FF6400" stroke-width="3" d="M451.021,529.032h-20.798v-1.372h20.798V529.032z"/>
	<path fill="none" stroke="#FF6400" stroke-width="3" d="M462.933,529.032h-3.026v-19.521h3.026V529.032z"/>
</g>
<g enable-background="new    ">
	<path fill="#00FFFF" d="M483.729,529.032H480.7v-19.521h3.028V529.032L483.729,529.032z"/>
	<path fill="#00FFFF" d="M593.653,511.658l-12.67,15.516h-3.065l12.669-15.516H593.653L593.653,511.658z"/>
	<path fill="#00FFFF" d="M608.501,529.032h-3.028v-19.521h3.028V529.032z"/>
	<path fill="#00FFFF" d="M679.771,529.032h-20.798v-1.372h20.798V529.032z"/>
	<path fill="#00FFFF" d="M700.566,529.032H679.77v-1.372h20.798L700.566,529.032L700.566,529.032z"/>
	<path fill="#00FFFF" d="M712.479,529.032h-3.026v-19.521h3.026V529.032z"/>
	<path fill="#00FFFF" d="M774.864,529.032h-3.028v-19.521h3.028V529.032z"/>
	<path fill="#00FFFF" d="M816.455,529.032h-3.028v-19.521h3.028V529.032z"/>
	<path fill="#00FFFF" d="M858.047,529.032h-3.028v-19.521h3.028V529.032z"/>
	<path fill="#00FFFF" d="M967.971,511.658l-12.67,15.516h-3.063l12.669-15.516H967.971L967.971,511.658z"/>
	<path fill="#00FFFF" d="M982.819,529.032h-3.028v-19.521h3.028V529.032z"/>
	<path fill="#00FFFF" d="M1024.41,529.032h-3.028v-19.521h3.028V529.032z"/>
	<path fill="#00FFFF" d="M1066.001,529.032h-3.028v-19.521h3.028V529.032z"/>
	<path fill="#00FFFF" d="M1107.592,529.032h-3.026v-19.521h3.026V529.032z"/>
</g>
<g enable-background="new    ">
	<path fill="none" stroke="#00FFFF" stroke-width="3" d="M483.729,529.032H480.7v-19.521h3.028V529.032L483.729,529.032z"/>
	<path fill="none" stroke="#00FFFF" stroke-width="3" d="M593.653,511.658l-12.67,15.516h-3.065l12.669-15.516H593.653
		L593.653,511.658z"/>
	<path fill="none" stroke="#00FFFF" stroke-width="3" d="M608.501,529.032h-3.028v-19.521h3.028V529.032z"/>
	<path fill="none" stroke="#00FFFF" stroke-width="3" d="M679.771,529.032h-20.798v-1.372h20.798V529.032z"/>
	<path fill="none" stroke="#00FFFF" stroke-width="3" d="M700.566,529.032H679.77v-1.372h20.798L700.566,529.032L700.566,529.032z"
		/>
	<path fill="none" stroke="#00FFFF" stroke-width="3" d="M712.479,529.032h-3.026v-19.521h3.026V529.032z"/>
	<path fill="none" stroke="#00FFFF" stroke-width="3" d="M774.864,529.032h-3.028v-19.521h3.028V529.032z"/>
	<path fill="none" stroke="#00FFFF" stroke-width="3" d="M816.455,529.032h-3.028v-19.521h3.028V529.032z"/>
	<path fill="none" stroke="#00FFFF" stroke-width="3" d="M858.047,529.032h-3.028v-19.521h3.028V529.032z"/>
	<path fill="none" stroke="#00FFFF" stroke-width="3" d="M967.971,511.658l-12.67,15.516h-3.063l12.669-15.516H967.971
		L967.971,511.658z"/>
	<path fill="none" stroke="#00FFFF" stroke-width="3" d="M982.819,529.032h-3.028v-19.521h3.028V529.032z"/>
	<path fill="none" stroke="#00FFFF" stroke-width="3" d="M1024.41,529.032h-3.028v-19.521h3.028V529.032z"/>
	<path fill="none" stroke="#00FFFF" stroke-width="3" d="M1066.001,529.032h-3.028v-19.521h3.028V529.032z"/>
	<path fill="none" stroke="#00FFFF" stroke-width="3" d="M1107.592,529.032h-3.026v-19.521h3.026V529.032z"/>
</g>
<g enable-background="new    ">
	<path d="M240.129,535.08l-12.669,15.516h-3.065l12.669-15.516H240.129z"/>
	<path d="M281.72,535.08l-12.669,15.516h-3.065l12.669-15.516H281.72z"/>
	<path d="M303.384,542.181h-3.213l-5.337-4.773l-5.023,4.773h-2.918l6.759-6.09h2.623L303.384,542.181z"/>
	<path d="M324.143,550.596h-3.064l-12.669-15.516h3.063L324.143,550.596z"/>
	<path d="M365.733,550.596h-3.066l-12.669-15.516h3.063L365.733,550.596z"/>
</g>
<g enable-background="new    ">
	<path fill="none" stroke="#8DC63F" stroke-width="3" d="M240.129,535.08l-12.669,15.516h-3.065l12.669-15.516H240.129z"/>
	<path fill="none" stroke="#8DC63F" stroke-width="3" d="M281.72,535.08l-12.669,15.516h-3.065l12.669-15.516H281.72z"/>
	<path fill="none" stroke="#8DC63F" stroke-width="3" d="M303.384,542.181h-3.213l-5.337-4.773l-5.023,4.773h-2.918l6.759-6.09
		h2.623L303.384,542.181z"/>
	<path fill="none" stroke="#8DC63F" stroke-width="3" d="M324.143,550.596h-3.064l-12.669-15.516h3.063L324.143,550.596z"/>
	<path fill="none" stroke="#8DC63F" stroke-width="3" d="M365.733,550.596h-3.066l-12.669-15.516h3.063L365.733,550.596z"/>
</g>
<g enable-background="new    ">
	<path fill="#00FFFF" d="M483.729,552.454H480.7v-19.521h3.028V552.454L483.729,552.454z"/>
	<path fill="#00FFFF" d="M525.319,552.454h-3.028v-19.521h3.028V552.454z"/>
	<path fill="#00FFFF" d="M552.894,550.596h-3.064L537.16,535.08h3.063L552.894,550.596z"/>
	<path fill="#00FFFF" d="M594.484,550.596h-3.066l-12.669-15.516h3.065L594.484,550.596z"/>
	<path fill="#00FFFF" d="M608.501,552.454h-3.028v-19.521h3.028V552.454z"/>
	<path fill="#00FFFF" d="M650.092,552.454h-3.026v-19.521h3.026V552.454z"/>
	<path fill="#00FFFF" d="M679.771,552.454h-20.798v-1.372h20.798V552.454z"/>
	<path fill="#00FFFF" d="M700.566,552.454H679.77v-1.372h20.798L700.566,552.454L700.566,552.454z"/>
	<path fill="#00FFFF" d="M721.362,552.454h-20.796v-1.372h20.796V552.454z"/>
	<path fill="#00FFFF" d="M774.864,552.454h-3.028v-19.521h3.028V552.454z"/>
	<path fill="#00FFFF" d="M816.455,552.454h-3.028v-19.521h3.028V552.454z"/>
	<path fill="#00FFFF" d="M858.047,552.454h-3.028v-19.521h3.028V552.454z"/>
	<path fill="#00FFFF" d="M899.638,552.454h-3.026v-19.521h3.026V552.454z"/>
	<path fill="#00FFFF" d="M927.211,550.596h-3.066l-12.669-15.516h3.065L927.211,550.596z"/>
	<path fill="#00FFFF" d="M968.802,550.596h-3.064l-12.669-15.516h3.063L968.802,550.596z"/>
	<path fill="#00FFFF" d="M989.598,550.596h-3.064l-12.669-15.516h3.063L989.598,550.596z"/>
	<path fill="#00FFFF" d="M1031.188,550.596h-3.064l-12.669-15.516h3.063L1031.188,550.596z"/>
	<path fill="#00FFFF" d="M1054.089,552.454h-20.796v-1.372h20.796V552.454z"/>
	<path fill="#00FFFF" d="M1071.948,535.08l-12.67,15.516h-3.065l12.669-15.516H1071.948z"/>
	<path fill="#00FFFF" d="M1113.539,535.08l-12.67,15.516h-3.065l12.669-15.516H1113.539z"/>
</g>
<g enable-background="new    ">
	<path fill="none" stroke="#00FFFF" stroke-width="3" d="M483.729,552.454H480.7v-19.521h3.028V552.454L483.729,552.454z"/>
	<path fill="none" stroke="#00FFFF" stroke-width="3" d="M525.319,552.454h-3.028v-19.521h3.028V552.454z"/>
	<path fill="none" stroke="#00FFFF" stroke-width="3" d="M552.894,550.596h-3.064L537.16,535.08h3.063L552.894,550.596z"/>
	<path fill="none" stroke="#00FFFF" stroke-width="3" d="M594.484,550.596h-3.066l-12.669-15.516h3.065L594.484,550.596z"/>
	<path fill="none" stroke="#00FFFF" stroke-width="3" d="M608.501,552.454h-3.028v-19.521h3.028V552.454z"/>
	<path fill="none" stroke="#00FFFF" stroke-width="3" d="M650.092,552.454h-3.026v-19.521h3.026V552.454z"/>
	<path fill="none" stroke="#00FFFF" stroke-width="3" d="M679.771,552.454h-20.798v-1.372h20.798V552.454z"/>
	<path fill="none" stroke="#00FFFF" stroke-width="3" d="M700.566,552.454H679.77v-1.372h20.798L700.566,552.454L700.566,552.454z"
		/>
	<path fill="none" stroke="#00FFFF" stroke-width="3" d="M721.362,552.454h-20.796v-1.372h20.796V552.454z"/>
	<path fill="none" stroke="#00FFFF" stroke-width="3" d="M774.864,552.454h-3.028v-19.521h3.028V552.454z"/>
	<path fill="none" stroke="#00FFFF" stroke-width="3" d="M816.455,552.454h-3.028v-19.521h3.028V552.454z"/>
	<path fill="none" stroke="#00FFFF" stroke-width="3" d="M858.047,552.454h-3.028v-19.521h3.028V552.454z"/>
	<path fill="none" stroke="#00FFFF" stroke-width="3" d="M899.638,552.454h-3.026v-19.521h3.026V552.454z"/>
	<path fill="none" stroke="#00FFFF" stroke-width="3" d="M927.211,550.596h-3.066l-12.669-15.516h3.065L927.211,550.596z"/>
	<path fill="none" stroke="#00FFFF" stroke-width="3" d="M968.802,550.596h-3.064l-12.669-15.516h3.063L968.802,550.596z"/>
	<path fill="none" stroke="#00FFFF" stroke-width="3" d="M989.598,550.596h-3.064l-12.669-15.516h3.063L989.598,550.596z"/>
	<path fill="none" stroke="#00FFFF" stroke-width="3" d="M1031.188,550.596h-3.064l-12.669-15.516h3.063L1031.188,550.596z"/>
	<path fill="none" stroke="#00FFFF" stroke-width="3" d="M1054.089,552.454h-20.796v-1.372h20.796V552.454z"/>
	<path fill="none" stroke="#00FFFF" stroke-width="3" d="M1071.948,535.08l-12.67,15.516h-3.065l12.669-15.516H1071.948z"/>
	<path fill="none" stroke="#00FFFF" stroke-width="3" d="M1113.539,535.08l-12.67,15.516h-3.065l12.669-15.516H1113.539z"/>
</g>
<g enable-background="new    ">
	<path d="M240.96,574.019h-3.065l-12.669-15.516h3.065L240.96,574.019z"/>
	<path d="M260.925,558.503l-12.669,15.516h-3.065l12.669-15.516H260.925z"/>
	<path d="M344.938,574.019h-3.064l-12.669-15.516h3.063L344.938,574.019z"/>
	<path d="M364.902,558.503l-12.67,15.516h-3.065l12.669-15.516H364.902z"/>
</g>
<g enable-background="new    ">
	<path fill="none" stroke="#8DC63F" stroke-width="3" d="M240.96,574.019h-3.065l-12.669-15.516h3.065L240.96,574.019z"/>
	<path fill="none" stroke="#8DC63F" stroke-width="3" d="M260.925,558.503l-12.669,15.516h-3.065l12.669-15.516H260.925z"/>
	<path fill="none" stroke="#8DC63F" stroke-width="3" d="M344.938,574.019h-3.064l-12.669-15.516h3.063L344.938,574.019z"/>
	<path fill="none" stroke="#8DC63F" stroke-width="3" d="M364.902,558.503l-12.67,15.516h-3.065l12.669-15.516H364.902z"/>
</g>
<g enable-background="new    ">
	<path fill="#00FFFF" d="M490.507,574.019h-3.064l-12.671-15.516h3.065L490.507,574.019z"/>
	<path fill="#00FFFF" d="M513.408,575.877h-20.796v-1.372h20.796V575.877z"/>
	<path fill="#00FFFF" d="M525.319,575.877h-3.028v-19.519h3.028V575.877z"/>
	<path fill="#00FFFF" d="M573.688,574.019h-3.064l-12.669-15.516h3.063L573.688,574.019z"/>
	<path fill="#00FFFF" d="M596.59,575.877h-20.796v-1.372h20.796V575.877z"/>
	<path fill="#00FFFF" d="M615.279,574.019h-3.066l-12.669-15.516h3.065L615.279,574.019z"/>
	<path fill="#00FFFF" d="M638.181,575.877h-20.796v-1.372h20.796V575.877z"/>
	<path fill="#00FFFF" d="M658.976,575.877H638.18v-1.372h20.796V575.877z"/>
	<path fill="#00FFFF" d="M679.771,575.877h-20.798v-1.372h20.798V575.877z"/>
	<path fill="#00FFFF" d="M700.566,575.877H679.77v-1.372h20.798L700.566,575.877L700.566,575.877z"/>
	<path fill="#00FFFF" d="M718.426,558.503l-12.67,15.516h-3.063l12.669-15.516H718.426z"/>
	<path fill="#00FFFF" d="M781.643,574.019h-3.064l-12.669-15.516h3.063L781.643,574.019z"/>
	<path fill="#00FFFF" d="M804.544,575.877h-20.796v-1.372h20.796V575.877z"/>
	<path fill="#00FFFF" d="M822.402,558.503l-12.67,15.516h-3.065l12.669-15.516H822.402z"/>
	<path fill="#00FFFF" d="M864.825,574.019h-3.066l-12.669-15.516h3.065L864.825,574.019z"/>
	<path fill="#00FFFF" d="M887.726,575.877H866.93v-1.372h20.796V575.877z"/>
	<path fill="#00FFFF" d="M899.638,575.877h-3.026v-19.519h3.026V575.877z"/>
	<path fill="#00FFFF" d="M948.007,574.019h-3.064l-12.669-15.516h3.063L948.007,574.019z"/>
	<path fill="#00FFFF" d="M970.907,575.877h-20.796v-1.372h20.796V575.877z"/>
	<path fill="#00FFFF" d="M982.819,575.877h-3.028v-19.519h3.028V575.877z"/>
	<path fill="#00FFFF" d="M1010.393,574.019h-3.064l-12.669-15.516h3.063L1010.393,574.019z"/>
	<path fill="#00FFFF" d="M1033.294,575.877h-20.796v-1.372h20.796V575.877z"/>
	<path fill="#00FFFF" d="M1054.089,575.877h-20.796v-1.372h20.796V575.877z"/>
	<path fill="#00FFFF" d="M1074.885,575.877h-20.796v-1.372h20.796V575.877z"/>
	<path fill="#00FFFF" d="M1092.743,558.503l-12.67,15.516h-3.065l12.669-15.516H1092.743z"/>
</g>
<g enable-background="new    ">
	<path fill="none" stroke="#00FFFF" stroke-width="3" d="M490.507,574.019h-3.064l-12.671-15.516h3.065L490.507,574.019z"/>
	<path fill="none" stroke="#00FFFF" stroke-width="3" d="M513.408,575.877h-20.796v-1.372h20.796V575.877z"/>
	<path fill="none" stroke="#00FFFF" stroke-width="3" d="M525.319,575.877h-3.028v-19.519h3.028V575.877z"/>
	<path fill="none" stroke="#00FFFF" stroke-width="3" d="M573.688,574.019h-3.064l-12.669-15.516h3.063L573.688,574.019z"/>
	<path fill="none" stroke="#00FFFF" stroke-width="3" d="M596.59,575.877h-20.796v-1.372h20.796V575.877z"/>
	<path fill="none" stroke="#00FFFF" stroke-width="3" d="M615.279,574.019h-3.066l-12.669-15.516h3.065L615.279,574.019z"/>
	<path fill="none" stroke="#00FFFF" stroke-width="3" d="M638.181,575.877h-20.796v-1.372h20.796V575.877z"/>
	<path fill="none" stroke="#00FFFF" stroke-width="3" d="M658.976,575.877H638.18v-1.372h20.796V575.877z"/>
	<path fill="none" stroke="#00FFFF" stroke-width="3" d="M679.771,575.877h-20.798v-1.372h20.798V575.877z"/>
	<path fill="none" stroke="#00FFFF" stroke-width="3" d="M700.566,575.877H679.77v-1.372h20.798L700.566,575.877L700.566,575.877z"
		/>
	<path fill="none" stroke="#00FFFF" stroke-width="3" d="M718.426,558.503l-12.67,15.516h-3.063l12.669-15.516H718.426z"/>
	<path fill="none" stroke="#00FFFF" stroke-width="3" d="M781.643,574.019h-3.064l-12.669-15.516h3.063L781.643,574.019z"/>
	<path fill="none" stroke="#00FFFF" stroke-width="3" d="M804.544,575.877h-20.796v-1.372h20.796V575.877z"/>
	<path fill="none" stroke="#00FFFF" stroke-width="3" d="M822.402,558.503l-12.67,15.516h-3.065l12.669-15.516H822.402z"/>
	<path fill="none" stroke="#00FFFF" stroke-width="3" d="M864.825,574.019h-3.066l-12.669-15.516h3.065L864.825,574.019z"/>
	<path fill="none" stroke="#00FFFF" stroke-width="3" d="M887.726,575.877H866.93v-1.372h20.796V575.877z"/>
	<path fill="none" stroke="#00FFFF" stroke-width="3" d="M899.638,575.877h-3.026v-19.519h3.026V575.877z"/>
	<path fill="none" stroke="#00FFFF" stroke-width="3" d="M948.007,574.019h-3.064l-12.669-15.516h3.063L948.007,574.019z"/>
	<path fill="none" stroke="#00FFFF" stroke-width="3" d="M970.907,575.877h-20.796v-1.372h20.796V575.877z"/>
	<path fill="none" stroke="#00FFFF" stroke-width="3" d="M982.819,575.877h-3.028v-19.519h3.028V575.877z"/>
	<path fill="none" stroke="#00FFFF" stroke-width="3" d="M1010.393,574.019h-3.064l-12.669-15.516h3.063L1010.393,574.019z"/>
	<path fill="none" stroke="#00FFFF" stroke-width="3" d="M1033.294,575.877h-20.796v-1.372h20.796V575.877z"/>
	<path fill="none" stroke="#00FFFF" stroke-width="3" d="M1054.089,575.877h-20.796v-1.372h20.796V575.877z"/>
	<path fill="none" stroke="#00FFFF" stroke-width="3" d="M1074.885,575.877h-20.796v-1.372h20.796V575.877z"/>
	<path fill="none" stroke="#00FFFF" stroke-width="3" d="M1092.743,558.503l-12.67,15.516h-3.065l12.669-15.516H1092.743z"/>
</g>
</svg>
