<?xml version="1.0" encoding="utf-8"?>
<!-- Generator: Adobe Illustrator 15.1.0, SVG Export Plug-In . SVG Version: 6.00 Build 0)  -->
<!DOCTYPE svg PUBLIC "-//W3C//DTD SVG 1.1//EN" "http://www.w3.org/Graphics/SVG/1.1/DTD/svg11.dtd">
<svg version="1.1" id="Layer_1" xmlns="http://www.w3.org/2000/svg" xmlns:xlink="http://www.w3.org/1999/xlink" x="0px" y="0px"
	 width="1280px" height="720px" viewBox="0 0 1280 720" enable-background="new 0 0 1280 720" xml:space="preserve">
<g>
	<path fill="#FFFF00" stroke="#8DC63F" d="M576.928,648.258l4.977-20.158h14.93l-0.817,3.208h-10.181l-1.253,5.013h9.725
		l-0.741,3.131h-9.725l-1.387,5.599h10.181l-0.779,3.208H576.928z"/>
	<path fill="#FFFF00" stroke="#8DC63F" d="M618.07,634.994c0,0.422-0.028,0.936-0.085,1.542c-0.057,0.607-0.171,1.263-0.342,1.967
		s-0.412,1.435-0.722,2.189c-0.311,0.756-0.725,1.494-1.244,2.214c-0.52,0.72-1.149,1.403-1.89,2.051
		c-0.741,0.648-1.627,1.216-2.659,1.704c-1.032,0.489-2.222,0.877-3.571,1.165s-2.884,0.432-4.606,0.432h-6.496l4.977-20.158h7.123
		c3.141,0,5.511,0.573,7.113,1.72S618.07,632.691,618.07,634.994z M613.056,635.318c0-0.648-0.095-1.224-0.285-1.728
		s-0.494-0.926-0.912-1.265c-0.418-0.34-0.962-0.6-1.634-0.779c-0.671-0.18-1.488-0.27-2.45-0.27h-2.488l-3.4,13.804h1.957
		c1.33,0,2.481-0.173,3.457-0.517c0.975-0.345,1.801-0.795,2.479-1.35c0.677-0.556,1.231-1.188,1.662-1.897
		c0.43-0.709,0.763-1.424,0.997-2.144s0.396-1.419,0.484-2.098S613.056,635.812,613.056,635.318z"/>
	<path fill="#FFFF00" stroke="#8DC63F" d="M623.236,631.216l0.779-3.116h15.728l-0.779,3.116h-5.489l-3.438,13.927h5.451
		l-0.741,3.115h-15.708l0.741-3.115h5.509l3.457-13.927H623.236z"/>
	<path fill="#FFFF00" stroke="#8DC63F" d="M654.861,631.262l-4.158,16.996h-4.787l4.16-16.996h-6.801l0.816-3.162h18.387
		l-0.816,3.162H654.861z"/>
	<path fill="#FFFF00" stroke="#8DC63F" d="M666.012,631.216l0.778-3.116h15.728l-0.779,3.116h-5.489l-3.438,13.927h5.451
		l-0.74,3.115h-15.709l0.741-3.115h5.508l3.457-13.927H666.012z"/>
	<path fill="#FFFF00" stroke="#8DC63F" d="M691.141,648.612c-2.596,0-4.587-0.58-5.974-1.742s-2.08-2.849-2.08-5.06
		c0-1.027,0.107-2.087,0.323-3.177c0.215-1.09,0.544-2.156,0.988-3.2c0.442-1.044,1.006-2.03,1.69-2.961
		c0.684-0.931,1.5-1.743,2.45-2.438c0.949-0.693,2.035-1.246,3.257-1.657c1.223-0.411,2.587-0.617,4.094-0.617
		c2.596,0,4.587,0.578,5.974,1.735c1.387,1.156,2.08,2.84,2.08,5.051c0,1.028-0.107,2.09-0.323,3.185
		c-0.215,1.095-0.545,2.165-0.987,3.208c-0.443,1.044-1.007,2.028-1.69,2.954c-0.685,0.925-1.501,1.737-2.45,2.437
		c-0.95,0.699-2.036,1.255-3.258,1.666C694.012,648.407,692.647,648.612,691.141,648.612z M691.806,645.204
		c0.798,0,1.529-0.144,2.194-0.432c0.664-0.288,1.266-0.679,1.804-1.173c0.538-0.493,1.01-1.071,1.415-1.734
		s0.744-1.378,1.017-2.145c0.272-0.766,0.475-1.562,0.607-2.39c0.134-0.828,0.2-1.648,0.2-2.46c0-1.275-0.302-2.211-0.902-2.808
		c-0.602-0.596-1.574-0.895-2.916-0.895c-0.798,0-1.529,0.142-2.193,0.425c-0.665,0.282-1.267,0.671-1.805,1.164
		s-1.01,1.074-1.415,1.743c-0.405,0.668-0.744,1.383-1.017,2.144s-0.475,1.558-0.607,2.391s-0.199,1.655-0.199,2.468
		c0,1.274,0.297,2.21,0.893,2.807C689.476,644.906,690.45,645.204,691.806,645.204z"/>
	<path fill="#FFFF00" stroke="#8DC63F" d="M715.91,648.258l-3.686-12.03l-0.74-2.591l-2.07,8.359l-1.52,6.262h-4.236l4.977-20.158
		h5.489l3.78,12.107l0.607,2.359l2.185-8.898l1.405-5.568h4.274l-4.977,20.158H715.91z"/>
</g>
<g id="Layer_2">
</g>
<g id="Ebene_1">
	<path fill="#C90012" d="M431.529,343.098L431.529,343.098L431.529,343.098z"/>
	<path fill="#C90012" d="M431.529,260.216L431.529,260.216L431.529,260.216z"/>
	<path fill="#C90012" d="M431.529,177.306L431.529,177.306L431.529,177.306z"/>
	<path fill="#C90012" d="M431.529,218.753L431.529,218.753L431.529,218.753z"/>
	<path fill="#C90012" d="M431.529,384.544L431.529,384.544L431.529,384.544z"/>
	<path fill="#C90012" d="M431.529,301.642L431.529,301.642L431.529,301.642z"/>
	<path fill="#C90012" d="M431.529,135.842L431.529,135.842L431.529,135.842z"/>
	
		<linearGradient id="SVGID_1_" gradientUnits="userSpaceOnUse" x1="118.3149" y1="206.6792" x2="323.8034" y2="521.662" gradientTransform="matrix(1 0 0 -1 0 650)">
		<stop  offset="0" style="stop-color:#004E73"/>
		<stop  offset="1" style="stop-color:#00A1B0"/>
	</linearGradient>
	<path fill="url(#SVGID_1_)" d="M431.529,146.951c0-6.11-4.999-11.108-11.105-11.108H69.563c-6.112,0-14.644,3.534-18.963,7.855
		l-25.745,25.745C20.533,173.764,17,182.296,17,188.406v226.468c0,6.111,4.999,11.109,11.106,11.109h350.86
		c6.107,0,14.646-3.535,18.963-7.854l25.741-25.736c4.32-4.313,7.854-12.853,7.854-18.965L431.529,146.951z"/>
	<path opacity="0.2" enable-background="new    " d="M382.22,293.789l-25.729-25.729c-4.319-4.318-12.854-7.854-18.963-7.854H318.28
		c-6.112,0.001-11.11,0.001-11.11,0.001s3.532-3.534,7.854-7.855l67.193-67.193c4.32-4.321,2.854-7.855-3.253-7.855H276.832
		c-6.111,0-14.643,3.534-18.963,7.855L25.142,417.86c-1.825,1.818-3.517,3.514-4.871,4.863c2.012,2.014,4.786,3.262,7.836,3.262
		c0.005,0,0.01,0,0.016,0h99.953h167.988c6.111,0,11.122-0.016,11.133-0.023c0.015-0.016,3.559-3.562,7.88-7.88l67.144-67.132
		c4.32-4.316,7.854-12.854,7.854-18.964v-19.234C390.073,306.64,386.54,298.104,382.22,293.789z"/>
	
		<linearGradient id="SVGID_2_" gradientUnits="userSpaceOnUse" x1="144.8115" y1="208.624" x2="399.8012" y2="460.6136" gradientTransform="matrix(1 0 0 -1 0 650)">
		<stop  offset="0.3077" style="stop-color:#D3D3D3"/>
		<stop  offset="0.6752" style="stop-color:#FFFFFF"/>
	</linearGradient>
	<path fill="url(#SVGID_2_)" d="M276.824,301.649c-6.108,0-14.643-3.536-18.96-7.857l-25.71-25.718
		c-4.321-4.321-7.857-12.855-7.865-18.966l-0.012-19.246c-0.008-6.11,3.525-14.643,7.846-18.964l25.741-25.737
		c4.321-4.321,12.852-7.855,18.963-7.855h102.14c6.107,0,7.573,3.534,3.253,7.855l-25.738,25.737
		c-4.32,4.321-12.854,7.855-18.966,7.855h-60.688c-6.112,0-11.11,4.998-11.11,11.108v19.246c0,6.11,4.998,11.108,11.106,11.106
		l60.702-0.007c6.104-0.002,14.644,3.533,18.963,7.853l25.729,25.729c4.32,4.313,7.854,12.851,7.854,18.963v19.235
		c0,6.107-3.532,14.646-7.854,18.963l-25.737,25.74c-4.321,4.313-12.854,7.854-18.967,7.854h-60.688
		c-6.112,0-14.643-3.536-18.963-7.854l-25.741-25.74c-4.32-4.316-2.858-7.854,3.253-7.854h102.14c6.112,0,11.11-4.998,11.11-11.106
		V312.75c0-6.112,0-11.11,0.003-11.11c0.004,0-4.994,0-11.103,0L276.824,301.649z"/>
	<g opacity="0.2">
		<path d="M17.008,271.877c0-6.109,0-11.238,0-11.393c0-0.155,3.532-3.818,7.854-8.138l67.185-67.186
			c4.321-4.321,12.855-7.855,18.963-7.855h102.15c6.108,0,7.574,3.534,3.253,7.855l-67.197,67.182
			c-4.32,4.321-7.853,7.855-7.853,7.855s4.998,0.002,11.11,0.006l19.228,0.007c6.108,0.004,10.75,4.993,10.318,11.086l-1.114,15.593
			c-0.433,6.092-1.707,11.997-2.833,13.122c-1.125,1.125-5.576,5.58-9.896,9.896l-25.201,25.2c-4.32,4.314-7.885,7.886-7.922,7.918
			c-0.034,0.033,4.933,0.062,11.041,0.062h17.979c6.108-0.004,14.784,3.379,19.281,7.521l26.836,24.691
			c4.497,4.14,8.181,7.623,8.058,7.75c-0.126,0.126-3.766,3.765-8.087,8.083l-34.827,34.853l-147.212,0.002
			c-6.107,0-11.105-4.998-11.105-11.11L17.008,271.877z"/>
	</g>
	
		<linearGradient id="SVGID_3_" gradientUnits="userSpaceOnUse" x1="71.269" y1="283.0425" x2="326.2592" y2="535.0327" gradientTransform="matrix(1 0 0 -1 0 650)">
		<stop  offset="0.3077" style="stop-color:#D3D3D3"/>
		<stop  offset="0.6752" style="stop-color:#FFFFFF"/>
	</linearGradient>
	<path fill="url(#SVGID_3_)" d="M111.01,343.098c-6.107,0-11.104-4.998-11.104-11.106v-19.235c0-6.112,4.998-11.11,11.104-11.11
		h60.69c6.108,0,11.106-4.997,11.106-11.107V271.33c0-6.112-4.998-11.11-11.106-11.11h-60.69c-6.107,0-11.104-4.998-11.104-11.108
		v-19.246c0-6.11,4.998-11.108,11.104-11.108h60.69c6.108,0,14.643-3.534,18.964-7.854l25.749-25.741
		c4.321-4.319,2.855-7.853-3.253-7.853H111.01c-6.107,0-14.643,3.534-18.963,7.855L66.31,210.9
		c-4.32,4.321-7.857,12.854-7.857,18.964v102.125c0,6.109,3.537,14.646,7.857,18.964l25.737,25.74
		c4.321,4.313,12.855,7.854,18.963,7.854h102.143c6.112,0,7.574-3.536,3.253-7.854l-25.741-25.744
		c-4.32-4.321-12.854-7.857-18.964-7.857L111.01,343.098z"/>
	<g>
		<path fill="#FFFFFF" d="M558.605,227.562c-1.623,3.8-3.854,7.115-6.686,9.943c-2.832,2.836-6.146,5.06-9.947,6.682
			c-3.796,1.623-7.838,2.434-12.113,2.434h-8.496c-4.283,0-8.324-0.812-12.121-2.434c-3.8-1.623-7.115-3.846-9.942-6.682
			c-2.836-2.828-5.062-6.143-6.683-9.943c-1.626-3.796-2.438-7.838-2.438-12.121v-47.858c0-4.282,0.812-8.324,2.438-12.12
			c1.619-3.801,3.847-7.115,6.683-9.947c2.827-2.833,6.146-5.056,9.942-6.682c3.796-1.619,7.838-2.434,12.121-2.434h8.496
			c4.275,0,8.316,0.815,12.113,2.434c3.803,1.626,7.115,3.85,9.947,6.682s5.062,6.146,6.686,9.947
			c1.62,3.796,2.434,7.838,2.434,12.12v24.964h-58.114v23.618c0,2.556,0.481,4.956,1.45,7.202c0.965,2.243,2.277,4.195,3.936,5.852
			c1.66,1.657,3.608,2.97,5.854,3.938c2.243,0.964,4.643,1.447,7.199,1.447h8.495c2.554,0,4.95-0.482,7.196-1.447
			c2.243-0.968,4.195-2.281,5.854-3.938c1.657-1.657,2.971-3.609,3.938-5.852c0.964-2.246,1.451-4.646,1.451-7.202v-7.042
			l12.739,2.07v4.248C561.038,219.724,560.229,223.765,558.605,227.562z M548.299,166.855c0-2.553-0.486-4.952-1.451-7.199
			c-0.968-2.243-2.277-4.194-3.938-5.854c-1.656-1.658-3.608-2.97-5.854-3.938c-2.247-0.964-4.646-1.45-7.196-1.45h-8.496
			c-2.56,0-4.956,0.486-7.199,1.45c-2.246,0.969-4.194,2.281-5.854,3.938c-1.656,1.657-2.973,3.609-3.937,5.854
			c-0.969,2.247-1.451,4.646-1.451,7.199V182.6h45.375L548.299,166.855L548.299,166.855z"/>
		<path fill="#FFFFFF" d="M698.506,244.55v-77.695c0-2.553-0.479-4.952-1.45-7.199c-0.969-2.243-2.273-4.194-3.938-5.854
			c-1.652-1.657-3.608-2.97-5.854-3.938c-2.246-0.964-4.646-1.45-7.195-1.45h-6.317c-2.558,0-4.956,0.486-7.202,1.45
			c-2.243,0.969-4.21,2.281-5.9,3.938c-1.693,1.657-3.021,3.609-3.989,5.854c-0.968,2.247-1.445,4.646-1.445,7.199v77.695h-12.646
			v-77.695c0-2.553-0.479-4.952-1.447-7.199c-0.971-2.243-2.296-4.194-3.987-5.854c-1.688-1.657-3.658-2.97-5.905-3.938
			c-2.239-0.964-4.643-1.45-7.196-1.45h-6.317c-2.558,0-4.956,0.486-7.198,1.45c-2.247,0.969-4.194,2.281-5.854,3.938
			c-1.657,1.657-2.973,3.609-3.938,5.854c-0.968,2.247-1.45,4.646-1.45,7.199v77.695h-12.737V138.474h4.243l6.94,10.773
			c2.899-3.938,6.54-7.061,10.932-9.376c4.384-2.312,9.166-3.471,14.346-3.471h1.036c6.01,0,11.429,1.485,16.267,4.455
			c4.833,2.97,8.562,6.908,11.188,11.811c1.312-2.419,2.937-4.627,4.866-6.629c1.937-2.005,4.075-3.712,6.424-5.128
			c2.352-1.416,4.904-2.522,7.669-3.318c2.762-0.792,5.627-1.19,8.598-1.19h1.037c4.276,0,8.317,0.815,12.119,2.434
			c3.798,1.626,7.112,3.85,9.944,6.682c2.828,2.832,5.059,6.146,6.687,9.947c1.617,3.796,2.435,7.838,2.435,12.12v76.968h-12.747
			v-0.002H698.506z"/>
		<path fill="#FFFFFF" d="M803.343,244.55l-7.046-10.773c-2.9,3.938-6.525,7.061-10.878,9.376
			c-4.348,2.312-9.115,3.467-14.294,3.467h-3.211c-4.286,0-8.323-0.812-12.12-2.434c-3.801-1.623-7.114-3.846-9.946-6.682
			c-2.832-2.828-5.061-6.143-6.684-9.943c-1.622-3.796-2.434-7.838-2.434-12.121v-76.966h12.74v77.691
			c0,2.556,0.481,4.956,1.446,7.202c0.969,2.243,2.28,4.195,3.938,5.852c1.655,1.657,3.607,2.97,5.854,3.938
			c2.242,0.964,4.646,1.447,7.203,1.447h8.496c2.549,0,4.952-0.482,7.19-1.447c2.243-0.968,4.198-2.281,5.854-3.938
			c1.657-1.657,2.971-3.609,3.936-5.852c0.972-2.246,1.454-4.646,1.454-7.202v-77.691h12.736V244.55H803.343z"/>
		<path fill="#FFFFFF" d="M837.319,244.55V96h12.736v148.55H837.319z"/>
		<path fill="#FFFFFF" d="M946.404,244.55l-7.047-10.567c-2.899,3.8-6.524,6.854-10.884,9.17c-4.348,2.312-9.112,3.467-14.288,3.467
			h-3.217c-4.279,0-8.316-0.812-12.113-2.434c-3.808-1.623-7.118-3.846-9.946-6.682c-2.836-2.828-5.063-6.143-6.686-9.943
			c-1.627-3.796-2.436-7.838-2.436-12.121v-1.037c0-4.279,0.809-8.32,2.436-12.121c1.618-3.796,3.85-7.111,6.686-9.943
			c2.828-2.832,6.144-5.06,9.946-6.682c3.797-1.623,7.834-2.434,12.113-2.434h26.938v-16.368c0-2.553-0.481-4.952-1.45-7.199
			c-0.969-2.243-2.276-4.194-3.938-5.853c-1.649-1.657-3.605-2.97-5.853-3.938c-2.246-0.964-4.646-1.45-7.198-1.45h-7.459
			c-2.558,0-4.956,0.486-7.197,1.45c-2.245,0.969-4.192,2.281-5.854,3.938c-1.652,1.657-2.97,3.609-3.938,5.853
			c-0.969,2.247-1.447,4.646-1.447,7.199v3.835l-12.74-2.075v-1.033c0-4.282,0.812-8.324,2.436-12.12
			c1.622-3.801,3.854-7.115,6.686-9.947c2.828-2.833,6.146-5.056,9.939-6.682c3.798-1.619,7.842-2.434,12.12-2.434h7.459
			c4.278,0,8.319,0.815,12.117,2.434c3.8,1.626,7.113,3.85,9.949,6.682c2.828,2.832,5.057,6.146,6.68,9.947
			c1.622,3.796,2.437,7.838,2.437,12.12v76.968H946.404L946.404,244.55z M937.907,193.167H910.97c-2.558,0-4.956,0.486-7.198,1.451
			c-2.243,0.968-4.191,2.296-5.853,3.988c-1.661,1.695-2.971,3.663-3.938,5.905c-0.971,2.247-1.449,4.646-1.449,7.203v4.451
			c0,2.556,0.479,4.956,1.449,7.202c0.97,2.243,2.274,4.195,3.938,5.852c1.656,1.657,3.604,2.97,5.853,3.938
			c2.242,0.964,4.646,1.447,7.198,1.447h8.496c2.553,0,4.952-0.482,7.198-1.447c2.242-0.968,4.198-2.281,5.853-3.938
			c1.661-1.657,2.974-3.609,3.938-5.852c0.969-2.246,1.45-4.646,1.45-7.202L937.907,193.167L937.907,193.167z"/>
		<path fill="#FFFFFF" d="M1014.771,244.55c-3.864,0-7.512-0.724-10.934-2.174c-3.418-1.451-6.389-3.456-8.909-6.009
			c-2.52-2.557-4.521-5.526-6.009-8.91c-1.482-3.383-2.225-7.007-2.225-10.876V150.59h-19.063v-12.116h19.063v-25.485l12.736-2.07
			v27.555h26.938v12.116h-26.938v66.611c0,2.143,0.398,4.129,1.194,5.955c0.788,1.833,1.879,3.437,3.261,4.818
			c1.386,1.381,3.004,2.472,4.868,3.264c1.866,0.792,3.864,1.189,6.009,1.189h11.604v12.121L1014.771,244.55L1014.771,244.55z"/>
		<path fill="#FFFFFF" d="M1052.996,112.989V96h14.812v16.989H1052.996z M1054.033,244.55V138.474h12.74V244.55H1054.033z"/>
		<path fill="#FFFFFF" d="M1164.93,227.562c-1.623,3.8-3.852,7.115-6.679,9.943c-2.837,2.836-6.149,5.06-9.95,6.682
			c-3.797,1.623-7.838,2.434-12.113,2.434h-8.496c-4.282,0-8.319-0.812-12.116-2.434c-3.805-1.623-7.119-3.846-9.946-6.682
			c-2.837-2.828-5.062-6.143-6.683-9.943c-1.627-3.796-2.438-7.838-2.438-12.121v-47.858c0-4.282,0.812-8.324,2.438-12.12
			c1.619-3.801,3.846-7.115,6.683-9.947c2.827-2.833,6.146-5.056,9.946-6.682c3.797-1.619,7.834-2.434,12.116-2.434h8.496
			c4.275,0,8.316,0.815,12.113,2.434c3.804,1.626,7.114,3.85,9.95,6.682c2.827,2.832,5.056,6.146,6.679,9.947
			c1.622,3.796,2.438,7.838,2.438,12.12v47.858C1167.363,219.724,1166.552,223.765,1164.93,227.562z M1154.622,166.855
			c0-2.553-0.481-4.952-1.449-7.199c-0.97-2.243-2.276-4.194-3.938-5.854c-1.653-1.657-3.608-2.97-5.854-3.938
			c-2.246-0.964-4.646-1.45-7.199-1.45h-8.494c-2.559,0-4.954,0.486-7.196,1.45c-2.247,0.969-4.194,2.281-5.854,3.938
			c-1.661,1.657-2.971,3.609-3.938,5.854c-0.973,2.247-1.45,4.646-1.45,7.199v49.309c0,2.556,0.479,4.956,1.45,7.202
			c0.968,2.243,2.273,4.195,3.938,5.852c1.656,1.657,3.604,2.97,5.854,3.938c2.241,0.964,4.643,1.447,7.196,1.447h8.494
			c2.557,0,4.953-0.482,7.199-1.447c2.243-0.968,4.197-2.281,5.854-3.938c1.661-1.657,2.97-3.609,3.938-5.852
			c0.968-2.246,1.449-4.646,1.449-7.202V166.855z"/>
		<path fill="#FFFFFF" d="M1250.964,244.55v-77.695c0-2.553-0.485-4.952-1.451-7.199c-0.969-2.243-2.28-4.194-3.935-5.854
			c-1.661-1.657-3.612-2.97-5.855-3.938c-2.242-0.964-4.646-1.45-7.197-1.45h-8.489c-2.561,0-4.96,0.486-7.203,1.45
			c-2.241,0.969-4.193,2.281-5.854,3.938c-1.649,1.657-2.97,3.609-3.935,5.854c-0.969,2.247-1.45,4.646-1.45,7.199v77.695h-12.74
			V138.474h4.248l6.938,10.773c2.897-3.938,6.541-7.061,10.931-9.376c4.382-2.312,9.166-3.471,14.352-3.471h3.211
			c4.281,0,8.316,0.815,12.12,2.434c3.797,1.626,7.107,3.85,9.939,6.682s5.062,6.146,6.686,9.947
			c1.623,3.796,2.436,7.838,2.436,12.12v76.968L1250.964,244.55L1250.964,244.55z"/>
		<path fill="#FFFFFF" d="M563.109,397.258c0,4.278-0.865,8.198-2.588,11.757c-1.729,3.562-4.075,6.613-7.048,9.17
			c-2.971,2.562-6.403,4.539-10.308,5.955s-7.995,2.12-12.276,2.12H522.4c-4.283,0-8.377-0.812-12.277-2.434
			c-3.903-1.623-7.32-3.843-10.257-6.687c-2.938-2.82-5.28-6.14-7.042-9.939c-1.76-3.797-2.644-7.838-2.644-12.116v-4.248
			l12.739-2.074v7.042c0,2.561,0.531,4.961,1.604,7.202c1.067,2.243,2.503,4.194,4.301,5.854c1.795,1.65,3.866,2.971,6.217,3.936
			c2.346,0.965,4.799,1.447,7.354,1.447h8.488c2.561,0,5.008-0.376,7.355-1.135c2.347-0.769,4.438-1.854,6.27-3.271
			c1.829-1.416,3.28-3.123,4.354-5.129c1.065-1.997,1.604-4.277,1.604-6.835c0-3.797-0.823-6.903-2.484-9.323
			c-1.657-2.419-3.854-4.438-6.575-6.062c-2.729-1.623-5.836-2.964-9.322-4.034c-3.49-1.071-7.062-2.146-10.725-3.216
			s-7.236-2.295-10.728-3.674c-3.482-1.39-6.594-3.199-9.319-5.441c-2.729-2.242-4.918-5.061-6.575-8.441
			c-1.661-3.385-2.487-7.594-2.487-12.639c0-4.278,0.826-8.196,2.487-11.757c1.657-3.562,3.896-6.613,6.729-9.17
			c2.832-2.559,6.127-4.539,9.896-5.955c3.763-1.416,7.785-2.128,12.064-2.128h7.459c4.282,0,8.323,0.817,12.12,2.435
			c3.796,1.631,7.115,3.854,9.947,6.684c2.827,2.834,5.056,6.146,6.683,9.951c1.618,3.797,2.437,7.838,2.437,12.115v0.413
			l-12.744,2.074v-3.215c0-2.551-0.48-4.953-1.45-7.195c-0.97-2.241-2.274-4.192-3.935-5.854c-1.657-1.652-3.608-2.973-5.854-3.938
			c-2.243-0.964-4.644-1.453-7.198-1.453h-7.459c-2.554,0-4.955,0.385-7.196,1.143c-2.243,0.767-4.195,1.854-5.854,3.262
			c-1.657,1.424-2.971,3.13-3.938,5.128c-0.972,2.006-1.451,4.287-1.451,6.844c0,3.658,0.831,6.646,2.488,8.955
			c1.654,2.319,3.85,4.271,6.577,5.854c2.727,1.593,5.833,2.916,9.321,3.983c3.486,1.072,7.042,2.177,10.67,3.314
			c3.625,1.141,7.184,2.436,10.67,3.889c3.486,1.446,6.598,3.313,9.323,5.588c2.729,2.28,4.922,5.129,6.579,8.555
			C562.282,387.989,563.109,392.214,563.109,397.258z"/>
		<path fill="#FFFFFF" d="M626.196,424.194c-3.865,0-7.509-0.729-10.93-2.178c-3.421-1.452-6.392-3.461-8.906-6.01
			c-2.521-2.557-4.522-5.521-6.012-8.908c-1.481-3.385-2.229-7.013-2.229-10.877v-65.996h-19.062v-12.115h19.062v-25.479
			l12.74-2.072v27.556H637.8v12.117h-26.937v66.611c0,2.146,0.396,4.126,1.19,5.955c0.792,1.829,1.879,3.438,3.265,4.813
			c1.381,1.386,3.004,2.473,4.864,3.27c1.868,0.788,3.869,1.188,6.011,1.188h11.604v12.123L626.196,424.194L626.196,424.194z"/>
		<path fill="#FFFFFF" d="M727.821,424.194l-7.042-10.57c-2.899,3.804-6.527,6.856-10.876,9.169
			c-4.354,2.312-9.116,3.468-14.3,3.468h-3.207c-4.285,0-8.327-0.812-12.123-2.434c-3.805-1.623-7.114-3.844-9.943-6.688
			c-2.836-2.82-5.062-6.139-6.682-9.938c-1.627-3.796-2.438-7.839-2.438-12.116v-1.041c0-4.277,0.812-8.32,2.438-12.116
			c1.614-3.797,3.846-7.107,6.682-9.938c2.829-2.832,6.144-5.062,9.943-6.687c3.796-1.621,7.838-2.435,12.123-2.435h26.933v-16.372
			c0-2.549-0.485-4.953-1.449-7.195c-0.97-2.24-2.28-4.191-3.936-5.854c-1.661-1.653-3.612-2.973-5.854-3.938
			c-2.242-0.964-4.646-1.452-7.199-1.452h-7.459c-2.557,0-4.952,0.488-7.198,1.452c-2.243,0.966-4.194,2.281-5.854,3.938
			c-1.656,1.66-2.971,3.611-3.936,5.854c-0.97,2.242-1.45,4.646-1.45,7.195v3.834l-12.744-2.074v-1.031
			c0-4.276,0.813-8.317,2.437-12.115c1.623-3.808,3.852-7.117,6.685-9.95c2.832-2.832,6.146-5.054,9.946-6.685
			c3.796-1.613,7.838-2.436,12.117-2.436h7.459c4.282,0,8.319,0.818,12.12,2.436c3.798,1.631,7.109,3.853,9.941,6.685
			c2.832,2.833,5.061,6.146,6.684,9.95c1.623,3.797,2.438,7.838,2.438,12.115v76.974L727.821,424.194L727.821,424.194z
			 M719.328,372.811h-26.932c-2.562,0-4.964,0.481-7.202,1.446c-2.247,0.976-4.193,2.296-5.854,3.988
			c-1.657,1.699-2.971,3.666-3.936,5.908c-0.972,2.238-1.45,4.646-1.45,7.202v4.443c0,2.562,0.479,4.96,1.45,7.202
			c0.965,2.243,2.273,4.194,3.936,5.855c1.661,1.648,3.607,2.97,5.854,3.935c2.238,0.965,4.643,1.447,7.202,1.447h8.488
			c2.557,0,4.957-0.482,7.199-1.447c2.241-0.965,4.193-2.28,5.854-3.935c1.65-1.661,2.967-3.612,3.937-5.855
			c0.964-2.242,1.449-4.646,1.449-7.202L719.328,372.811L719.328,372.811z"/>
		<path fill="#FFFFFF" d="M796.193,424.194c-3.869,0-7.517-0.729-10.931-2.178c-3.421-1.452-6.392-3.461-8.905-6.01
			c-2.526-2.557-4.523-5.521-6.013-8.908c-1.481-3.385-2.229-7.013-2.229-10.877v-65.996h-19.062v-12.115h19.062v-25.479
			l12.741-2.072v27.556h26.932v12.117h-26.93v66.611c0,2.146,0.395,4.126,1.188,5.955c0.796,1.829,1.883,3.438,3.269,4.813
			c1.382,1.386,3.005,2.473,4.864,3.27c1.864,0.788,3.869,1.188,6.013,1.188h11.6v12.123L796.193,424.194L796.193,424.194z"/>
		<path fill="#FFFFFF" d="M834.419,292.632v-16.987h14.813v16.987H834.419z M835.455,424.194V318.113h12.74v106.082H835.455
			L835.455,424.194z"/>
		<path fill="#FFFFFF" d="M946.352,407.201c-1.623,3.805-3.851,7.118-6.683,9.938c-2.832,2.844-6.146,5.062-9.942,6.688
			c-3.802,1.622-7.839,2.434-12.118,2.434h-8.492c-4.286,0-8.327-0.812-12.124-2.434c-3.796-1.623-7.109-3.844-9.941-6.688
			c-2.832-2.82-5.061-6.139-6.684-9.938c-1.623-3.796-2.438-7.839-2.438-12.116v-47.86c0-4.276,0.813-8.317,2.438-12.115
			c1.623-3.808,3.852-7.117,6.684-9.95c2.831-2.832,6.146-5.054,9.941-6.685c3.797-1.613,7.838-2.436,12.124-2.436h8.492
			c4.279,0,8.316,0.818,12.118,2.436c3.8,1.631,7.11,3.853,9.942,6.685c2.831,2.833,5.06,6.146,6.683,9.95
			c1.622,3.797,2.437,7.838,2.437,12.115v47.86C948.783,399.363,947.974,403.405,946.352,407.201z M936.044,346.496
			c0-2.549-0.485-4.953-1.45-7.195c-0.968-2.24-2.281-4.191-3.936-5.854c-1.661-1.653-3.611-2.973-5.854-3.938
			c-2.241-0.964-4.646-1.452-7.195-1.452h-8.492c-2.561,0-4.96,0.488-7.202,1.452c-2.242,0.966-4.193,2.281-5.854,3.938
			c-1.649,1.66-2.97,3.611-3.936,5.854c-0.968,2.242-1.449,4.646-1.449,7.195v49.31c0,2.561,0.481,4.959,1.449,7.201
			c0.966,2.243,2.281,4.194,3.936,5.855c1.661,1.648,3.612,2.97,5.854,3.935c2.242,0.966,4.646,1.447,7.202,1.447h8.492
			c2.554,0,4.955-0.481,7.195-1.447c2.243-0.965,4.193-2.28,5.854-3.935c1.649-1.661,2.968-3.612,3.936-5.855
			c0.965-2.242,1.45-4.646,1.45-7.201V346.496z"/>
		<path fill="#FFFFFF" d="M1032.385,424.194v-77.698c0-2.549-0.479-4.953-1.449-7.195c-0.97-2.24-2.274-4.191-3.938-5.854
			c-1.652-1.653-3.608-2.973-5.854-3.938c-2.245-0.964-4.646-1.452-7.197-1.452h-8.496c-2.561,0-4.956,0.488-7.198,1.452
			c-2.246,0.966-4.192,2.281-5.853,3.938c-1.661,1.66-2.973,3.611-3.938,5.854c-0.97,2.242-1.451,4.646-1.451,7.195v77.698h-12.736
			V318.113h4.24l6.942,10.773c2.9-3.938,6.545-7.062,10.931-9.375c4.39-2.312,9.17-3.477,14.348-3.477h3.215
			c4.278,0,8.317,0.816,12.117,2.436c3.8,1.629,7.111,3.853,9.947,6.684c2.827,2.834,5.059,6.146,6.682,9.951
			c1.622,3.795,2.435,7.838,2.435,12.113v76.977H1032.385L1032.385,424.194z"/>
	</g>
</g>
<g id="Layer_3">
</g>
<g>
	<path stroke="#8DC63F" stroke-width="3" d="M243.065,488.765H222.27v-1.372h20.795V488.765z"/>
	<path stroke="#8DC63F" stroke-width="3" d="M263.861,488.765h-20.795v-1.372h20.795V488.765z"/>
	<path stroke="#8DC63F" stroke-width="3" d="M347.043,488.765h-20.795v-1.372h20.795V488.765z"/>
	<path stroke="#8DC63F" stroke-width="3" d="M367.838,488.765h-20.795v-1.372h20.795V488.765z"/>
	<path fill="#00FFFF" stroke="#00FFFF" stroke-width="3" d="M492.611,488.765h-20.795v-1.372h20.795V488.765z"/>
	<path fill="#00FFFF" stroke="#00FFFF" stroke-width="3" d="M513.407,488.765h-20.795v-1.372h20.795V488.765z"/>
	<path fill="#00FFFF" stroke="#00FFFF" stroke-width="3" d="M534.202,488.765h-20.795v-1.372h20.795V488.765z"/>
	<path fill="#00FFFF" stroke="#00FFFF" stroke-width="3" d="M554.998,488.765h-20.795v-1.372h20.795V488.765z"/>
	<path fill="#00FFFF" stroke="#00FFFF" stroke-width="3" d="M575.793,488.765h-20.795v-1.372h20.795V488.765z"/>
	<path fill="#00FFFF" stroke="#00FFFF" stroke-width="3" d="M596.588,488.765h-20.795v-1.372h20.795V488.765z"/>
	<path fill="#00FFFF" stroke="#00FFFF" stroke-width="3" d="M638.179,488.765h-20.795v-1.372h20.795V488.765z"/>
	<path fill="#00FFFF" stroke="#00FFFF" stroke-width="3" d="M658.976,488.765H638.18v-1.372h20.796V488.765z"/>
	<path fill="#00FFFF" stroke="#00FFFF" stroke-width="3" d="M679.771,488.765h-20.796v-1.372h20.796V488.765z"/>
	<path fill="#00FFFF" stroke="#00FFFF" stroke-width="3" d="M700.566,488.765h-20.796v-1.372h20.796V488.765z"/>
	<path fill="#00FFFF" stroke="#00FFFF" stroke-width="3" d="M721.362,488.765h-20.796v-1.372h20.796V488.765z"/>
	<path fill="#00FFFF" stroke="#00FFFF" stroke-width="3" d="M762.953,488.765h-20.796v-1.372h20.796V488.765z"/>
	<path fill="#00FFFF" stroke="#00FFFF" stroke-width="3" d="M783.748,488.765h-20.796v-1.372h20.796V488.765z"/>
	<path fill="#00FFFF" stroke="#00FFFF" stroke-width="3" d="M804.544,488.765h-20.796v-1.372h20.796V488.765z"/>
	<path fill="#00FFFF" stroke="#00FFFF" stroke-width="3" d="M825.339,488.765h-20.796v-1.372h20.796V488.765z"/>
	<path fill="#00FFFF" stroke="#00FFFF" stroke-width="3" d="M846.135,488.765h-20.796v-1.372h20.796V488.765z"/>
	<path fill="#00FFFF" stroke="#00FFFF" stroke-width="3" d="M866.93,488.765h-20.796v-1.372h20.796V488.765z"/>
	<path fill="#00FFFF" stroke="#00FFFF" stroke-width="3" d="M887.726,488.765H866.93v-1.372h20.796V488.765z"/>
	<path fill="#00FFFF" stroke="#00FFFF" stroke-width="3" d="M908.521,488.765h-20.796v-1.372h20.796V488.765z"/>
	<path fill="#00FFFF" stroke="#00FFFF" stroke-width="3" d="M929.316,488.765h-20.796v-1.372h20.796V488.765z"/>
	<path fill="#00FFFF" stroke="#00FFFF" stroke-width="3" d="M950.112,488.765h-20.796v-1.372h20.796V488.765z"/>
	<path fill="#00FFFF" stroke="#00FFFF" stroke-width="3" d="M970.907,488.765h-20.796v-1.372h20.796V488.765z"/>
	<path fill="#00FFFF" stroke="#00FFFF" stroke-width="3" d="M1012.498,488.765h-20.796v-1.372h20.796V488.765z"/>
	<path fill="#00FFFF" stroke="#00FFFF" stroke-width="3" d="M1033.294,488.765h-20.796v-1.372h20.796V488.765z"/>
	<path fill="#00FFFF" stroke="#00FFFF" stroke-width="3" d="M1054.089,488.765h-20.796v-1.372h20.796V488.765z"/>
	<path fill="#00FFFF" stroke="#00FFFF" stroke-width="3" d="M1074.885,488.765h-20.796v-1.372h20.796V488.765z"/>
	<path fill="#00FFFF" stroke="#00FFFF" stroke-width="3" d="M1095.681,488.765h-20.796v-1.372h20.796V488.765z"/>
	<path stroke="#8DC63F" stroke-width="3" d="M240.96,510.329h-3.065l-12.669-15.516h3.065L240.96,510.329z"/>
	<path stroke="#8DC63F" stroke-width="3" d="M282.551,510.329h-3.065l-12.669-15.516h3.065L282.551,510.329z"/>
	<path stroke="#8DC63F" stroke-width="3" d="M323.311,494.813l-12.669,15.516h-3.065l12.669-15.516H323.311z"/>
	<path stroke="#8DC63F" stroke-width="3" d="M364.902,494.813l-12.669,15.516h-3.065l12.669-15.516H364.902z"/>
	<path fill="#00FFFF" stroke="#00FFFF" stroke-width="3" d="M483.728,512.188h-3.029v-19.519h3.029V512.188z"/>
	<path fill="#00FFFF" stroke="#00FFFF" stroke-width="3" d="M534.202,512.188h-20.795v-1.372h20.795V512.188z"/>
	<path fill="#00FFFF" stroke="#00FFFF" stroke-width="3" d="M554.998,512.188h-20.795v-1.372h20.795V512.188z"/>
	<path fill="#00FFFF" stroke="#00FFFF" stroke-width="3" d="M575.793,512.188h-20.795v-1.372h20.795V512.188z"/>
	<path fill="#00FFFF" stroke="#00FFFF" stroke-width="3" d="M615.278,510.329h-3.065l-12.669-15.516h3.065L615.278,510.329z"/>
	<path fill="#00FFFF" stroke="#00FFFF" stroke-width="3" d="M679.771,512.188h-20.796v-1.372h20.796V512.188z"/>
	<path fill="#00FFFF" stroke="#00FFFF" stroke-width="3" d="M700.566,512.188h-20.796v-1.372h20.796V512.188z"/>
	<path fill="#00FFFF" stroke="#00FFFF" stroke-width="3" d="M721.362,512.188h-20.796v-1.372h20.796V512.188z"/>
	<path fill="#00FFFF" stroke="#00FFFF" stroke-width="3" d="M733.273,512.188h-3.028v-19.519h3.028V512.188z"/>
	<path fill="#00FFFF" stroke="#00FFFF" stroke-width="3" d="M762.953,512.188h-20.796v-1.372h20.796V512.188z"/>
	<path fill="#00FFFF" stroke="#00FFFF" stroke-width="3" d="M846.135,512.188h-20.796v-1.372h20.796V512.188z"/>
	<path fill="#00FFFF" stroke="#00FFFF" stroke-width="3" d="M858.046,512.188h-3.028v-19.519h3.028V512.188z"/>
	<path fill="#00FFFF" stroke="#00FFFF" stroke-width="3" d="M908.521,512.188h-20.796v-1.372h20.796V512.188z"/>
	<path fill="#00FFFF" stroke="#00FFFF" stroke-width="3" d="M929.316,512.188h-20.796v-1.372h20.796V512.188z"/>
	<path fill="#00FFFF" stroke="#00FFFF" stroke-width="3" d="M950.112,512.188h-20.796v-1.372h20.796V512.188z"/>
	<path fill="#00FFFF" stroke="#00FFFF" stroke-width="3" d="M989.598,510.329h-3.066l-12.669-15.516h3.065L989.598,510.329z"/>
	<path fill="#00FFFF" stroke="#00FFFF" stroke-width="3" d="M1054.089,512.188h-20.796v-1.372h20.796V512.188z"/>
	<path fill="#00FFFF" stroke="#00FFFF" stroke-width="3" d="M1107.592,512.188h-3.028v-19.519h3.028V512.188z"/>
	<path stroke="#8DC63F" stroke-width="3" d="M261.755,533.751h-3.065l-12.669-15.516h3.065L261.755,533.751z"/>
	<path stroke="#8DC63F" stroke-width="3" d="M305.378,519.246l-8.2,12.456h-4.432l-8.016-12.456h3.712l5.208,8.396l1.478,2.458
		l1.514-2.458l5.227-8.396H305.378z"/>
	<path stroke="#8DC63F" stroke-width="3" d="M344.106,518.235l-12.669,15.516h-3.065l12.669-15.516H344.106z"/>
	<path fill="#FF6400" stroke="#FF6400" stroke-width="3" d="M388.634,535.609h-20.795v-1.372h20.795V535.609z"/>
	<path fill="#FF6400" stroke="#FF6400" stroke-width="3" d="M409.429,535.609h-20.795v-1.372h20.795V535.609z"/>
	<path fill="#FF6400" stroke="#FF6400" stroke-width="3" d="M430.225,535.609h-20.795v-1.372h20.795V535.609z"/>
	<path fill="#FF6400" stroke="#FF6400" stroke-width="3" d="M451.02,535.609h-20.795v-1.372h20.795V535.609z"/>
	<path fill="#00FFFF" stroke="#00FFFF" stroke-width="3" d="M483.728,535.609h-3.029v-19.519h3.029V535.609z"/>
	<path fill="#00FFFF" stroke="#00FFFF" stroke-width="3" d="M525.319,535.609h-3.029v-19.519h3.029V535.609z"/>
	<path fill="#00FFFF" stroke="#00FFFF" stroke-width="3" d="M554.998,535.609h-20.795v-1.372h20.795V535.609z"/>
	<path fill="#00FFFF" stroke="#00FFFF" stroke-width="3" d="M572.856,518.235l-12.669,15.516h-3.065l12.669-15.516H572.856z"/>
	<path fill="#00FFFF" stroke="#00FFFF" stroke-width="3" d="M614.447,518.235l-12.669,15.516h-3.065l12.669-15.516H614.447z"/>
	<path fill="#00FFFF" stroke="#00FFFF" stroke-width="3" d="M650.092,535.609h-3.028v-19.519h3.028V535.609z"/>
	<path fill="#00FFFF" stroke="#00FFFF" stroke-width="3" d="M679.771,535.609h-20.796v-1.372h20.796V535.609z"/>
	<path fill="#00FFFF" stroke="#00FFFF" stroke-width="3" d="M700.566,535.609h-20.796v-1.372h20.796V535.609z"/>
	<path fill="#00FFFF" stroke="#00FFFF" stroke-width="3" d="M774.864,535.609h-3.028v-19.519h3.028V535.609z"/>
	<path fill="#00FFFF" stroke="#00FFFF" stroke-width="3" d="M816.455,535.609h-3.028v-19.519h3.028V535.609z"/>
	<path fill="#00FFFF" stroke="#00FFFF" stroke-width="3" d="M858.046,535.609h-3.028v-19.519h3.028V535.609z"/>
	<path fill="#00FFFF" stroke="#00FFFF" stroke-width="3" d="M899.638,535.609h-3.028v-19.519h3.028V535.609z"/>
	<path fill="#00FFFF" stroke="#00FFFF" stroke-width="3" d="M929.316,535.609h-20.796v-1.372h20.796V535.609z"/>
	<path fill="#00FFFF" stroke="#00FFFF" stroke-width="3" d="M947.176,518.235l-12.67,15.516h-3.065l12.669-15.516H947.176z"/>
	<path fill="#00FFFF" stroke="#00FFFF" stroke-width="3" d="M988.767,518.235l-12.67,15.516h-3.065l12.669-15.516H988.767z"/>
	<path fill="#00FFFF" stroke="#00FFFF" stroke-width="3" d="M1024.41,535.609h-3.028v-19.519h3.028V535.609z"/>
	<path fill="#00FFFF" stroke="#00FFFF" stroke-width="3" d="M1066.001,535.609h-3.028v-19.519h3.028V535.609z"/>
	<path fill="#00FFFF" stroke="#00FFFF" stroke-width="3" d="M1107.592,535.609h-3.028v-19.519h3.028V535.609z"/>
	<path stroke="#8DC63F" stroke-width="3" d="M260.924,541.658l-12.669,15.516h-3.065l12.669-15.516H260.924z"/>
	<path stroke="#8DC63F" stroke-width="3" d="M344.938,557.174h-3.065l-12.669-15.516h3.065L344.938,557.174z"/>
	<path fill="#FF6400" stroke="#FF6400" stroke-width="3" d="M358.955,559.032h-3.029v-19.519h3.029V559.032z"/>
	<path fill="#FF6400" stroke="#FF6400" stroke-width="3" d="M388.634,559.032h-20.795v-1.372h20.795V559.032z"/>
	<path fill="#FF6400" stroke="#FF6400" stroke-width="3" d="M409.429,559.032h-20.795v-1.372h20.795V559.032z"/>
	<path fill="#FF6400" stroke="#FF6400" stroke-width="3" d="M430.225,559.032h-20.795v-1.372h20.795V559.032z"/>
	<path fill="#FF6400" stroke="#FF6400" stroke-width="3" d="M451.02,559.032h-20.795v-1.372h20.795V559.032z"/>
	<path fill="#FF6400" stroke="#FF6400" stroke-width="3" d="M462.933,559.032h-3.029v-19.519h3.029V559.032z"/>
	<path fill="#00FFFF" stroke="#00FFFF" stroke-width="3" d="M483.728,559.032h-3.029v-19.519h3.029V559.032z"/>
	<path fill="#00FFFF" stroke="#00FFFF" stroke-width="3" d="M593.652,541.658l-12.669,15.516h-3.065l12.669-15.516H593.652z"/>
	<path fill="#00FFFF" stroke="#00FFFF" stroke-width="3" d="M608.5,559.032h-3.029v-19.519h3.029V559.032z"/>
	<path fill="#00FFFF" stroke="#00FFFF" stroke-width="3" d="M679.771,559.032h-20.796v-1.372h20.796V559.032z"/>
	<path fill="#00FFFF" stroke="#00FFFF" stroke-width="3" d="M700.566,559.032h-20.796v-1.372h20.796V559.032z"/>
	<path fill="#00FFFF" stroke="#00FFFF" stroke-width="3" d="M712.479,559.032h-3.028v-19.519h3.028V559.032z"/>
	<path fill="#00FFFF" stroke="#00FFFF" stroke-width="3" d="M774.864,559.032h-3.028v-19.519h3.028V559.032z"/>
	<path fill="#00FFFF" stroke="#00FFFF" stroke-width="3" d="M816.455,559.032h-3.028v-19.519h3.028V559.032z"/>
	<path fill="#00FFFF" stroke="#00FFFF" stroke-width="3" d="M858.046,559.032h-3.028v-19.519h3.028V559.032z"/>
	<path fill="#00FFFF" stroke="#00FFFF" stroke-width="3" d="M967.971,541.658l-12.67,15.516h-3.065l12.669-15.516H967.971z"/>
	<path fill="#00FFFF" stroke="#00FFFF" stroke-width="3" d="M982.819,559.032h-3.028v-19.519h3.028V559.032z"/>
	<path fill="#00FFFF" stroke="#00FFFF" stroke-width="3" d="M1024.41,559.032h-3.028v-19.519h3.028V559.032z"/>
	<path fill="#00FFFF" stroke="#00FFFF" stroke-width="3" d="M1066.001,559.032h-3.028v-19.519h3.028V559.032z"/>
	<path fill="#00FFFF" stroke="#00FFFF" stroke-width="3" d="M1107.592,559.032h-3.028v-19.519h3.028V559.032z"/>
	<path stroke="#8DC63F" stroke-width="3" d="M240.129,565.08l-12.669,15.516h-3.065l12.669-15.516H240.129z"/>
	<path stroke="#8DC63F" stroke-width="3" d="M281.72,565.08l-12.669,15.516h-3.065l12.669-15.516H281.72z"/>
	<path stroke="#8DC63F" stroke-width="3" d="M303.383,572.181h-3.213l-5.337-4.775l-5.023,4.775h-2.918l6.759-6.09h2.623
		L303.383,572.181z"/>
	<path stroke="#8DC63F" stroke-width="3" d="M324.142,580.596h-3.065l-12.669-15.516h3.065L324.142,580.596z"/>
	<path stroke="#8DC63F" stroke-width="3" d="M365.733,580.596h-3.065l-12.669-15.516h3.065L365.733,580.596z"/>
	<path fill="#00FFFF" stroke="#00FFFF" stroke-width="3" d="M483.728,582.454h-3.029v-19.519h3.029V582.454z"/>
	<path fill="#00FFFF" stroke="#00FFFF" stroke-width="3" d="M525.319,582.454h-3.029v-19.519h3.029V582.454z"/>
	<path fill="#00FFFF" stroke="#00FFFF" stroke-width="3" d="M552.892,580.596h-3.065l-12.669-15.516h3.065L552.892,580.596z"/>
	<path fill="#00FFFF" stroke="#00FFFF" stroke-width="3" d="M594.483,580.596h-3.065l-12.669-15.516h3.065L594.483,580.596z"/>
	<path fill="#00FFFF" stroke="#00FFFF" stroke-width="3" d="M608.5,582.454h-3.029v-19.519h3.029V582.454z"/>
	<path fill="#00FFFF" stroke="#00FFFF" stroke-width="3" d="M650.092,582.454h-3.028v-19.519h3.028V582.454z"/>
	<path fill="#00FFFF" stroke="#00FFFF" stroke-width="3" d="M679.771,582.454h-20.796v-1.372h20.796V582.454z"/>
	<path fill="#00FFFF" stroke="#00FFFF" stroke-width="3" d="M700.566,582.454h-20.796v-1.372h20.796V582.454z"/>
	<path fill="#00FFFF" stroke="#00FFFF" stroke-width="3" d="M721.362,582.454h-20.796v-1.372h20.796V582.454z"/>
	<path fill="#00FFFF" stroke="#00FFFF" stroke-width="3" d="M774.864,582.454h-3.028v-19.519h3.028V582.454z"/>
	<path fill="#00FFFF" stroke="#00FFFF" stroke-width="3" d="M816.455,582.454h-3.028v-19.519h3.028V582.454z"/>
	<path fill="#00FFFF" stroke="#00FFFF" stroke-width="3" d="M858.046,582.454h-3.028v-19.519h3.028V582.454z"/>
	<path fill="#00FFFF" stroke="#00FFFF" stroke-width="3" d="M899.638,582.454h-3.028v-19.519h3.028V582.454z"/>
	<path fill="#00FFFF" stroke="#00FFFF" stroke-width="3" d="M927.211,580.596h-3.066l-12.669-15.516h3.065L927.211,580.596z"/>
	<path fill="#00FFFF" stroke="#00FFFF" stroke-width="3" d="M968.802,580.596h-3.066l-12.669-15.516h3.065L968.802,580.596z"/>
	<path fill="#00FFFF" stroke="#00FFFF" stroke-width="3" d="M989.598,580.596h-3.066l-12.669-15.516h3.065L989.598,580.596z"/>
	<path fill="#00FFFF" stroke="#00FFFF" stroke-width="3" d="M1031.188,580.596h-3.066l-12.669-15.516h3.065L1031.188,580.596z"/>
	<path fill="#00FFFF" stroke="#00FFFF" stroke-width="3" d="M1054.089,582.454h-20.796v-1.372h20.796V582.454z"/>
	<path fill="#00FFFF" stroke="#00FFFF" stroke-width="3" d="M1071.948,565.08l-12.67,15.516h-3.065l12.669-15.516H1071.948z"/>
	<path fill="#00FFFF" stroke="#00FFFF" stroke-width="3" d="M1113.539,565.08l-12.67,15.516h-3.065l12.669-15.516H1113.539z"/>
	<path stroke="#8DC63F" stroke-width="3" d="M240.96,604.019h-3.065l-12.669-15.516h3.065L240.96,604.019z"/>
	<path stroke="#8DC63F" stroke-width="3" d="M260.924,588.503l-12.669,15.516h-3.065l12.669-15.516H260.924z"/>
	<path stroke="#8DC63F" stroke-width="3" d="M344.938,604.019h-3.065l-12.669-15.516h3.065L344.938,604.019z"/>
	<path stroke="#8DC63F" stroke-width="3" d="M364.902,588.503l-12.669,15.516h-3.065l12.669-15.516H364.902z"/>
	<path fill="#00FFFF" stroke="#00FFFF" stroke-width="3" d="M490.506,604.019h-3.065l-12.669-15.516h3.065L490.506,604.019z"/>
	<path fill="#00FFFF" stroke="#00FFFF" stroke-width="3" d="M513.407,605.877h-20.795v-1.372h20.795V605.877z"/>
	<path fill="#00FFFF" stroke="#00FFFF" stroke-width="3" d="M525.319,605.877h-3.029v-19.519h3.029V605.877z"/>
	<path fill="#00FFFF" stroke="#00FFFF" stroke-width="3" d="M573.688,604.019h-3.065l-12.669-15.516h3.065L573.688,604.019z"/>
	<path fill="#00FFFF" stroke="#00FFFF" stroke-width="3" d="M596.588,605.877h-20.795v-1.372h20.795V605.877z"/>
	<path fill="#00FFFF" stroke="#00FFFF" stroke-width="3" d="M615.278,604.019h-3.065l-12.669-15.516h3.065L615.278,604.019z"/>
	<path fill="#00FFFF" stroke="#00FFFF" stroke-width="3" d="M638.179,605.877h-20.795v-1.372h20.795V605.877z"/>
	<path fill="#00FFFF" stroke="#00FFFF" stroke-width="3" d="M658.976,605.877H638.18v-1.372h20.796V605.877z"/>
	<path fill="#00FFFF" stroke="#00FFFF" stroke-width="3" d="M679.771,605.877h-20.796v-1.372h20.796V605.877z"/>
	<path fill="#00FFFF" stroke="#00FFFF" stroke-width="3" d="M700.566,605.877h-20.796v-1.372h20.796V605.877z"/>
	<path fill="#00FFFF" stroke="#00FFFF" stroke-width="3" d="M718.426,588.503l-12.67,15.516h-3.065l12.669-15.516H718.426z"/>
	<path fill="#00FFFF" stroke="#00FFFF" stroke-width="3" d="M781.643,604.019h-3.066l-12.669-15.516h3.065L781.643,604.019z"/>
	<path fill="#00FFFF" stroke="#00FFFF" stroke-width="3" d="M804.544,605.877h-20.796v-1.372h20.796V605.877z"/>
	<path fill="#00FFFF" stroke="#00FFFF" stroke-width="3" d="M822.402,588.503l-12.67,15.516h-3.065l12.669-15.516H822.402z"/>
	<path fill="#00FFFF" stroke="#00FFFF" stroke-width="3" d="M864.824,604.019h-3.066l-12.669-15.516h3.065L864.824,604.019z"/>
	<path fill="#00FFFF" stroke="#00FFFF" stroke-width="3" d="M887.726,605.877H866.93v-1.372h20.796V605.877z"/>
	<path fill="#00FFFF" stroke="#00FFFF" stroke-width="3" d="M899.638,605.877h-3.028v-19.519h3.028V605.877z"/>
	<path fill="#00FFFF" stroke="#00FFFF" stroke-width="3" d="M948.007,604.019h-3.066l-12.669-15.516h3.065L948.007,604.019z"/>
	<path fill="#00FFFF" stroke="#00FFFF" stroke-width="3" d="M970.907,605.877h-20.796v-1.372h20.796V605.877z"/>
	<path fill="#00FFFF" stroke="#00FFFF" stroke-width="3" d="M982.819,605.877h-3.028v-19.519h3.028V605.877z"/>
	<path fill="#00FFFF" stroke="#00FFFF" stroke-width="3" d="M1010.393,604.019h-3.066l-12.669-15.516h3.065L1010.393,604.019z"/>
	<path fill="#00FFFF" stroke="#00FFFF" stroke-width="3" d="M1033.294,605.877h-20.796v-1.372h20.796V605.877z"/>
	<path fill="#00FFFF" stroke="#00FFFF" stroke-width="3" d="M1054.089,605.877h-20.796v-1.372h20.796V605.877z"/>
	<path fill="#00FFFF" stroke="#00FFFF" stroke-width="3" d="M1074.885,605.877h-20.796v-1.372h20.796V605.877z"/>
	<path fill="#00FFFF" stroke="#00FFFF" stroke-width="3" d="M1092.744,588.503l-12.67,15.516h-3.065l12.669-15.516H1092.744z"/>
</g>
<g>
</g>
<g>
	<path fill="#656565" d="M491.695,710.852c-2.59,0-4.638-1.151-6.144-3.454s-2.259-5.514-2.259-9.633s0.741-7.374,2.224-9.765
		s3.56-3.586,6.231-3.586c1.641,0,3.158,0.434,4.553,1.301l-1.055,2.303c-1.113-0.738-2.262-1.107-3.445-1.107
		c-1.77,0-3.161,0.958-4.175,2.874s-1.521,4.541-1.521,7.875s0.516,5.953,1.547,7.857s2.455,2.856,4.271,2.856
		c1.371,0,2.631-0.305,3.779-0.914v2.461C494.672,710.541,493.336,710.852,491.695,710.852z"/>
	<path fill="#656565" d="M511.031,710.5h-2.162c-0.094-0.656-0.205-1.529-0.334-2.619h-0.176c-0.422,0.938-1.008,1.667-1.758,2.188
		s-1.582,0.782-2.496,0.782c-1.605,0-2.795-0.565-3.568-1.696s-1.16-2.909-1.16-5.335V691.27h2.672v12.182
		c0,1.746,0.205,3.026,0.615,3.841s1.061,1.222,1.951,1.222c1.289,0,2.238-0.562,2.848-1.688s0.914-2.941,0.914-5.449V691.27h2.654
		V710.5z"/>
	<path fill="#656565" d="M516.437,708.048c0.814,0.264,1.641,0.396,2.479,0.396s1.515-0.258,2.03-0.773s0.773-1.16,0.773-1.934
		c0-0.586-0.141-1.166-0.422-1.74c-0.082-0.176-0.258-0.39-0.527-0.642s-0.463-0.422-0.58-0.51s-0.545-0.396-1.283-0.923
		s-1.453-1.066-2.145-1.617c-1.43-1.137-2.145-2.619-2.145-4.447c0-1.465,0.498-2.66,1.494-3.586
		c1.02-0.926,2.323-1.389,3.911-1.389s2.991,0.398,4.21,1.195l-1.09,2.074c-1.066-0.656-2.068-0.984-3.006-0.984
		s-1.655,0.246-2.153,0.738s-0.747,1.137-0.747,1.934c0,1.031,0.352,1.816,1.055,2.355l2.285,1.705
		c0.504,0.375,0.905,0.686,1.204,0.932s0.624,0.557,0.976,0.932s0.621,0.744,0.809,1.107c0.445,0.844,0.668,1.799,0.668,2.865
		c0,1.699-0.466,2.977-1.397,3.832s-2.271,1.283-4.017,1.283s-3.146-0.363-4.201-1.09v-2.654
		C515.016,707.471,515.622,707.784,516.437,708.048z"/>
	<path fill="#656565" d="M530.578,691.27h3.199v2.215h-3.199v12.146c0,1.043,0.135,1.784,0.404,2.224s0.718,0.659,1.345,0.659
		s1.181-0.1,1.661-0.299v2.145c-0.598,0.328-1.418,0.492-2.461,0.492c-1.359,0-2.303-0.516-2.83-1.547s-0.791-2.672-0.791-4.922
		v-10.898h-1.793v-1.354l1.934-0.879l0.773-4.412h1.758V691.27z"/>
	<path fill="#656565" d="M536.098,700.841c0-3.193,0.554-5.648,1.661-7.365s2.675-2.575,4.702-2.575s3.609,0.882,4.746,2.646
		s1.705,4.222,1.705,7.374s-0.562,5.596-1.688,7.33s-2.698,2.602-4.72,2.602s-3.595-0.87-4.72-2.61S536.098,704.034,536.098,700.841
		z M542.496,693.273c-1.277,0-2.206,0.621-2.786,1.863s-0.87,3.141-0.87,5.695s0.296,4.468,0.888,5.739s1.515,1.907,2.769,1.907
		c2.438,0,3.656-2.534,3.656-7.603S544.934,693.273,542.496,693.273z"/>
	<path fill="#656565" d="M554.959,691.27l0.281,2.602h0.211c0.797-1.98,2.162-2.971,4.096-2.971c2.109,0,3.486,1.113,4.131,3.34
		c0.234-0.398,0.419-0.706,0.554-0.923s0.352-0.504,0.65-0.861s0.589-0.63,0.87-0.817c0.738-0.492,1.553-0.738,2.443-0.738
		c1.535,0,2.675,0.574,3.419,1.723s1.116,2.924,1.116,5.326V710.5h-2.654v-12.551c0-3.094-0.861-4.641-2.584-4.641
		c-1.195,0-2.06,0.536-2.593,1.608s-0.8,2.733-0.8,4.983v10.6h-2.672v-12.551c0-3.094-0.861-4.641-2.584-4.641
		c-1.184,0-2.045,0.554-2.584,1.661s-0.809,2.915-0.809,5.423V710.5h-2.654v-19.23H554.959z"/>
	<path fill="#656565" d="M588.023,710.5h-2.637v-25.699h2.637V710.5z"/>
	<path fill="#656565" d="M595.477,691.27l0.281,2.602h0.211c0.797-1.98,2.162-2.971,4.096-2.971c2.109,0,3.486,1.113,4.131,3.34
		c0.234-0.398,0.419-0.706,0.554-0.923s0.352-0.504,0.65-0.861s0.589-0.63,0.87-0.817c0.738-0.492,1.553-0.738,2.443-0.738
		c1.535,0,2.675,0.574,3.419,1.723s1.116,2.924,1.116,5.326V710.5h-2.654v-12.551c0-3.094-0.861-4.641-2.584-4.641
		c-1.195,0-2.06,0.536-2.593,1.608s-0.8,2.733-0.8,4.983v10.6h-2.672v-12.551c0-3.094-0.861-4.641-2.584-4.641
		c-1.184,0-2.045,0.554-2.584,1.661s-0.809,2.915-0.809,5.423V710.5h-2.654v-19.23H595.477z"/>
	<path fill="#656565" d="M619.102,694.275l-1.02-1.951c1.523-0.961,3.146-1.441,4.869-1.441s3,0.533,3.832,1.6
		s1.248,2.73,1.248,4.992V710.5h-2.039l-0.457-2.672h-0.088c-0.961,1.992-2.373,2.988-4.236,2.988c-1.406,0-2.502-0.492-3.287-1.477
		s-1.178-2.396-1.178-4.236s0.551-3.284,1.652-4.333s2.684-1.62,4.746-1.714l2.232-0.105v-1.512c0-1.5-0.211-2.599-0.633-3.296
		s-1.154-1.046-2.197-1.046S620.355,693.49,619.102,694.275z M625.377,702.766v-1.863c-0.398,0.012-0.996,0.041-1.793,0.088
		c-1.383,0.07-2.405,0.454-3.067,1.151s-0.993,1.72-0.993,3.067c0,2.332,0.803,3.498,2.408,3.498c1.078,0,1.922-0.524,2.531-1.573
		S625.377,704.629,625.377,702.766z"/>
	<path fill="#656565" d="M637.119,707.512h1.74c1.699,0,3.003,0.451,3.911,1.354s1.362,2.221,1.362,3.955
		c0,1.957-0.677,3.501-2.03,4.632s-3.179,1.696-5.476,1.696c-1.875,0-3.313-0.448-4.315-1.345s-1.503-2.183-1.503-3.858
		c0-2.379,1.26-4.025,3.779-4.939c-0.609-0.258-1.093-0.624-1.45-1.099s-0.536-1.005-0.536-1.591s0.164-1.104,0.492-1.556
		s0.879-0.976,1.652-1.573c-0.914-0.445-1.617-1.169-2.109-2.171s-0.738-2.171-0.738-3.507c0-2.074,0.472-3.694,1.415-4.86
		s2.259-1.749,3.946-1.749c0.715,0,1.424,0.129,2.127,0.387c0.152-0.012,0.609-0.018,1.371-0.018s1.84,0.006,3.234,0.018v1.688
		l-2.514,0.369c0.305,0.434,0.554,1.028,0.747,1.784s0.29,1.526,0.29,2.312c0,1.922-0.48,3.46-1.441,4.614s-2.209,1.731-3.744,1.731
		h-0.141c-0.352,0-0.621-0.023-0.809-0.07c-0.504,0.375-0.885,0.735-1.143,1.081s-0.387,0.75-0.387,1.213s0.199,0.829,0.598,1.099
		S636.404,707.512,637.119,707.512z M638.262,709.955h-1.336c-1.137,0-2.021,0.337-2.654,1.011s-0.949,1.57-0.949,2.689
		s0.293,1.975,0.879,2.566s1.447,0.888,2.584,0.888c1.512,0,2.692-0.363,3.542-1.09s1.274-1.729,1.274-3.006
		C641.602,710.975,640.488,709.955,638.262,709.955z M639.229,694.038c-0.457-0.791-1.125-1.187-2.004-1.187
		s-1.556,0.404-2.03,1.213s-0.712,1.942-0.712,3.401s0.243,2.558,0.729,3.296s1.163,1.107,2.03,1.107
		c1.781,0,2.672-1.482,2.672-4.447C639.914,695.957,639.686,694.829,639.229,694.038z"/>
	<path fill="#656565" d="M652.816,710.852c-2.168,0-3.847-0.858-5.036-2.575s-1.784-4.169-1.784-7.356s0.533-5.654,1.6-7.4
		s2.59-2.619,4.57-2.619c1.758,0,3.146,0.765,4.166,2.294s1.529,3.601,1.529,6.214v1.863h-9.158c0.07,4.852,1.535,7.277,4.395,7.277
		c1.336,0,2.695-0.416,4.078-1.248v2.355C655.863,710.453,654.41,710.852,652.816,710.852z M655.225,699.145
		c0-1.84-0.281-3.308-0.844-4.403s-1.33-1.644-2.303-1.644c-2.027,0-3.135,2.016-3.322,6.047H655.225z"/>
	<path fill="#656565" d="M671.854,691.234l-0.123,2.566h0.176c1.02-1.922,2.423-2.883,4.21-2.883s3.167,0.844,4.14,2.531
		s1.459,4.151,1.459,7.392s-0.483,5.719-1.45,7.436s-2.35,2.575-4.148,2.575s-3.22-0.949-4.263-2.848h-0.193
		c-0.094,0.645-0.229,1.477-0.404,2.496h-2.057v-27.352h2.654V691.234z M671.854,700.674v0.457c0,2.508,0.299,4.365,0.896,5.572
		s1.503,1.811,2.716,1.811s2.101-0.63,2.663-1.89s0.844-3.176,0.844-5.748s-0.281-4.482-0.844-5.73s-1.462-1.872-2.698-1.872
		s-2.142,0.568-2.716,1.705S671.854,698.014,671.854,700.674z"/>
	<path fill="#656565" d="M688.421,717.751c-0.369,0.416-0.814,0.753-1.336,1.011s-1.096,0.387-1.723,0.387s-1.257-0.1-1.89-0.299
		v-2.32c0.492,0.164,0.979,0.246,1.459,0.246c0.727,0,1.312-0.284,1.758-0.853s0.814-1.479,1.107-2.733l0.686-2.619l-5.115-19.301
		h2.742l2.812,11.619c0.328,1.348,0.621,2.883,0.879,4.605h0.123c0.246-1.617,0.51-3.111,0.791-4.482
		c1.266-5.555,2.15-9.469,2.654-11.742h2.76c-1.57,6.141-3.205,12.586-4.904,19.336c-0.328,1.242-0.612,2.247-0.853,3.015
		s-0.533,1.544-0.879,2.329S688.79,717.335,688.421,717.751z"/>
	<path fill="#656565" d="M706.342,684.801h5.414c2.742,0,4.849,1.078,6.319,3.234s2.206,5.344,2.206,9.562s-0.738,7.424-2.215,9.615
		s-3.668,3.287-6.574,3.287h-5.15V684.801z M709.084,687.227v20.848h2.338c4.02,0,6.029-3.516,6.029-10.547
		c0-3.387-0.489-5.95-1.468-7.69s-2.423-2.61-4.333-2.61H709.084z"/>
	<path fill="#656565" d="M723.604,700.841c0-3.193,0.554-5.648,1.661-7.365s2.675-2.575,4.702-2.575s3.609,0.882,4.746,2.646
		s1.705,4.222,1.705,7.374s-0.562,5.596-1.688,7.33s-2.698,2.602-4.72,2.602s-3.595-0.87-4.72-2.61S723.604,704.034,723.604,700.841
		z M730.002,693.273c-1.277,0-2.206,0.621-2.786,1.863s-0.87,3.141-0.87,5.695s0.296,4.468,0.888,5.739s1.515,1.907,2.769,1.907
		c2.438,0,3.656-2.534,3.656-7.603S732.439,693.273,730.002,693.273z"/>
	<path fill="#656565" d="M745.717,710.852c-2.051,0-3.601-0.835-4.649-2.505s-1.573-4.122-1.573-7.356
		c0-6.727,2.074-10.09,6.223-10.09c1.336,0,2.484,0.281,3.445,0.844l-0.879,2.18c-0.832-0.434-1.6-0.65-2.303-0.65
		c-2.496,0-3.744,2.561-3.744,7.682c0,2.578,0.313,4.477,0.94,5.695s1.597,1.828,2.909,1.828c0.867,0,1.84-0.246,2.918-0.738v2.303
		C747.961,710.582,746.865,710.852,745.717,710.852z"/>
	<path fill="#656565" d="M754.98,691.27h3.199v2.215h-3.199v12.146c0,1.043,0.135,1.784,0.404,2.224s0.718,0.659,1.345,0.659
		s1.181-0.1,1.661-0.299v2.145c-0.598,0.328-1.418,0.492-2.461,0.492c-1.359,0-2.303-0.516-2.83-1.547s-0.791-2.672-0.791-4.922
		v-10.898h-1.793v-1.354l1.934-0.879l0.773-4.412h1.758V691.27z"/>
	<path fill="#656565" d="M760.5,700.841c0-3.193,0.554-5.648,1.661-7.365s2.675-2.575,4.702-2.575s3.609,0.882,4.746,2.646
		s1.705,4.222,1.705,7.374s-0.562,5.596-1.688,7.33s-2.698,2.602-4.72,2.602s-3.595-0.87-4.72-2.61S760.5,704.034,760.5,700.841z
		 M766.898,693.273c-1.277,0-2.206,0.621-2.786,1.863s-0.87,3.141-0.87,5.695s0.296,4.468,0.888,5.739s1.515,1.907,2.769,1.907
		c2.438,0,3.656-2.534,3.656-7.603S769.336,693.273,766.898,693.273z"/>
	<path fill="#656565" d="M781.427,691.762c0.604-0.586,1.251-0.879,1.942-0.879s1.295,0.088,1.811,0.264l-0.439,2.619
		c-0.422-0.164-0.855-0.246-1.301-0.246c-1.02,0-1.869,0.65-2.549,1.951s-1.02,2.947-1.02,4.939v10.09h-2.672v-19.248h2.197
		l0.299,3.252h0.123C780.287,693.262,780.823,692.348,781.427,691.762z"/>
	<path fill="#656565" d="M801.721,697.281l4.975,13.219h-2.848l-3.797-10.951l-4.113,10.951h-2.812l5.555-13.553l-4.904-12.146
		h2.812l3.674,9.949l3.445-9.949h2.83L801.721,697.281z"/>
</g>
</svg>
