<?xml version="1.0" encoding="utf-8"?>
<!-- Generator: Adobe Illustrator 15.1.0, SVG Export Plug-In . SVG Version: 6.00 Build 0)  -->
<!DOCTYPE svg PUBLIC "-//W3C//DTD SVG 1.1//EN" "http://www.w3.org/Graphics/SVG/1.1/DTD/svg11.dtd">
<svg version="1.1" id="Layer_1" xmlns="http://www.w3.org/2000/svg" xmlns:xlink="http://www.w3.org/1999/xlink" x="0px" y="0px"
	 width="1280px" height="720px" viewBox="0 0 1280 720" enable-background="new 0 0 1280 720" xml:space="preserve">
<g>
	<g enable-background="new    ">
		<path fill="#FFFF00" d="M576.929,618.258l4.977-20.158h14.93l-0.816,3.208h-10.182l-1.253,5.013h9.725l-0.74,3.131h-9.726
			l-1.387,5.599h10.182l-0.779,3.208H576.929z"/>
		<path fill="#FFFF00" d="M618.072,604.994c0,0.422-0.028,0.936-0.086,1.542c-0.057,0.607-0.171,1.263-0.342,1.967
			s-0.411,1.435-0.722,2.189c-0.311,0.756-0.725,1.494-1.244,2.214s-1.149,1.403-1.89,2.051c-0.741,0.648-1.628,1.216-2.659,1.704
			c-1.032,0.489-2.223,0.877-3.571,1.165s-2.885,0.432-4.606,0.432h-6.496l4.977-20.158h7.123c3.141,0,5.512,0.573,7.113,1.72
			C617.271,600.966,618.072,602.691,618.072,604.994z M613.058,605.318c0-0.648-0.095-1.224-0.285-1.728
			c-0.189-0.504-0.494-0.926-0.912-1.265c-0.417-0.34-0.962-0.6-1.633-0.779c-0.672-0.18-1.488-0.27-2.451-0.27h-2.488
			l-3.399,13.804h1.956c1.33,0,2.482-0.173,3.457-0.517c0.976-0.345,1.802-0.795,2.479-1.35c0.677-0.556,1.231-1.188,1.662-1.897
			c0.43-0.709,0.763-1.424,0.997-2.144c0.233-0.72,0.396-1.419,0.484-2.098C613.013,606.397,613.058,605.812,613.058,605.318z"/>
		<path fill="#FFFF00" d="M623.238,601.216l0.778-3.116h15.729l-0.779,3.116h-5.489l-3.438,13.927h5.452l-0.741,3.115H619.04
			l0.741-3.115h5.509l3.457-13.927H623.238z"/>
		<path fill="#FFFF00" d="M654.865,601.262l-4.16,16.996h-4.787l4.16-16.996h-6.8l0.816-3.162h18.388l-0.817,3.162H654.865z"/>
		<path fill="#FFFF00" d="M666.016,601.216l0.778-3.116h15.729l-0.779,3.116h-5.489l-3.438,13.927h5.452l-0.741,3.115h-15.709
			l0.741-3.115h5.509l3.457-13.927H666.016z"/>
		<path fill="#FFFF00" d="M691.146,618.612c-2.597,0-4.588-0.58-5.975-1.742s-2.08-2.849-2.08-5.06c0-1.027,0.108-2.087,0.323-3.177
			s0.545-2.156,0.988-3.2c0.442-1.044,1.006-2.03,1.69-2.961c0.684-0.931,1.5-1.743,2.45-2.438c0.949-0.693,2.035-1.246,3.258-1.657
			c1.222-0.411,2.586-0.617,4.093-0.617c2.596,0,4.588,0.578,5.975,1.735c1.387,1.156,2.08,2.84,2.08,5.051
			c0,1.028-0.108,2.09-0.323,3.185c-0.216,1.095-0.545,2.165-0.988,3.208c-0.443,1.044-1.006,2.028-1.69,2.954
			c-0.684,0.925-1.5,1.737-2.45,2.437c-0.949,0.699-2.035,1.255-3.258,1.666C694.017,618.407,692.652,618.612,691.146,618.612z
			 M691.81,615.204c0.798,0,1.529-0.144,2.194-0.432s1.267-0.679,1.805-1.173c0.538-0.493,1.01-1.071,1.415-1.734
			s0.744-1.378,1.017-2.145c0.271-0.766,0.475-1.562,0.607-2.39c0.133-0.828,0.199-1.648,0.199-2.46
			c0-1.275-0.301-2.211-0.902-2.808c-0.602-0.596-1.573-0.895-2.915-0.895c-0.798,0-1.529,0.142-2.194,0.425
			c-0.665,0.282-1.267,0.671-1.805,1.164s-1.01,1.074-1.415,1.743c-0.405,0.668-0.744,1.383-1.017,2.144s-0.475,1.558-0.607,2.391
			s-0.199,1.655-0.199,2.468c0,1.274,0.297,2.21,0.893,2.807C689.479,614.906,690.455,615.204,691.81,615.204z"/>
		<path fill="#FFFF00" d="M715.915,618.258l-3.686-12.03l-0.74-2.591l-2.07,8.359l-1.52,6.262h-4.236l4.977-20.158h5.49
			l3.779,12.107l0.608,2.359l2.185-8.898l1.405-5.568h4.273l-4.977,20.158H715.915z"/>
	</g>
	<g enable-background="new    ">
		<path fill="none" stroke="#8DC63F" d="M576.929,618.258l4.977-20.158h14.93l-0.816,3.208h-10.182l-1.253,5.013h9.725l-0.74,3.131
			h-9.726l-1.387,5.599h10.182l-0.779,3.208H576.929z"/>
		<path fill="none" stroke="#8DC63F" d="M618.072,604.994c0,0.422-0.028,0.936-0.086,1.542c-0.057,0.607-0.171,1.263-0.342,1.967
			s-0.411,1.435-0.722,2.189c-0.311,0.756-0.725,1.494-1.244,2.214s-1.149,1.403-1.89,2.051c-0.741,0.648-1.628,1.216-2.659,1.704
			c-1.032,0.489-2.223,0.877-3.571,1.165s-2.885,0.432-4.606,0.432h-6.496l4.977-20.158h7.123c3.141,0,5.512,0.573,7.113,1.72
			C617.271,600.966,618.072,602.691,618.072,604.994z M613.058,605.318c0-0.648-0.095-1.224-0.285-1.728
			c-0.189-0.504-0.494-0.926-0.912-1.265c-0.417-0.34-0.962-0.6-1.633-0.779c-0.672-0.18-1.488-0.27-2.451-0.27h-2.488
			l-3.399,13.804h1.956c1.33,0,2.482-0.173,3.457-0.517c0.976-0.345,1.802-0.795,2.479-1.35c0.677-0.556,1.231-1.188,1.662-1.897
			c0.43-0.709,0.763-1.424,0.997-2.144c0.233-0.72,0.396-1.419,0.484-2.098C613.013,606.397,613.058,605.812,613.058,605.318z"/>
		<path fill="none" stroke="#8DC63F" d="M623.238,601.216l0.778-3.116h15.729l-0.779,3.116h-5.489l-3.438,13.927h5.452l-0.741,3.115
			H619.04l0.741-3.115h5.509l3.457-13.927H623.238z"/>
		<path fill="none" stroke="#8DC63F" d="M654.865,601.262l-4.16,16.996h-4.787l4.16-16.996h-6.8l0.816-3.162h18.388l-0.817,3.162
			H654.865z"/>
		<path fill="none" stroke="#8DC63F" d="M666.016,601.216l0.778-3.116h15.729l-0.779,3.116h-5.489l-3.438,13.927h5.452l-0.741,3.115
			h-15.709l0.741-3.115h5.509l3.457-13.927H666.016z"/>
		<path fill="none" stroke="#8DC63F" d="M691.146,618.612c-2.597,0-4.588-0.58-5.975-1.742s-2.08-2.849-2.08-5.06
			c0-1.027,0.108-2.087,0.323-3.177s0.545-2.156,0.988-3.2c0.442-1.044,1.006-2.03,1.69-2.961c0.684-0.931,1.5-1.743,2.45-2.438
			c0.949-0.693,2.035-1.246,3.258-1.657c1.222-0.411,2.586-0.617,4.093-0.617c2.596,0,4.588,0.578,5.975,1.735
			c1.387,1.156,2.08,2.84,2.08,5.051c0,1.028-0.108,2.09-0.323,3.185c-0.216,1.095-0.545,2.165-0.988,3.208
			c-0.443,1.044-1.006,2.028-1.69,2.954c-0.684,0.925-1.5,1.737-2.45,2.437c-0.949,0.699-2.035,1.255-3.258,1.666
			C694.017,618.407,692.652,618.612,691.146,618.612z M691.81,615.204c0.798,0,1.529-0.144,2.194-0.432s1.267-0.679,1.805-1.173
			c0.538-0.493,1.01-1.071,1.415-1.734s0.744-1.378,1.017-2.145c0.271-0.766,0.475-1.562,0.607-2.39
			c0.133-0.828,0.199-1.648,0.199-2.46c0-1.275-0.301-2.211-0.902-2.808c-0.602-0.596-1.573-0.895-2.915-0.895
			c-0.798,0-1.529,0.142-2.194,0.425c-0.665,0.282-1.267,0.671-1.805,1.164s-1.01,1.074-1.415,1.743
			c-0.405,0.668-0.744,1.383-1.017,2.144s-0.475,1.558-0.607,2.391s-0.199,1.655-0.199,2.468c0,1.274,0.297,2.21,0.893,2.807
			C689.479,614.906,690.455,615.204,691.81,615.204z"/>
		<path fill="none" stroke="#8DC63F" d="M715.915,618.258l-3.686-12.03l-0.74-2.591l-2.07,8.359l-1.52,6.262h-4.236l4.977-20.158
			h5.49l3.779,12.107l0.608,2.359l2.185-8.898l1.405-5.568h4.273l-4.977,20.158H715.915z"/>
	</g>
</g>
<g id="Layer_2">
</g>
<g id="Ebene_1">
	<path fill="#C90012" d="M431.529,323.098L431.529,323.098L431.529,323.098z"/>
	<path fill="#C90012" d="M431.529,240.216L431.529,240.216L431.529,240.216z"/>
	<path fill="#C90012" d="M431.529,157.306L431.529,157.306L431.529,157.306z"/>
	<path fill="#C90012" d="M431.529,198.753L431.529,198.753L431.529,198.753z"/>
	<path fill="#C90012" d="M431.529,364.544L431.529,364.544L431.529,364.544z"/>
	<path fill="#C90012" d="M431.529,281.642L431.529,281.642L431.529,281.642z"/>
	<path fill="#C90012" d="M431.529,115.842L431.529,115.842L431.529,115.842z"/>
	
		<linearGradient id="SVGID_1_" gradientUnits="userSpaceOnUse" x1="118.3145" y1="565.3193" x2="323.8029" y2="250.3365" gradientTransform="matrix(1 0 0 1 0 -142)">
		<stop  offset="0" style="stop-color:#004E73"/>
		<stop  offset="1" style="stop-color:#00A1B0"/>
	</linearGradient>
	<path fill="url(#SVGID_1_)" d="M431.529,126.951c0-6.11-4.999-11.108-11.105-11.108H69.563c-6.112,0-14.644,3.534-18.963,7.855
		l-25.745,25.745C20.533,153.764,17,162.296,17,168.406v226.468c0,6.111,4.999,11.109,11.106,11.109h350.86
		c6.107,0,14.646-3.535,18.963-7.854l25.741-25.736c4.32-4.312,7.854-12.853,7.854-18.965L431.529,126.951z"/>
	<path opacity="0.2" enable-background="new    " d="M382.22,273.789l-25.729-25.729c-4.319-4.318-12.854-7.854-18.963-7.854H318.28
		c-6.112,0.001-11.11,0.001-11.11,0.001s3.532-3.534,7.854-7.855l67.192-67.193c4.32-4.321,2.854-7.855-3.253-7.855H276.832
		c-6.111,0-14.643,3.534-18.963,7.855L25.142,397.86c-1.825,1.817-3.517,3.514-4.871,4.862c2.012,2.015,4.786,3.263,7.836,3.263
		c0.005,0,0.01,0,0.016,0h99.953h167.988c6.111,0,11.122-0.017,11.133-0.023c0.015-0.016,3.559-3.562,7.88-7.88l67.144-67.132
		c4.32-4.316,7.854-12.854,7.854-18.964v-19.234C390.073,286.64,386.54,278.104,382.22,273.789z"/>
	
		<linearGradient id="SVGID_2_" gradientUnits="userSpaceOnUse" x1="144.8115" y1="563.376" x2="399.8014" y2="311.3862" gradientTransform="matrix(1 0 0 1 0 -142)">
		<stop  offset="0.3077" style="stop-color:#D3D3D3"/>
		<stop  offset="0.6752" style="stop-color:#FFFFFF"/>
	</linearGradient>
	<path fill="url(#SVGID_2_)" d="M276.824,281.649c-6.108,0-14.643-3.536-18.96-7.857l-25.71-25.718
		c-4.321-4.321-7.857-12.855-7.865-18.966l-0.012-19.246c-0.008-6.11,3.525-14.643,7.846-18.964l25.741-25.737
		c4.321-4.321,12.852-7.855,18.963-7.855h102.14c6.107,0,7.573,3.534,3.253,7.855l-25.737,25.737
		c-4.32,4.321-12.854,7.855-18.967,7.855h-60.688c-6.112,0-11.11,4.998-11.11,11.108v19.246c0,6.11,4.998,11.108,11.106,11.106
		l60.702-0.007c6.104-0.002,14.644,3.533,18.963,7.853l25.729,25.729c4.32,4.313,7.854,12.851,7.854,18.963v19.235
		c0,6.107-3.532,14.646-7.854,18.963l-25.736,25.74c-4.321,4.312-12.854,7.854-18.968,7.854h-60.688
		c-6.112,0-14.643-3.536-18.963-7.854l-25.741-25.74c-4.32-4.316-2.858-7.854,3.253-7.854h102.14c6.112,0,11.11-4.998,11.11-11.106
		V292.75c0-6.112,0-11.11,0.003-11.11c0.004,0-4.994,0-11.103,0L276.824,281.649z"/>
	<g opacity="0.2">
		<path d="M17.008,251.877c0-6.109,0-11.238,0-11.393c0-0.155,3.532-3.818,7.854-8.138l67.185-67.186
			c4.321-4.321,12.855-7.855,18.963-7.855h102.15c6.108,0,7.574,3.534,3.253,7.855l-67.197,67.182
			c-4.32,4.321-7.853,7.855-7.853,7.855s4.998,0.002,11.11,0.006l19.228,0.007c6.108,0.004,10.75,4.993,10.318,11.086l-1.114,15.593
			c-0.433,6.092-1.707,11.997-2.833,13.122c-1.125,1.125-5.576,5.58-9.896,9.896l-25.201,25.2c-4.32,4.314-7.885,7.886-7.922,7.918
			c-0.034,0.033,4.933,0.062,11.041,0.062h17.979c6.108-0.004,14.784,3.379,19.281,7.521l26.836,24.691
			c4.497,4.141,8.181,7.623,8.058,7.75c-0.126,0.126-3.766,3.766-8.087,8.083l-34.827,34.854l-147.212,0.002
			c-6.107,0-11.105-4.998-11.105-11.11L17.008,251.877z"/>
	</g>
	
		<linearGradient id="SVGID_3_" gradientUnits="userSpaceOnUse" x1="71.269" y1="488.957" x2="326.2593" y2="236.9667" gradientTransform="matrix(1 0 0 1 0 -142)">
		<stop  offset="0.3077" style="stop-color:#D3D3D3"/>
		<stop  offset="0.6752" style="stop-color:#FFFFFF"/>
	</linearGradient>
	<path fill="url(#SVGID_3_)" d="M111.01,323.098c-6.107,0-11.104-4.998-11.104-11.106v-19.235c0-6.112,4.998-11.11,11.104-11.11
		h60.69c6.108,0,11.106-4.997,11.106-11.107v-19.21c0-6.112-4.998-11.11-11.106-11.11h-60.69c-6.107,0-11.104-4.998-11.104-11.108
		v-19.246c0-6.11,4.998-11.108,11.104-11.108h60.69c6.108,0,14.643-3.534,18.964-7.854l25.749-25.741
		c4.321-4.319,2.855-7.853-3.253-7.853H111.01c-6.107,0-14.643,3.534-18.963,7.855L66.31,190.9
		c-4.32,4.321-7.857,12.854-7.857,18.964v102.125c0,6.109,3.537,14.646,7.857,18.964l25.737,25.74
		c4.321,4.312,12.855,7.854,18.963,7.854h102.143c6.112,0,7.574-3.536,3.253-7.854l-25.741-25.744
		c-4.32-4.321-12.854-7.857-18.964-7.857L111.01,323.098z"/>
	<g>
		<path fill="#FFFFFF" d="M558.605,207.562c-1.623,3.8-3.854,7.115-6.687,9.943c-2.832,2.836-6.146,5.06-9.947,6.682
			c-3.796,1.623-7.838,2.434-12.112,2.434h-8.496c-4.283,0-8.324-0.812-12.121-2.434c-3.8-1.623-7.115-3.846-9.942-6.682
			c-2.836-2.828-5.062-6.143-6.683-9.943c-1.626-3.796-2.438-7.838-2.438-12.121v-47.858c0-4.282,0.812-8.324,2.438-12.12
			c1.619-3.801,3.847-7.115,6.683-9.947c2.827-2.833,6.146-5.056,9.942-6.682c3.796-1.619,7.838-2.434,12.121-2.434h8.496
			c4.274,0,8.315,0.815,12.112,2.434c3.804,1.626,7.115,3.85,9.947,6.682s5.062,6.146,6.687,9.947
			c1.619,3.796,2.434,7.838,2.434,12.12v24.964h-58.114v23.618c0,2.556,0.481,4.956,1.45,7.202c0.965,2.243,2.277,4.195,3.936,5.852
			c1.66,1.657,3.608,2.97,5.854,3.938c2.243,0.964,4.643,1.447,7.199,1.447h8.495c2.554,0,4.949-0.482,7.195-1.447
			c2.243-0.968,4.195-2.281,5.854-3.938c1.657-1.657,2.971-3.609,3.938-5.852c0.964-2.246,1.451-4.646,1.451-7.202v-7.042
			l12.739,2.07v4.248C561.038,199.724,560.229,203.765,558.605,207.562z M548.299,146.855c0-2.553-0.486-4.952-1.451-7.199
			c-0.968-2.243-2.276-4.194-3.938-5.854c-1.656-1.658-3.608-2.97-5.854-3.938c-2.247-0.964-4.646-1.45-7.195-1.45h-8.496
			c-2.561,0-4.956,0.486-7.199,1.45c-2.246,0.969-4.194,2.281-5.854,3.938c-1.656,1.657-2.974,3.609-3.938,5.854
			c-0.969,2.247-1.451,4.646-1.451,7.199V162.6h45.375L548.299,146.855L548.299,146.855z"/>
		<path fill="#FFFFFF" d="M698.506,224.55v-77.695c0-2.553-0.479-4.952-1.45-7.199c-0.969-2.243-2.272-4.194-3.938-5.854
			c-1.652-1.657-3.608-2.97-5.854-3.938c-2.246-0.964-4.646-1.45-7.194-1.45h-6.317c-2.558,0-4.956,0.486-7.202,1.45
			c-2.243,0.969-4.21,2.281-5.899,3.938c-1.693,1.657-3.021,3.609-3.989,5.854c-0.968,2.247-1.445,4.646-1.445,7.199v77.695H642.57
			v-77.695c0-2.553-0.479-4.952-1.447-7.199c-0.971-2.243-2.296-4.194-3.987-5.854c-1.688-1.657-3.658-2.97-5.905-3.938
			c-2.238-0.964-4.643-1.45-7.195-1.45h-6.317c-2.558,0-4.956,0.486-7.198,1.45c-2.247,0.969-4.193,2.281-5.854,3.938
			c-1.657,1.657-2.974,3.609-3.938,5.854c-0.968,2.247-1.45,4.646-1.45,7.199v77.695h-12.736V118.474h4.243l6.939,10.773
			c2.899-3.938,6.54-7.061,10.933-9.376c4.384-2.312,9.166-3.471,14.346-3.471h1.036c6.01,0,11.429,1.485,16.267,4.455
			c4.833,2.97,8.562,6.908,11.188,11.811c1.312-2.419,2.937-4.627,4.866-6.629c1.937-2.005,4.074-3.712,6.424-5.128
			c2.352-1.416,4.903-2.522,7.669-3.318c2.762-0.792,5.627-1.19,8.598-1.19h1.037c4.276,0,8.317,0.815,12.119,2.434
			c3.798,1.626,7.112,3.85,9.944,6.682c2.827,2.832,5.059,6.146,6.687,9.947c1.617,3.796,2.435,7.838,2.435,12.12v76.968h-12.746
			v-0.002H698.506L698.506,224.55z"/>
		<path fill="#FFFFFF" d="M803.343,224.55l-7.046-10.773c-2.9,3.938-6.525,7.061-10.878,9.376
			c-4.348,2.312-9.115,3.467-14.294,3.467h-3.211c-4.286,0-8.323-0.812-12.12-2.434c-3.801-1.623-7.114-3.846-9.946-6.682
			c-2.832-2.828-5.061-6.143-6.684-9.943c-1.622-3.796-2.434-7.838-2.434-12.121v-76.966h12.739v77.691
			c0,2.556,0.481,4.956,1.446,7.202c0.969,2.243,2.28,4.195,3.938,5.852c1.655,1.657,3.607,2.97,5.854,3.938
			c2.242,0.964,4.646,1.447,7.203,1.447h8.496c2.549,0,4.952-0.482,7.189-1.447c2.243-0.968,4.198-2.281,5.854-3.938
			c1.656-1.657,2.971-3.609,3.936-5.852c0.973-2.246,1.454-4.646,1.454-7.202v-77.691h12.736V224.55H803.343z"/>
		<path fill="#FFFFFF" d="M837.319,224.55V76h12.735v148.55H837.319z"/>
		<path fill="#FFFFFF" d="M946.404,224.55l-7.047-10.567c-2.899,3.8-6.524,6.854-10.885,9.17c-4.348,2.312-9.111,3.467-14.288,3.467
			h-3.217c-4.278,0-8.315-0.812-12.112-2.434c-3.809-1.623-7.118-3.846-9.946-6.682c-2.836-2.828-5.063-6.143-6.687-9.943
			c-1.627-3.796-2.436-7.838-2.436-12.121v-1.037c0-4.279,0.809-8.32,2.436-12.121c1.618-3.796,3.851-7.111,6.687-9.943
			c2.828-2.832,6.144-5.06,9.946-6.682c3.797-1.623,7.834-2.434,12.112-2.434h26.938v-16.368c0-2.553-0.481-4.952-1.45-7.199
			c-0.969-2.243-2.276-4.194-3.938-5.854c-1.648-1.657-3.604-2.97-5.853-3.938c-2.246-0.964-4.646-1.45-7.198-1.45h-7.459
			c-2.558,0-4.956,0.486-7.197,1.45c-2.244,0.969-4.191,2.281-5.854,3.938c-1.652,1.657-2.97,3.609-3.938,5.854
			c-0.969,2.247-1.446,4.646-1.446,7.199v3.835l-12.74-2.075v-1.033c0-4.282,0.812-8.324,2.436-12.12
			c1.622-3.801,3.854-7.115,6.687-9.947c2.828-2.833,6.146-5.056,9.938-6.682c3.799-1.619,7.843-2.434,12.12-2.434h7.459
			c4.278,0,8.319,0.815,12.117,2.434c3.8,1.626,7.113,3.85,9.949,6.682c2.828,2.832,5.057,6.146,6.68,9.947
			c1.622,3.796,2.438,7.838,2.438,12.12v76.968H946.404L946.404,224.55z M937.907,173.167H910.97c-2.558,0-4.956,0.486-7.198,1.451
			c-2.242,0.968-4.19,2.296-5.853,3.988c-1.661,1.695-2.971,3.663-3.938,5.905c-0.971,2.247-1.448,4.646-1.448,7.203v4.451
			c0,2.556,0.479,4.956,1.448,7.202c0.971,2.243,2.274,4.195,3.938,5.852c1.656,1.657,3.604,2.97,5.853,3.938
			c2.242,0.964,4.646,1.447,7.198,1.447h8.496c2.553,0,4.952-0.482,7.198-1.447c2.242-0.968,4.198-2.281,5.853-3.938
			c1.661-1.657,2.975-3.609,3.938-5.852c0.969-2.246,1.45-4.646,1.45-7.202L937.907,173.167L937.907,173.167z"/>
		<path fill="#FFFFFF" d="M1014.771,224.55c-3.864,0-7.513-0.724-10.935-2.174c-3.418-1.451-6.389-3.456-8.909-6.009
			c-2.52-2.557-4.521-5.526-6.009-8.91c-1.481-3.383-2.225-7.007-2.225-10.876V130.59h-19.063v-12.116h19.063V92.989l12.735-2.07
			v27.555h26.938v12.116H999.43v66.611c0,2.143,0.398,4.129,1.194,5.955c0.788,1.833,1.879,3.437,3.261,4.818
			c1.387,1.381,3.004,2.472,4.868,3.264c1.866,0.792,3.864,1.189,6.009,1.189h11.604v12.121L1014.771,224.55L1014.771,224.55z"/>
		<path fill="#FFFFFF" d="M1052.996,92.989V76h14.812v16.989H1052.996z M1054.033,224.55V118.474h12.74V224.55H1054.033z"/>
		<path fill="#FFFFFF" d="M1164.93,207.562c-1.623,3.8-3.852,7.115-6.679,9.943c-2.837,2.836-6.149,5.06-9.95,6.682
			c-3.797,1.623-7.838,2.434-12.112,2.434h-8.496c-4.282,0-8.319-0.812-12.116-2.434c-3.805-1.623-7.119-3.846-9.946-6.682
			c-2.837-2.828-5.062-6.143-6.683-9.943c-1.627-3.796-2.438-7.838-2.438-12.121v-47.858c0-4.282,0.812-8.324,2.438-12.12
			c1.619-3.801,3.846-7.115,6.683-9.947c2.827-2.833,6.146-5.056,9.946-6.682c3.797-1.619,7.834-2.434,12.116-2.434h8.496
			c4.274,0,8.315,0.815,12.112,2.434c3.805,1.626,7.114,3.85,9.95,6.682c2.827,2.832,5.056,6.146,6.679,9.947
			c1.622,3.796,2.438,7.838,2.438,12.12v47.858C1167.363,199.724,1166.552,203.765,1164.93,207.562z M1154.622,146.855
			c0-2.553-0.481-4.952-1.449-7.199c-0.97-2.243-2.276-4.194-3.938-5.854c-1.653-1.657-3.608-2.97-5.854-3.938
			c-2.246-0.964-4.646-1.45-7.199-1.45h-8.494c-2.559,0-4.953,0.486-7.195,1.45c-2.247,0.969-4.194,2.281-5.854,3.938
			c-1.661,1.657-2.971,3.609-3.938,5.854c-0.974,2.247-1.45,4.646-1.45,7.199v49.309c0,2.556,0.479,4.956,1.45,7.202
			c0.968,2.243,2.272,4.195,3.938,5.852c1.656,1.657,3.604,2.97,5.854,3.938c2.24,0.964,4.643,1.447,7.195,1.447h8.494
			c2.558,0,4.953-0.482,7.199-1.447c2.243-0.968,4.197-2.281,5.854-3.938c1.661-1.657,2.97-3.609,3.938-5.852
			c0.968-2.246,1.449-4.646,1.449-7.202V146.855z"/>
		<path fill="#FFFFFF" d="M1250.964,224.55v-77.695c0-2.553-0.485-4.952-1.451-7.199c-0.969-2.243-2.28-4.194-3.935-5.854
			c-1.661-1.657-3.612-2.97-5.855-3.938c-2.242-0.964-4.646-1.45-7.197-1.45h-8.488c-2.562,0-4.96,0.486-7.203,1.45
			c-2.241,0.969-4.193,2.281-5.854,3.938c-1.648,1.657-2.97,3.609-3.935,5.854c-0.969,2.247-1.45,4.646-1.45,7.199v77.695h-12.74
			V118.474h4.248l6.938,10.773c2.896-3.938,6.541-7.061,10.931-9.376c4.382-2.312,9.166-3.471,14.353-3.471h3.211
			c4.281,0,8.316,0.815,12.12,2.434c3.797,1.626,7.106,3.85,9.938,6.682s5.062,6.146,6.687,9.947
			c1.623,3.796,2.436,7.838,2.436,12.12v76.968L1250.964,224.55L1250.964,224.55z"/>
		<path fill="#FFFFFF" d="M563.109,377.258c0,4.278-0.865,8.198-2.588,11.757c-1.729,3.562-4.075,6.613-7.049,9.17
			c-2.971,2.562-6.402,4.539-10.308,5.955s-7.995,2.12-12.276,2.12H522.4c-4.283,0-8.377-0.812-12.277-2.434
			c-3.903-1.623-7.32-3.843-10.257-6.688c-2.938-2.819-5.28-6.14-7.042-9.938c-1.76-3.797-2.645-7.838-2.645-12.116v-4.248
			l12.739-2.074v7.043c0,2.561,0.531,4.96,1.604,7.201c1.066,2.243,2.503,4.194,4.301,5.854c1.795,1.649,3.866,2.971,6.217,3.936
			c2.346,0.965,4.799,1.447,7.354,1.447h8.488c2.562,0,5.008-0.376,7.355-1.135c2.347-0.77,4.438-1.854,6.27-3.271
			c1.829-1.416,3.28-3.123,4.354-5.129c1.064-1.997,1.604-4.277,1.604-6.835c0-3.797-0.823-6.903-2.483-9.323
			c-1.657-2.419-3.854-4.438-6.575-6.062c-2.729-1.623-5.836-2.965-9.322-4.034c-3.49-1.071-7.062-2.146-10.725-3.216
			s-7.236-2.295-10.729-3.674c-3.481-1.391-6.594-3.199-9.319-5.441c-2.729-2.242-4.918-5.061-6.574-8.441
			c-1.661-3.385-2.487-7.594-2.487-12.639c0-4.278,0.826-8.196,2.487-11.757c1.656-3.562,3.896-6.613,6.729-9.17
			c2.832-2.559,6.127-4.539,9.896-5.955c3.763-1.416,7.785-2.128,12.063-2.128h7.459c4.282,0,8.323,0.817,12.12,2.435
			c3.796,1.631,7.115,3.854,9.947,6.684c2.827,2.834,5.056,6.146,6.683,9.951c1.618,3.797,2.438,7.838,2.438,12.115v0.413
			l-12.744,2.074v-3.215c0-2.551-0.48-4.953-1.45-7.195c-0.97-2.241-2.273-4.192-3.935-5.854c-1.657-1.652-3.608-2.973-5.854-3.938
			c-2.243-0.964-4.644-1.453-7.198-1.453h-7.459c-2.554,0-4.955,0.385-7.195,1.143c-2.243,0.767-4.195,1.854-5.854,3.262
			c-1.657,1.424-2.971,3.13-3.938,5.128c-0.973,2.006-1.451,4.287-1.451,6.844c0,3.658,0.831,6.646,2.488,8.955
			c1.653,2.319,3.85,4.271,6.576,5.854c2.728,1.593,5.833,2.917,9.321,3.983c3.486,1.072,7.042,2.178,10.67,3.314
			c3.625,1.141,7.185,2.436,10.67,3.889c3.486,1.446,6.599,3.312,9.323,5.588c2.729,2.28,4.922,5.129,6.579,8.555
			C562.282,367.989,563.109,372.214,563.109,377.258z"/>
		<path fill="#FFFFFF" d="M626.196,404.194c-3.865,0-7.509-0.729-10.931-2.179c-3.421-1.451-6.392-3.461-8.905-6.01
			c-2.521-2.557-4.522-5.521-6.013-8.908c-1.48-3.385-2.229-7.013-2.229-10.877v-65.996h-19.062V298.11h19.062v-25.479l12.74-2.072
			v27.556h26.94v12.117h-26.937v66.611c0,2.146,0.396,4.126,1.189,5.955c0.792,1.829,1.879,3.438,3.266,4.813
			c1.381,1.386,3.004,2.473,4.863,3.27c1.868,0.788,3.869,1.188,6.012,1.188h11.604v12.123L626.196,404.194L626.196,404.194z"/>
		<path fill="#FFFFFF" d="M727.821,404.194l-7.042-10.57c-2.899,3.804-6.527,6.856-10.876,9.169
			c-4.354,2.312-9.116,3.468-14.3,3.468h-3.207c-4.285,0-8.327-0.812-12.123-2.434c-3.806-1.623-7.114-3.844-9.943-6.688
			c-2.836-2.819-5.062-6.139-6.682-9.938c-1.627-3.796-2.438-7.839-2.438-12.116v-1.041c0-4.276,0.812-8.319,2.438-12.116
			c1.613-3.797,3.846-7.106,6.682-9.938c2.829-2.832,6.144-5.062,9.943-6.688c3.796-1.621,7.838-2.435,12.123-2.435h26.933v-16.372
			c0-2.549-0.485-4.953-1.449-7.195c-0.97-2.24-2.28-4.191-3.936-5.854c-1.661-1.653-3.612-2.973-5.854-3.938
			c-2.242-0.964-4.646-1.452-7.199-1.452h-7.459c-2.557,0-4.951,0.488-7.197,1.452c-2.243,0.966-4.194,2.281-5.854,3.938
			c-1.655,1.66-2.971,3.611-3.936,5.854c-0.97,2.242-1.45,4.646-1.45,7.195v3.834l-12.744-2.074v-1.031
			c0-4.276,0.813-8.317,2.438-12.115c1.623-3.808,3.852-7.117,6.685-9.95c2.832-2.832,6.146-5.054,9.946-6.685
			c3.796-1.613,7.838-2.436,12.117-2.436h7.459c4.281,0,8.318,0.818,12.119,2.436c3.799,1.631,7.109,3.853,9.941,6.685
			c2.832,2.833,5.061,6.146,6.684,9.95c1.623,3.797,2.438,7.838,2.438,12.115v76.974L727.821,404.194L727.821,404.194z
			 M719.328,352.811h-26.932c-2.562,0-4.965,0.481-7.202,1.446c-2.247,0.976-4.193,2.296-5.854,3.988
			c-1.657,1.698-2.971,3.666-3.936,5.907c-0.973,2.238-1.45,4.646-1.45,7.203v4.442c0,2.562,0.479,4.96,1.45,7.202
			c0.965,2.243,2.272,4.194,3.936,5.855c1.661,1.647,3.607,2.97,5.854,3.935c2.237,0.965,4.643,1.447,7.202,1.447h8.487
			c2.558,0,4.957-0.482,7.199-1.447c2.241-0.965,4.193-2.28,5.854-3.935c1.65-1.661,2.968-3.612,3.938-5.855
			c0.964-2.242,1.449-4.646,1.449-7.202L719.328,352.811L719.328,352.811z"/>
		<path fill="#FFFFFF" d="M796.193,404.194c-3.869,0-7.518-0.729-10.932-2.179c-3.421-1.451-6.392-3.461-8.904-6.01
			c-2.526-2.557-4.523-5.521-6.014-8.908c-1.48-3.385-2.229-7.013-2.229-10.877v-65.996h-19.062V298.11h19.062v-25.479l12.74-2.072
			v27.556h26.933v12.117h-26.93v66.611c0,2.146,0.395,4.126,1.188,5.955c0.796,1.829,1.883,3.438,3.269,4.813
			c1.383,1.386,3.006,2.473,4.864,3.27c1.864,0.788,3.869,1.188,6.014,1.188h11.6v12.123L796.193,404.194L796.193,404.194z"/>
		<path fill="#FFFFFF" d="M834.419,272.632v-16.987h14.813v16.987H834.419z M835.455,404.194V298.113h12.74v106.083L835.455,404.194
			L835.455,404.194z"/>
		<path fill="#FFFFFF" d="M946.352,387.201c-1.623,3.805-3.851,7.118-6.683,9.938c-2.832,2.845-6.146,5.062-9.942,6.688
			c-3.802,1.622-7.839,2.434-12.117,2.434h-8.492c-4.286,0-8.327-0.812-12.124-2.434c-3.796-1.623-7.109-3.844-9.941-6.688
			c-2.832-2.819-5.061-6.139-6.684-9.938c-1.623-3.796-2.438-7.839-2.438-12.116v-47.86c0-4.276,0.813-8.317,2.438-12.115
			c1.623-3.808,3.852-7.117,6.684-9.95c2.831-2.832,6.146-5.054,9.941-6.685c3.797-1.613,7.838-2.436,12.124-2.436h8.492
			c4.278,0,8.315,0.818,12.117,2.436c3.801,1.631,7.11,3.853,9.942,6.685c2.831,2.833,5.06,6.146,6.683,9.95
			c1.622,3.797,2.438,7.838,2.438,12.115v47.86C948.783,379.363,947.974,383.405,946.352,387.201z M936.044,326.496
			c0-2.549-0.485-4.953-1.45-7.195c-0.968-2.24-2.281-4.191-3.936-5.854c-1.661-1.653-3.611-2.973-5.854-3.938
			c-2.241-0.964-4.646-1.452-7.194-1.452h-8.492c-2.562,0-4.96,0.488-7.202,1.452c-2.242,0.966-4.193,2.281-5.854,3.938
			c-1.648,1.66-2.97,3.611-3.936,5.854c-0.968,2.242-1.449,4.646-1.449,7.195v49.311c0,2.561,0.481,4.958,1.449,7.2
			c0.966,2.243,2.281,4.194,3.936,5.855c1.661,1.647,3.612,2.97,5.854,3.935c2.242,0.966,4.646,1.447,7.202,1.447h8.492
			c2.554,0,4.955-0.481,7.194-1.447c2.243-0.965,4.193-2.28,5.854-3.935c1.648-1.661,2.968-3.612,3.936-5.855
			c0.965-2.242,1.45-4.646,1.45-7.2V326.496z"/>
		<path fill="#FFFFFF" d="M1032.385,404.194v-77.698c0-2.549-0.479-4.953-1.449-7.195c-0.97-2.24-2.273-4.191-3.938-5.854
			c-1.652-1.653-3.608-2.973-5.854-3.938c-2.245-0.964-4.646-1.452-7.197-1.452h-8.496c-2.562,0-4.956,0.488-7.198,1.452
			c-2.246,0.966-4.192,2.281-5.853,3.938c-1.661,1.66-2.974,3.611-3.938,5.854c-0.97,2.242-1.451,4.646-1.451,7.195v77.698h-12.735
			V298.113h4.239l6.942,10.773c2.9-3.938,6.545-7.062,10.931-9.375c4.391-2.312,9.17-3.477,14.349-3.477h3.215
			c4.278,0,8.317,0.816,12.117,2.436c3.8,1.629,7.11,3.853,9.947,6.684c2.826,2.834,5.059,6.146,6.682,9.951
			c1.622,3.795,2.435,7.838,2.435,12.113v76.978L1032.385,404.194L1032.385,404.194z"/>
	</g>
</g>
<g id="Layer_3">
</g>
<g enable-background="new    ">
	<path d="M243.066,458.765h-20.795v-1.372h20.795V458.765z"/>
	<path d="M263.861,458.765h-20.795v-1.372h20.795V458.765z"/>
	<path d="M347.044,458.765h-20.796v-1.372h20.796V458.765z"/>
	<path d="M367.839,458.765h-20.796v-1.372h20.796V458.765z"/>
</g>
<g enable-background="new    ">
	<path fill="none" stroke="#8DC63F" stroke-width="3" d="M243.066,458.765h-20.795v-1.372h20.795V458.765z"/>
	<path fill="none" stroke="#8DC63F" stroke-width="3" d="M263.861,458.765h-20.795v-1.372h20.795V458.765z"/>
	<path fill="none" stroke="#8DC63F" stroke-width="3" d="M347.044,458.765h-20.796v-1.372h20.796V458.765z"/>
	<path fill="none" stroke="#8DC63F" stroke-width="3" d="M367.839,458.765h-20.796v-1.372h20.796V458.765z"/>
</g>
<g enable-background="new    ">
	<path fill="#00FFFF" d="M492.612,458.765h-20.796v-1.372h20.796V458.765z"/>
	<path fill="#00FFFF" d="M513.408,458.765h-20.796v-1.372h20.796V458.765z"/>
	<path fill="#00FFFF" d="M534.203,458.765h-20.796v-1.372h20.796V458.765z"/>
	<path fill="#00FFFF" d="M554.999,458.765h-20.796v-1.372h20.796V458.765z"/>
	<path fill="#00FFFF" d="M575.794,458.765h-20.796v-1.372h20.796V458.765z"/>
	<path fill="#00FFFF" d="M596.59,458.765h-20.796v-1.372h20.796V458.765z"/>
	<path fill="#00FFFF" d="M638.181,458.765h-20.796v-1.372h20.796V458.765z"/>
	<path fill="#00FFFF" d="M658.976,458.765H638.18v-1.372h20.796V458.765z"/>
	<path fill="#00FFFF" d="M679.771,458.765h-20.796v-1.372h20.796V458.765z"/>
	<path fill="#00FFFF" d="M700.566,458.765h-20.796v-1.372h20.796V458.765z"/>
	<path fill="#00FFFF" d="M721.362,458.765h-20.796v-1.372h20.796V458.765z"/>
	<path fill="#00FFFF" d="M762.953,458.765h-20.796v-1.372h20.796V458.765z"/>
	<path fill="#00FFFF" d="M783.748,458.765h-20.796v-1.372h20.796V458.765z"/>
	<path fill="#00FFFF" d="M804.544,458.765h-20.796v-1.372h20.796V458.765z"/>
	<path fill="#00FFFF" d="M825.339,458.765h-20.796v-1.372h20.796V458.765z"/>
	<path fill="#00FFFF" d="M846.135,458.765h-20.796v-1.372h20.796V458.765z"/>
	<path fill="#00FFFF" d="M866.931,458.765h-20.796v-1.372h20.796V458.765z"/>
	<path fill="#00FFFF" d="M887.726,458.765H866.93v-1.372h20.796V458.765z"/>
	<path fill="#00FFFF" d="M908.521,458.765h-20.796v-1.372h20.796V458.765z"/>
	<path fill="#00FFFF" d="M929.316,458.765h-20.796v-1.372h20.796V458.765z"/>
	<path fill="#00FFFF" d="M950.112,458.765h-20.796v-1.372h20.796V458.765z"/>
	<path fill="#00FFFF" d="M970.907,458.765h-20.796v-1.372h20.796V458.765z"/>
	<path fill="#00FFFF" d="M1012.498,458.765h-20.796v-1.372h20.796V458.765z"/>
	<path fill="#00FFFF" d="M1033.294,458.765h-20.796v-1.372h20.796V458.765z"/>
	<path fill="#00FFFF" d="M1054.089,458.765h-20.796v-1.372h20.796V458.765z"/>
	<path fill="#00FFFF" d="M1074.885,458.765h-20.796v-1.372h20.796V458.765z"/>
	<path fill="#00FFFF" d="M1095.68,458.765h-20.796v-1.372h20.796V458.765z"/>
</g>
<g enable-background="new    ">
	<path fill="none" stroke="#00FFFF" stroke-width="3" d="M492.612,458.765h-20.796v-1.372h20.796V458.765z"/>
	<path fill="none" stroke="#00FFFF" stroke-width="3" d="M513.408,458.765h-20.796v-1.372h20.796V458.765z"/>
	<path fill="none" stroke="#00FFFF" stroke-width="3" d="M534.203,458.765h-20.796v-1.372h20.796V458.765z"/>
	<path fill="none" stroke="#00FFFF" stroke-width="3" d="M554.999,458.765h-20.796v-1.372h20.796V458.765z"/>
	<path fill="none" stroke="#00FFFF" stroke-width="3" d="M575.794,458.765h-20.796v-1.372h20.796V458.765z"/>
	<path fill="none" stroke="#00FFFF" stroke-width="3" d="M596.59,458.765h-20.796v-1.372h20.796V458.765z"/>
	<path fill="none" stroke="#00FFFF" stroke-width="3" d="M638.181,458.765h-20.796v-1.372h20.796V458.765z"/>
	<path fill="none" stroke="#00FFFF" stroke-width="3" d="M658.976,458.765H638.18v-1.372h20.796V458.765z"/>
	<path fill="none" stroke="#00FFFF" stroke-width="3" d="M679.771,458.765h-20.796v-1.372h20.796V458.765z"/>
	<path fill="none" stroke="#00FFFF" stroke-width="3" d="M700.566,458.765h-20.796v-1.372h20.796V458.765z"/>
	<path fill="none" stroke="#00FFFF" stroke-width="3" d="M721.362,458.765h-20.796v-1.372h20.796V458.765z"/>
	<path fill="none" stroke="#00FFFF" stroke-width="3" d="M762.953,458.765h-20.796v-1.372h20.796V458.765z"/>
	<path fill="none" stroke="#00FFFF" stroke-width="3" d="M783.748,458.765h-20.796v-1.372h20.796V458.765z"/>
	<path fill="none" stroke="#00FFFF" stroke-width="3" d="M804.544,458.765h-20.796v-1.372h20.796V458.765z"/>
	<path fill="none" stroke="#00FFFF" stroke-width="3" d="M825.339,458.765h-20.796v-1.372h20.796V458.765z"/>
	<path fill="none" stroke="#00FFFF" stroke-width="3" d="M846.135,458.765h-20.796v-1.372h20.796V458.765z"/>
	<path fill="none" stroke="#00FFFF" stroke-width="3" d="M866.931,458.765h-20.796v-1.372h20.796V458.765z"/>
	<path fill="none" stroke="#00FFFF" stroke-width="3" d="M887.726,458.765H866.93v-1.372h20.796V458.765z"/>
	<path fill="none" stroke="#00FFFF" stroke-width="3" d="M908.521,458.765h-20.796v-1.372h20.796V458.765z"/>
	<path fill="none" stroke="#00FFFF" stroke-width="3" d="M929.316,458.765h-20.796v-1.372h20.796V458.765z"/>
	<path fill="none" stroke="#00FFFF" stroke-width="3" d="M950.112,458.765h-20.796v-1.372h20.796V458.765z"/>
	<path fill="none" stroke="#00FFFF" stroke-width="3" d="M970.907,458.765h-20.796v-1.372h20.796V458.765z"/>
	<path fill="none" stroke="#00FFFF" stroke-width="3" d="M1012.498,458.765h-20.796v-1.372h20.796V458.765z"/>
	<path fill="none" stroke="#00FFFF" stroke-width="3" d="M1033.294,458.765h-20.796v-1.372h20.796V458.765z"/>
	<path fill="none" stroke="#00FFFF" stroke-width="3" d="M1054.089,458.765h-20.796v-1.372h20.796V458.765z"/>
	<path fill="none" stroke="#00FFFF" stroke-width="3" d="M1074.885,458.765h-20.796v-1.372h20.796V458.765z"/>
	<path fill="none" stroke="#00FFFF" stroke-width="3" d="M1095.68,458.765h-20.796v-1.372h20.796V458.765z"/>
</g>
<g enable-background="new    ">
	<path d="M240.96,480.329h-3.065l-12.669-15.516h3.065L240.96,480.329z"/>
	<path d="M282.551,480.329h-3.065l-12.669-15.516h3.065L282.551,480.329z"/>
	<path d="M323.312,464.813l-12.67,15.516h-3.065l12.669-15.516H323.312z"/>
	<path d="M364.902,464.813l-12.67,15.516h-3.065l12.669-15.516H364.902z"/>
</g>
<g enable-background="new    ">
	<path fill="none" stroke="#8DC63F" stroke-width="3" d="M240.96,480.329h-3.065l-12.669-15.516h3.065L240.96,480.329z"/>
	<path fill="none" stroke="#8DC63F" stroke-width="3" d="M282.551,480.329h-3.065l-12.669-15.516h3.065L282.551,480.329z"/>
	<path fill="none" stroke="#8DC63F" stroke-width="3" d="M323.312,464.813l-12.67,15.516h-3.065l12.669-15.516H323.312z"/>
	<path fill="none" stroke="#8DC63F" stroke-width="3" d="M364.902,464.813l-12.67,15.516h-3.065l12.669-15.516H364.902z"/>
</g>
<g enable-background="new    ">
	<path fill="#00FFFF" d="M483.729,482.188H480.7v-19.519h3.028V482.188z"/>
	<path fill="#00FFFF" d="M534.203,482.188h-20.796v-1.372h20.796V482.188z"/>
	<path fill="#00FFFF" d="M554.999,482.188h-20.796v-1.372h20.796V482.188z"/>
	<path fill="#00FFFF" d="M575.794,482.188h-20.796v-1.372h20.796V482.188z"/>
	<path fill="#00FFFF" d="M615.279,480.329h-3.066l-12.669-15.516h3.065L615.279,480.329z"/>
	<path fill="#00FFFF" d="M679.771,482.188h-20.796v-1.372h20.796V482.188z"/>
	<path fill="#00FFFF" d="M700.566,482.188h-20.796v-1.372h20.796V482.188z"/>
	<path fill="#00FFFF" d="M721.362,482.188h-20.796v-1.372h20.796V482.188z"/>
	<path fill="#00FFFF" d="M733.273,482.188h-3.028v-19.519h3.028V482.188z"/>
	<path fill="#00FFFF" d="M762.953,482.188h-20.796v-1.372h20.796V482.188z"/>
	<path fill="#00FFFF" d="M846.135,482.188h-20.796v-1.372h20.796V482.188z"/>
	<path fill="#00FFFF" d="M858.047,482.188h-3.028v-19.519h3.028V482.188z"/>
	<path fill="#00FFFF" d="M908.521,482.188h-20.796v-1.372h20.796V482.188z"/>
	<path fill="#00FFFF" d="M929.316,482.188h-20.796v-1.372h20.796V482.188z"/>
	<path fill="#00FFFF" d="M950.112,482.188h-20.796v-1.372h20.796V482.188z"/>
	<path fill="#00FFFF" d="M989.598,480.329h-3.066l-12.669-15.516h3.065L989.598,480.329z"/>
	<path fill="#00FFFF" d="M1054.089,482.188h-20.796v-1.372h20.796V482.188z"/>
	<path fill="#00FFFF" d="M1107.592,482.188h-3.028v-19.519h3.028V482.188z"/>
</g>
<g enable-background="new    ">
	<path fill="none" stroke="#00FFFF" stroke-width="3" d="M483.729,482.188H480.7v-19.519h3.028V482.188z"/>
	<path fill="none" stroke="#00FFFF" stroke-width="3" d="M534.203,482.188h-20.796v-1.372h20.796V482.188z"/>
	<path fill="none" stroke="#00FFFF" stroke-width="3" d="M554.999,482.188h-20.796v-1.372h20.796V482.188z"/>
	<path fill="none" stroke="#00FFFF" stroke-width="3" d="M575.794,482.188h-20.796v-1.372h20.796V482.188z"/>
	<path fill="none" stroke="#00FFFF" stroke-width="3" d="M615.279,480.329h-3.066l-12.669-15.516h3.065L615.279,480.329z"/>
	<path fill="none" stroke="#00FFFF" stroke-width="3" d="M679.771,482.188h-20.796v-1.372h20.796V482.188z"/>
	<path fill="none" stroke="#00FFFF" stroke-width="3" d="M700.566,482.188h-20.796v-1.372h20.796V482.188z"/>
	<path fill="none" stroke="#00FFFF" stroke-width="3" d="M721.362,482.188h-20.796v-1.372h20.796V482.188z"/>
	<path fill="none" stroke="#00FFFF" stroke-width="3" d="M733.273,482.188h-3.028v-19.519h3.028V482.188z"/>
	<path fill="none" stroke="#00FFFF" stroke-width="3" d="M762.953,482.188h-20.796v-1.372h20.796V482.188z"/>
	<path fill="none" stroke="#00FFFF" stroke-width="3" d="M846.135,482.188h-20.796v-1.372h20.796V482.188z"/>
	<path fill="none" stroke="#00FFFF" stroke-width="3" d="M858.047,482.188h-3.028v-19.519h3.028V482.188z"/>
	<path fill="none" stroke="#00FFFF" stroke-width="3" d="M908.521,482.188h-20.796v-1.372h20.796V482.188z"/>
	<path fill="none" stroke="#00FFFF" stroke-width="3" d="M929.316,482.188h-20.796v-1.372h20.796V482.188z"/>
	<path fill="none" stroke="#00FFFF" stroke-width="3" d="M950.112,482.188h-20.796v-1.372h20.796V482.188z"/>
	<path fill="none" stroke="#00FFFF" stroke-width="3" d="M989.598,480.329h-3.066l-12.669-15.516h3.065L989.598,480.329z"/>
	<path fill="none" stroke="#00FFFF" stroke-width="3" d="M1054.089,482.188h-20.796v-1.372h20.796V482.188z"/>
	<path fill="none" stroke="#00FFFF" stroke-width="3" d="M1107.592,482.188h-3.028v-19.519h3.028V482.188z"/>
</g>
<g enable-background="new    ">
	<path d="M261.756,503.751h-3.065l-12.669-15.516h3.065L261.756,503.751z"/>
	<path d="M305.378,489.246l-8.2,12.456h-4.432l-8.016-12.456h3.712l5.208,8.396l1.478,2.458l1.514-2.458l5.227-8.396H305.378z"/>
	<path d="M344.107,488.235l-12.67,15.516h-3.065l12.669-15.516H344.107z"/>
</g>
<g enable-background="new    ">
	<path fill="none" stroke="#8DC63F" stroke-width="3" d="M261.756,503.751h-3.065l-12.669-15.516h3.065L261.756,503.751z"/>
	<path fill="none" stroke="#8DC63F" stroke-width="3" d="M305.378,489.246l-8.2,12.456h-4.432l-8.016-12.456h3.712l5.208,8.396
		l1.478,2.458l1.514-2.458l5.227-8.396H305.378z"/>
	<path fill="none" stroke="#8DC63F" stroke-width="3" d="M344.107,488.235l-12.67,15.516h-3.065l12.669-15.516H344.107z"/>
</g>
<g enable-background="new    ">
	<path fill="#FF6400" d="M388.636,505.609H367.84v-1.372h20.796V505.609z"/>
	<path fill="#FF6400" d="M409.432,505.609h-20.796v-1.372h20.796V505.609z"/>
	<path fill="#FF6400" d="M430.227,505.609h-20.796v-1.372h20.796V505.609z"/>
	<path fill="#FF6400" d="M451.022,505.609h-20.796v-1.372h20.796V505.609z"/>
</g>
<g enable-background="new    ">
	<path fill="none" stroke="#FF6400" stroke-width="3" d="M388.636,505.609H367.84v-1.372h20.796V505.609z"/>
	<path fill="none" stroke="#FF6400" stroke-width="3" d="M409.432,505.609h-20.796v-1.372h20.796V505.609z"/>
	<path fill="none" stroke="#FF6400" stroke-width="3" d="M430.227,505.609h-20.796v-1.372h20.796V505.609z"/>
	<path fill="none" stroke="#FF6400" stroke-width="3" d="M451.022,505.609h-20.796v-1.372h20.796V505.609z"/>
</g>
<g enable-background="new    ">
</g>
<g enable-background="new    ">
</g>
<g enable-background="new    ">
	<path fill="#00FFFF" d="M483.729,505.609H480.7v-19.519h3.028V505.609z"/>
	<path fill="#00FFFF" d="M525.319,505.609h-3.028v-19.519h3.028V505.609z"/>
	<path fill="#00FFFF" d="M554.999,505.609h-20.796v-1.372h20.796V505.609z"/>
	<path fill="#00FFFF" d="M572.857,488.235l-12.67,15.516h-3.065l12.669-15.516H572.857z"/>
	<path fill="#00FFFF" d="M614.448,488.235l-12.67,15.516h-3.065l12.669-15.516H614.448z"/>
	<path fill="#00FFFF" d="M650.092,505.609h-3.028v-19.519h3.028V505.609z"/>
	<path fill="#00FFFF" d="M679.771,505.609h-20.796v-1.372h20.796V505.609z"/>
	<path fill="#00FFFF" d="M700.566,505.609h-20.796v-1.372h20.796V505.609z"/>
	<path fill="#00FFFF" d="M774.864,505.609h-3.028v-19.519h3.028V505.609z"/>
	<path fill="#00FFFF" d="M816.455,505.609h-3.028v-19.519h3.028V505.609z"/>
	<path fill="#00FFFF" d="M858.047,505.609h-3.028v-19.519h3.028V505.609z"/>
	<path fill="#00FFFF" d="M899.638,505.609h-3.028v-19.519h3.028V505.609z"/>
	<path fill="#00FFFF" d="M929.316,505.609h-20.796v-1.372h20.796V505.609z"/>
	<path fill="#00FFFF" d="M947.176,488.235l-12.67,15.516h-3.065l12.669-15.516H947.176z"/>
	<path fill="#00FFFF" d="M988.767,488.235l-12.67,15.516h-3.065l12.669-15.516H988.767z"/>
	<path fill="#00FFFF" d="M1024.41,505.609h-3.028v-19.519h3.028V505.609z"/>
	<path fill="#00FFFF" d="M1066.001,505.609h-3.028v-19.519h3.028V505.609z"/>
	<path fill="#00FFFF" d="M1107.592,505.609h-3.028v-19.519h3.028V505.609z"/>
</g>
<g enable-background="new    ">
	<path fill="none" stroke="#00FFFF" stroke-width="3" d="M483.729,505.609H480.7v-19.519h3.028V505.609z"/>
	<path fill="none" stroke="#00FFFF" stroke-width="3" d="M525.319,505.609h-3.028v-19.519h3.028V505.609z"/>
	<path fill="none" stroke="#00FFFF" stroke-width="3" d="M554.999,505.609h-20.796v-1.372h20.796V505.609z"/>
	<path fill="none" stroke="#00FFFF" stroke-width="3" d="M572.857,488.235l-12.67,15.516h-3.065l12.669-15.516H572.857z"/>
	<path fill="none" stroke="#00FFFF" stroke-width="3" d="M614.448,488.235l-12.67,15.516h-3.065l12.669-15.516H614.448z"/>
	<path fill="none" stroke="#00FFFF" stroke-width="3" d="M650.092,505.609h-3.028v-19.519h3.028V505.609z"/>
	<path fill="none" stroke="#00FFFF" stroke-width="3" d="M679.771,505.609h-20.796v-1.372h20.796V505.609z"/>
	<path fill="none" stroke="#00FFFF" stroke-width="3" d="M700.566,505.609h-20.796v-1.372h20.796V505.609z"/>
	<path fill="none" stroke="#00FFFF" stroke-width="3" d="M774.864,505.609h-3.028v-19.519h3.028V505.609z"/>
	<path fill="none" stroke="#00FFFF" stroke-width="3" d="M816.455,505.609h-3.028v-19.519h3.028V505.609z"/>
	<path fill="none" stroke="#00FFFF" stroke-width="3" d="M858.047,505.609h-3.028v-19.519h3.028V505.609z"/>
	<path fill="none" stroke="#00FFFF" stroke-width="3" d="M899.638,505.609h-3.028v-19.519h3.028V505.609z"/>
	<path fill="none" stroke="#00FFFF" stroke-width="3" d="M929.316,505.609h-20.796v-1.372h20.796V505.609z"/>
	<path fill="none" stroke="#00FFFF" stroke-width="3" d="M947.176,488.235l-12.67,15.516h-3.065l12.669-15.516H947.176z"/>
	<path fill="none" stroke="#00FFFF" stroke-width="3" d="M988.767,488.235l-12.67,15.516h-3.065l12.669-15.516H988.767z"/>
	<path fill="none" stroke="#00FFFF" stroke-width="3" d="M1024.41,505.609h-3.028v-19.519h3.028V505.609z"/>
	<path fill="none" stroke="#00FFFF" stroke-width="3" d="M1066.001,505.609h-3.028v-19.519h3.028V505.609z"/>
	<path fill="none" stroke="#00FFFF" stroke-width="3" d="M1107.592,505.609h-3.028v-19.519h3.028V505.609z"/>
</g>
<g enable-background="new    ">
	<path d="M260.925,511.658l-12.669,15.516h-3.065l12.669-15.516H260.925z"/>
	<path d="M344.938,527.174h-3.066l-12.669-15.516h3.065L344.938,527.174z"/>
</g>
<g enable-background="new    ">
	<path fill="none" stroke="#8DC63F" stroke-width="3" d="M260.925,511.658l-12.669,15.516h-3.065l12.669-15.516H260.925z"/>
	<path fill="none" stroke="#8DC63F" stroke-width="3" d="M344.938,527.174h-3.066l-12.669-15.516h3.065L344.938,527.174z"/>
</g>
<g enable-background="new    ">
	<path fill="#FF6400" d="M358.955,529.032h-3.028v-19.519h3.028V529.032z"/>
	<path fill="#FF6400" d="M388.635,529.032h-20.796v-1.372h20.796V529.032z"/>
	<path fill="#FF6400" d="M409.43,529.032h-20.796v-1.372h20.796V529.032z"/>
	<path fill="#FF6400" d="M430.226,529.032H409.43v-1.372h20.796V529.032z"/>
	<path fill="#FF6400" d="M451.021,529.032h-20.796v-1.372h20.796V529.032z"/>
	<path fill="#FF6400" d="M462.933,529.032h-3.028v-19.519h3.028V529.032z"/>
</g>
<g enable-background="new    ">
	<path fill="none" stroke="#FF6400" stroke-width="3" d="M358.955,529.032h-3.028v-19.519h3.028V529.032z"/>
	<path fill="none" stroke="#FF6400" stroke-width="3" d="M388.635,529.032h-20.796v-1.372h20.796V529.032z"/>
	<path fill="none" stroke="#FF6400" stroke-width="3" d="M409.43,529.032h-20.796v-1.372h20.796V529.032z"/>
	<path fill="none" stroke="#FF6400" stroke-width="3" d="M430.226,529.032H409.43v-1.372h20.796V529.032z"/>
	<path fill="none" stroke="#FF6400" stroke-width="3" d="M451.021,529.032h-20.796v-1.372h20.796V529.032z"/>
	<path fill="none" stroke="#FF6400" stroke-width="3" d="M462.933,529.032h-3.028v-19.519h3.028V529.032z"/>
</g>
<g enable-background="new    ">
	<path fill="#00FFFF" d="M483.729,529.032H480.7v-19.519h3.028V529.032z"/>
	<path fill="#00FFFF" d="M593.653,511.658l-12.67,15.516h-3.065l12.669-15.516H593.653z"/>
	<path fill="#00FFFF" d="M608.501,529.032h-3.028v-19.519h3.028V529.032z"/>
	<path fill="#00FFFF" d="M679.771,529.032h-20.796v-1.372h20.796V529.032z"/>
	<path fill="#00FFFF" d="M700.566,529.032h-20.796v-1.372h20.796V529.032z"/>
	<path fill="#00FFFF" d="M712.479,529.032h-3.028v-19.519h3.028V529.032z"/>
	<path fill="#00FFFF" d="M774.864,529.032h-3.028v-19.519h3.028V529.032z"/>
	<path fill="#00FFFF" d="M816.455,529.032h-3.028v-19.519h3.028V529.032z"/>
	<path fill="#00FFFF" d="M858.047,529.032h-3.028v-19.519h3.028V529.032z"/>
	<path fill="#00FFFF" d="M967.971,511.658l-12.67,15.516h-3.065l12.669-15.516H967.971z"/>
	<path fill="#00FFFF" d="M982.819,529.032h-3.028v-19.519h3.028V529.032z"/>
	<path fill="#00FFFF" d="M1024.41,529.032h-3.028v-19.519h3.028V529.032z"/>
	<path fill="#00FFFF" d="M1066.001,529.032h-3.028v-19.519h3.028V529.032z"/>
	<path fill="#00FFFF" d="M1107.592,529.032h-3.028v-19.519h3.028V529.032z"/>
</g>
<g enable-background="new    ">
	<path fill="none" stroke="#00FFFF" stroke-width="3" d="M483.729,529.032H480.7v-19.519h3.028V529.032z"/>
	<path fill="none" stroke="#00FFFF" stroke-width="3" d="M593.653,511.658l-12.67,15.516h-3.065l12.669-15.516H593.653z"/>
	<path fill="none" stroke="#00FFFF" stroke-width="3" d="M608.501,529.032h-3.028v-19.519h3.028V529.032z"/>
	<path fill="none" stroke="#00FFFF" stroke-width="3" d="M679.771,529.032h-20.796v-1.372h20.796V529.032z"/>
	<path fill="none" stroke="#00FFFF" stroke-width="3" d="M700.566,529.032h-20.796v-1.372h20.796V529.032z"/>
	<path fill="none" stroke="#00FFFF" stroke-width="3" d="M712.479,529.032h-3.028v-19.519h3.028V529.032z"/>
	<path fill="none" stroke="#00FFFF" stroke-width="3" d="M774.864,529.032h-3.028v-19.519h3.028V529.032z"/>
	<path fill="none" stroke="#00FFFF" stroke-width="3" d="M816.455,529.032h-3.028v-19.519h3.028V529.032z"/>
	<path fill="none" stroke="#00FFFF" stroke-width="3" d="M858.047,529.032h-3.028v-19.519h3.028V529.032z"/>
	<path fill="none" stroke="#00FFFF" stroke-width="3" d="M967.971,511.658l-12.67,15.516h-3.065l12.669-15.516H967.971z"/>
	<path fill="none" stroke="#00FFFF" stroke-width="3" d="M982.819,529.032h-3.028v-19.519h3.028V529.032z"/>
	<path fill="none" stroke="#00FFFF" stroke-width="3" d="M1024.41,529.032h-3.028v-19.519h3.028V529.032z"/>
	<path fill="none" stroke="#00FFFF" stroke-width="3" d="M1066.001,529.032h-3.028v-19.519h3.028V529.032z"/>
	<path fill="none" stroke="#00FFFF" stroke-width="3" d="M1107.592,529.032h-3.028v-19.519h3.028V529.032z"/>
</g>
<g enable-background="new    ">
	<path d="M240.129,535.08l-12.669,15.516h-3.065l12.669-15.516H240.129z"/>
	<path d="M281.72,535.08l-12.669,15.516h-3.065l12.669-15.516H281.72z"/>
	<path d="M303.384,542.181h-3.213l-5.337-4.775l-5.023,4.775h-2.918l6.759-6.09h2.623L303.384,542.181z"/>
	<path d="M324.143,550.596h-3.066l-12.669-15.516h3.065L324.143,550.596z"/>
	<path d="M365.733,550.596h-3.066l-12.669-15.516h3.065L365.733,550.596z"/>
</g>
<g enable-background="new    ">
	<path fill="none" stroke="#8DC63F" stroke-width="3" d="M240.129,535.08l-12.669,15.516h-3.065l12.669-15.516H240.129z"/>
	<path fill="none" stroke="#8DC63F" stroke-width="3" d="M281.72,535.08l-12.669,15.516h-3.065l12.669-15.516H281.72z"/>
	<path fill="none" stroke="#8DC63F" stroke-width="3" d="M303.384,542.181h-3.213l-5.337-4.775l-5.023,4.775h-2.918l6.759-6.09
		h2.623L303.384,542.181z"/>
	<path fill="none" stroke="#8DC63F" stroke-width="3" d="M324.143,550.596h-3.066l-12.669-15.516h3.065L324.143,550.596z"/>
	<path fill="none" stroke="#8DC63F" stroke-width="3" d="M365.733,550.596h-3.066l-12.669-15.516h3.065L365.733,550.596z"/>
</g>
<g enable-background="new    ">
	<path fill="#00FFFF" d="M483.729,552.454H480.7v-19.519h3.028V552.454z"/>
	<path fill="#00FFFF" d="M525.319,552.454h-3.028v-19.519h3.028V552.454z"/>
	<path fill="#00FFFF" d="M552.894,550.596h-3.066l-12.669-15.516h3.065L552.894,550.596z"/>
	<path fill="#00FFFF" d="M594.484,550.596h-3.066l-12.669-15.516h3.065L594.484,550.596z"/>
	<path fill="#00FFFF" d="M608.501,552.454h-3.028v-19.519h3.028V552.454z"/>
	<path fill="#00FFFF" d="M650.092,552.454h-3.028v-19.519h3.028V552.454z"/>
	<path fill="#00FFFF" d="M679.771,552.454h-20.796v-1.372h20.796V552.454z"/>
	<path fill="#00FFFF" d="M700.566,552.454h-20.796v-1.372h20.796V552.454z"/>
	<path fill="#00FFFF" d="M721.362,552.454h-20.796v-1.372h20.796V552.454z"/>
	<path fill="#00FFFF" d="M774.864,552.454h-3.028v-19.519h3.028V552.454z"/>
	<path fill="#00FFFF" d="M816.455,552.454h-3.028v-19.519h3.028V552.454z"/>
	<path fill="#00FFFF" d="M858.047,552.454h-3.028v-19.519h3.028V552.454z"/>
	<path fill="#00FFFF" d="M899.638,552.454h-3.028v-19.519h3.028V552.454z"/>
	<path fill="#00FFFF" d="M927.211,550.596h-3.066l-12.669-15.516h3.065L927.211,550.596z"/>
	<path fill="#00FFFF" d="M968.802,550.596h-3.066l-12.669-15.516h3.065L968.802,550.596z"/>
	<path fill="#00FFFF" d="M989.598,550.596h-3.066l-12.669-15.516h3.065L989.598,550.596z"/>
	<path fill="#00FFFF" d="M1031.188,550.596h-3.066l-12.669-15.516h3.065L1031.188,550.596z"/>
	<path fill="#00FFFF" d="M1054.089,552.454h-20.796v-1.372h20.796V552.454z"/>
	<path fill="#00FFFF" d="M1071.948,535.08l-12.67,15.516h-3.065l12.669-15.516H1071.948z"/>
	<path fill="#00FFFF" d="M1113.539,535.08l-12.67,15.516h-3.065l12.669-15.516H1113.539z"/>
</g>
<g enable-background="new    ">
	<path fill="none" stroke="#00FFFF" stroke-width="3" d="M483.729,552.454H480.7v-19.519h3.028V552.454z"/>
	<path fill="none" stroke="#00FFFF" stroke-width="3" d="M525.319,552.454h-3.028v-19.519h3.028V552.454z"/>
	<path fill="none" stroke="#00FFFF" stroke-width="3" d="M552.894,550.596h-3.066l-12.669-15.516h3.065L552.894,550.596z"/>
	<path fill="none" stroke="#00FFFF" stroke-width="3" d="M594.484,550.596h-3.066l-12.669-15.516h3.065L594.484,550.596z"/>
	<path fill="none" stroke="#00FFFF" stroke-width="3" d="M608.501,552.454h-3.028v-19.519h3.028V552.454z"/>
	<path fill="none" stroke="#00FFFF" stroke-width="3" d="M650.092,552.454h-3.028v-19.519h3.028V552.454z"/>
	<path fill="none" stroke="#00FFFF" stroke-width="3" d="M679.771,552.454h-20.796v-1.372h20.796V552.454z"/>
	<path fill="none" stroke="#00FFFF" stroke-width="3" d="M700.566,552.454h-20.796v-1.372h20.796V552.454z"/>
	<path fill="none" stroke="#00FFFF" stroke-width="3" d="M721.362,552.454h-20.796v-1.372h20.796V552.454z"/>
	<path fill="none" stroke="#00FFFF" stroke-width="3" d="M774.864,552.454h-3.028v-19.519h3.028V552.454z"/>
	<path fill="none" stroke="#00FFFF" stroke-width="3" d="M816.455,552.454h-3.028v-19.519h3.028V552.454z"/>
	<path fill="none" stroke="#00FFFF" stroke-width="3" d="M858.047,552.454h-3.028v-19.519h3.028V552.454z"/>
	<path fill="none" stroke="#00FFFF" stroke-width="3" d="M899.638,552.454h-3.028v-19.519h3.028V552.454z"/>
	<path fill="none" stroke="#00FFFF" stroke-width="3" d="M927.211,550.596h-3.066l-12.669-15.516h3.065L927.211,550.596z"/>
	<path fill="none" stroke="#00FFFF" stroke-width="3" d="M968.802,550.596h-3.066l-12.669-15.516h3.065L968.802,550.596z"/>
	<path fill="none" stroke="#00FFFF" stroke-width="3" d="M989.598,550.596h-3.066l-12.669-15.516h3.065L989.598,550.596z"/>
	<path fill="none" stroke="#00FFFF" stroke-width="3" d="M1031.188,550.596h-3.066l-12.669-15.516h3.065L1031.188,550.596z"/>
	<path fill="none" stroke="#00FFFF" stroke-width="3" d="M1054.089,552.454h-20.796v-1.372h20.796V552.454z"/>
	<path fill="none" stroke="#00FFFF" stroke-width="3" d="M1071.948,535.08l-12.67,15.516h-3.065l12.669-15.516H1071.948z"/>
	<path fill="none" stroke="#00FFFF" stroke-width="3" d="M1113.539,535.08l-12.67,15.516h-3.065l12.669-15.516H1113.539z"/>
</g>
<g enable-background="new    ">
	<path d="M240.96,574.019h-3.065l-12.669-15.516h3.065L240.96,574.019z"/>
	<path d="M260.925,558.503l-12.669,15.516h-3.065l12.669-15.516H260.925z"/>
	<path d="M344.938,574.019h-3.066l-12.669-15.516h3.065L344.938,574.019z"/>
	<path d="M364.902,558.503l-12.67,15.516h-3.065l12.669-15.516H364.902z"/>
</g>
<g enable-background="new    ">
	<path fill="none" stroke="#8DC63F" stroke-width="3" d="M240.96,574.019h-3.065l-12.669-15.516h3.065L240.96,574.019z"/>
	<path fill="none" stroke="#8DC63F" stroke-width="3" d="M260.925,558.503l-12.669,15.516h-3.065l12.669-15.516H260.925z"/>
	<path fill="none" stroke="#8DC63F" stroke-width="3" d="M344.938,574.019h-3.066l-12.669-15.516h3.065L344.938,574.019z"/>
	<path fill="none" stroke="#8DC63F" stroke-width="3" d="M364.902,558.503l-12.67,15.516h-3.065l12.669-15.516H364.902z"/>
</g>
<g enable-background="new    ">
	<path fill="#00FFFF" d="M490.507,574.019h-3.066l-12.669-15.516h3.065L490.507,574.019z"/>
	<path fill="#00FFFF" d="M513.408,575.877h-20.796v-1.372h20.796V575.877z"/>
	<path fill="#00FFFF" d="M525.319,575.877h-3.028v-19.519h3.028V575.877z"/>
	<path fill="#00FFFF" d="M573.688,574.019h-3.066l-12.669-15.516h3.065L573.688,574.019z"/>
	<path fill="#00FFFF" d="M596.59,575.877h-20.796v-1.372h20.796V575.877z"/>
	<path fill="#00FFFF" d="M615.279,574.019h-3.066l-12.669-15.516h3.065L615.279,574.019z"/>
	<path fill="#00FFFF" d="M638.181,575.877h-20.796v-1.372h20.796V575.877z"/>
	<path fill="#00FFFF" d="M658.976,575.877H638.18v-1.372h20.796V575.877z"/>
	<path fill="#00FFFF" d="M679.771,575.877h-20.796v-1.372h20.796V575.877z"/>
	<path fill="#00FFFF" d="M700.566,575.877h-20.796v-1.372h20.796V575.877z"/>
	<path fill="#00FFFF" d="M718.426,558.503l-12.67,15.516h-3.065l12.669-15.516H718.426z"/>
	<path fill="#00FFFF" d="M781.643,574.019h-3.066l-12.669-15.516h3.065L781.643,574.019z"/>
	<path fill="#00FFFF" d="M804.544,575.877h-20.796v-1.372h20.796V575.877z"/>
	<path fill="#00FFFF" d="M822.402,558.503l-12.67,15.516h-3.065l12.669-15.516H822.402z"/>
	<path fill="#00FFFF" d="M864.825,574.019h-3.066l-12.669-15.516h3.065L864.825,574.019z"/>
	<path fill="#00FFFF" d="M887.726,575.877H866.93v-1.372h20.796V575.877z"/>
	<path fill="#00FFFF" d="M899.638,575.877h-3.028v-19.519h3.028V575.877z"/>
	<path fill="#00FFFF" d="M948.007,574.019h-3.066l-12.669-15.516h3.065L948.007,574.019z"/>
	<path fill="#00FFFF" d="M970.907,575.877h-20.796v-1.372h20.796V575.877z"/>
	<path fill="#00FFFF" d="M982.819,575.877h-3.028v-19.519h3.028V575.877z"/>
	<path fill="#00FFFF" d="M1010.393,574.019h-3.066l-12.669-15.516h3.065L1010.393,574.019z"/>
	<path fill="#00FFFF" d="M1033.294,575.877h-20.796v-1.372h20.796V575.877z"/>
	<path fill="#00FFFF" d="M1054.089,575.877h-20.796v-1.372h20.796V575.877z"/>
	<path fill="#00FFFF" d="M1074.885,575.877h-20.796v-1.372h20.796V575.877z"/>
	<path fill="#00FFFF" d="M1092.743,558.503l-12.67,15.516h-3.065l12.669-15.516H1092.743z"/>
</g>
<g enable-background="new    ">
	<path fill="none" stroke="#00FFFF" stroke-width="3" d="M490.507,574.019h-3.066l-12.669-15.516h3.065L490.507,574.019z"/>
	<path fill="none" stroke="#00FFFF" stroke-width="3" d="M513.408,575.877h-20.796v-1.372h20.796V575.877z"/>
	<path fill="none" stroke="#00FFFF" stroke-width="3" d="M525.319,575.877h-3.028v-19.519h3.028V575.877z"/>
	<path fill="none" stroke="#00FFFF" stroke-width="3" d="M573.688,574.019h-3.066l-12.669-15.516h3.065L573.688,574.019z"/>
	<path fill="none" stroke="#00FFFF" stroke-width="3" d="M596.59,575.877h-20.796v-1.372h20.796V575.877z"/>
	<path fill="none" stroke="#00FFFF" stroke-width="3" d="M615.279,574.019h-3.066l-12.669-15.516h3.065L615.279,574.019z"/>
	<path fill="none" stroke="#00FFFF" stroke-width="3" d="M638.181,575.877h-20.796v-1.372h20.796V575.877z"/>
	<path fill="none" stroke="#00FFFF" stroke-width="3" d="M658.976,575.877H638.18v-1.372h20.796V575.877z"/>
	<path fill="none" stroke="#00FFFF" stroke-width="3" d="M679.771,575.877h-20.796v-1.372h20.796V575.877z"/>
	<path fill="none" stroke="#00FFFF" stroke-width="3" d="M700.566,575.877h-20.796v-1.372h20.796V575.877z"/>
	<path fill="none" stroke="#00FFFF" stroke-width="3" d="M718.426,558.503l-12.67,15.516h-3.065l12.669-15.516H718.426z"/>
	<path fill="none" stroke="#00FFFF" stroke-width="3" d="M781.643,574.019h-3.066l-12.669-15.516h3.065L781.643,574.019z"/>
	<path fill="none" stroke="#00FFFF" stroke-width="3" d="M804.544,575.877h-20.796v-1.372h20.796V575.877z"/>
	<path fill="none" stroke="#00FFFF" stroke-width="3" d="M822.402,558.503l-12.67,15.516h-3.065l12.669-15.516H822.402z"/>
	<path fill="none" stroke="#00FFFF" stroke-width="3" d="M864.825,574.019h-3.066l-12.669-15.516h3.065L864.825,574.019z"/>
	<path fill="none" stroke="#00FFFF" stroke-width="3" d="M887.726,575.877H866.93v-1.372h20.796V575.877z"/>
	<path fill="none" stroke="#00FFFF" stroke-width="3" d="M899.638,575.877h-3.028v-19.519h3.028V575.877z"/>
	<path fill="none" stroke="#00FFFF" stroke-width="3" d="M948.007,574.019h-3.066l-12.669-15.516h3.065L948.007,574.019z"/>
	<path fill="none" stroke="#00FFFF" stroke-width="3" d="M970.907,575.877h-20.796v-1.372h20.796V575.877z"/>
	<path fill="none" stroke="#00FFFF" stroke-width="3" d="M982.819,575.877h-3.028v-19.519h3.028V575.877z"/>
	<path fill="none" stroke="#00FFFF" stroke-width="3" d="M1010.393,574.019h-3.066l-12.669-15.516h3.065L1010.393,574.019z"/>
	<path fill="none" stroke="#00FFFF" stroke-width="3" d="M1033.294,575.877h-20.796v-1.372h20.796V575.877z"/>
	<path fill="none" stroke="#00FFFF" stroke-width="3" d="M1054.089,575.877h-20.796v-1.372h20.796V575.877z"/>
	<path fill="none" stroke="#00FFFF" stroke-width="3" d="M1074.885,575.877h-20.796v-1.372h20.796V575.877z"/>
	<path fill="none" stroke="#00FFFF" stroke-width="3" d="M1092.743,558.503l-12.67,15.516h-3.065l12.669-15.516H1092.743z"/>
</g>
<g enable-background="new    ">
	<path fill="#646464" stroke="#656565" stroke-miterlimit="10" d="M350.449,702.203c-5.18,0-9.276-2.303-12.287-6.908
		c-3.012-4.605-4.518-11.027-4.518-19.266s1.482-14.748,4.447-19.529c2.965-4.781,7.119-7.172,12.463-7.172
		c3.281,0,6.316,0.867,9.105,2.602l-2.109,4.605c-2.227-1.477-4.523-2.215-6.891-2.215c-3.539,0-6.323,1.916-8.35,5.748
		c-2.027,3.832-3.041,9.082-3.041,15.75s1.031,11.906,3.094,15.715c2.062,3.809,4.91,5.713,8.543,5.713
		c2.742,0,5.261-0.609,7.559-1.828v4.922C356.402,701.582,353.73,702.203,350.449,702.203z"/>
	<path fill="#646464" stroke="#656565" stroke-miterlimit="10" d="M389.121,701.5h-4.324c-0.188-1.312-0.41-3.059-0.668-5.238
		h-0.352c-0.844,1.875-2.016,3.334-3.516,4.377c-1.5,1.043-3.164,1.564-4.992,1.564c-3.211,0-5.59-1.131-7.137-3.393
		s-2.32-5.818-2.32-10.67v-25.102h5.344v24.363c0,3.492,0.41,6.053,1.23,7.682c0.82,1.629,2.121,2.443,3.902,2.443
		c2.578,0,4.477-1.125,5.695-3.375c1.218-2.25,1.828-5.883,1.828-10.898v-20.215h5.309V701.5z"/>
	<path fill="#646464" stroke="#656565" stroke-miterlimit="10" d="M399.932,696.596c1.629,0.527,3.281,0.791,4.957,0.791
		c1.675,0,3.029-0.516,4.061-1.547c1.031-1.031,1.547-2.32,1.547-3.867c0-1.172-0.281-2.332-0.844-3.48
		c-0.164-0.352-0.516-0.779-1.055-1.283c-0.54-0.504-0.926-0.844-1.16-1.02c-0.234-0.176-1.09-0.791-2.566-1.846
		s-2.906-2.133-4.289-3.234c-2.86-2.273-4.289-5.238-4.289-8.895c0-2.93,0.996-5.32,2.988-7.172
		c2.039-1.852,4.646-2.777,7.822-2.777c3.176,0,5.982,0.797,8.42,2.391l-2.18,4.148c-2.133-1.312-4.137-1.969-6.012-1.969
		c-1.875,0-3.311,0.492-4.307,1.477c-0.997,0.984-1.494,2.273-1.494,3.867c0,2.062,0.703,3.633,2.109,4.711l4.57,3.41
		c1.007,0.75,1.811,1.371,2.408,1.863s1.248,1.113,1.951,1.863s1.242,1.488,1.617,2.215c0.891,1.688,1.336,3.598,1.336,5.73
		c0,3.398-0.932,5.953-2.795,7.664s-4.541,2.566-8.033,2.566c-3.493,0-6.293-0.727-8.402-2.18v-5.309
		C397.089,695.441,398.302,696.068,399.932,696.596z"/>
	<path fill="#646464" stroke="#656565" stroke-miterlimit="10" d="M428.215,663.039h6.398v4.43h-6.398v24.293
		c0,2.086,0.269,3.568,0.809,4.447c0.539,0.879,1.436,1.318,2.689,1.318c1.253,0,2.361-0.199,3.322-0.598v4.289
		c-1.195,0.656-2.836,0.984-4.922,0.984c-2.719,0-4.605-1.031-5.66-3.094s-1.582-5.344-1.582-9.844v-21.797h-3.586v-2.707
		l3.867-1.758l1.547-8.824h3.516V663.039z"/>
	<path fill="#646464" stroke="#656565" stroke-miterlimit="10" d="M439.254,682.182c0-6.387,1.107-11.297,3.322-14.73
		s5.349-5.15,9.404-5.15c4.055,0,7.219,1.764,9.492,5.291c2.273,3.527,3.41,8.443,3.41,14.748s-1.125,11.191-3.375,14.66
		s-5.396,5.203-9.439,5.203s-7.189-1.74-9.439-5.221S439.254,688.568,439.254,682.182z M452.051,667.047
		c-2.555,0-4.412,1.242-5.572,3.727s-1.74,6.281-1.74,11.391s0.592,8.936,1.775,11.479c1.183,2.543,3.029,3.814,5.537,3.814
		c4.875,0,7.312-5.068,7.312-15.205S456.925,667.047,452.051,667.047z"/>
	<path fill="#646464" stroke="#656565" stroke-miterlimit="10" d="M476.977,663.039l0.562,5.203h0.422
		c1.594-3.961,4.324-5.941,8.191-5.941c4.219,0,6.973,2.227,8.262,6.68c0.469-0.797,0.838-1.412,1.107-1.846
		c0.269-0.434,0.703-1.008,1.301-1.723s1.178-1.26,1.74-1.635c1.477-0.984,3.105-1.477,4.887-1.477c3.07,0,5.349,1.148,6.838,3.445
		c1.488,2.297,2.232,5.848,2.232,10.652V701.5h-5.309v-25.102c0-6.188-1.723-9.281-5.168-9.281c-2.391,0-4.119,1.072-5.186,3.217
		c-1.067,2.145-1.6,5.467-1.6,9.967V701.5h-5.344v-25.102c0-6.188-1.723-9.281-5.168-9.281c-2.368,0-4.09,1.107-5.168,3.322
		c-1.078,2.215-1.617,5.83-1.617,10.846V701.5h-5.309v-38.461H476.977z"/>
	<path fill="#646464" stroke="#656565" stroke-miterlimit="10" d="M543.105,701.5h-5.273v-51.398h5.273V701.5z"/>
	<path fill="#646464" stroke="#656565" stroke-miterlimit="10" d="M558.012,663.039l0.562,5.203h0.422
		c1.594-3.961,4.324-5.941,8.191-5.941c4.219,0,6.973,2.227,8.262,6.68c0.469-0.797,0.838-1.412,1.107-1.846
		c0.269-0.434,0.703-1.008,1.301-1.723s1.178-1.26,1.74-1.635c1.477-0.984,3.105-1.477,4.887-1.477c3.07,0,5.349,1.148,6.838,3.445
		c1.488,2.297,2.232,5.848,2.232,10.652V701.5h-5.309v-25.102c0-6.188-1.723-9.281-5.168-9.281c-2.391,0-4.119,1.072-5.186,3.217
		c-1.067,2.145-1.6,5.467-1.6,9.967V701.5h-5.344v-25.102c0-6.188-1.723-9.281-5.168-9.281c-2.368,0-4.09,1.107-5.168,3.322
		c-1.078,2.215-1.617,5.83-1.617,10.846V701.5h-5.309v-38.461H558.012z"/>
	<path fill="#646464" stroke="#656565" stroke-miterlimit="10" d="M605.262,669.051l-2.039-3.902
		c3.046-1.922,6.293-2.883,9.738-2.883s6,1.066,7.664,3.199c1.664,2.133,2.496,5.461,2.496,9.984V701.5h-4.078l-0.914-5.344h-0.176
		c-1.922,3.984-4.746,5.977-8.473,5.977c-2.812,0-5.004-0.984-6.574-2.953c-1.57-1.969-2.355-4.793-2.355-8.473
		s1.102-6.568,3.305-8.666c2.203-2.098,5.367-3.24,9.492-3.428l4.465-0.211v-3.023c0-3-0.422-5.197-1.266-6.592
		s-2.309-2.092-4.395-2.092C610.066,666.695,607.77,667.48,605.262,669.051z M617.812,686.031v-3.727
		c-0.797,0.023-1.992,0.082-3.586,0.176c-2.766,0.141-4.811,0.908-6.135,2.303c-1.324,1.395-1.986,3.439-1.986,6.135
		c0,4.664,1.605,6.996,4.816,6.996c2.156,0,3.844-1.049,5.062-3.146C617.203,692.67,617.812,689.758,617.812,686.031z"/>
	<path fill="#646464" stroke="#656565" stroke-miterlimit="10" d="M641.297,695.523h3.48c3.398,0,6.006,0.902,7.822,2.707
		s2.725,4.441,2.725,7.91c0,3.914-1.354,7.002-4.061,9.264s-6.357,3.393-10.951,3.393c-3.75,0-6.627-0.896-8.631-2.689
		s-3.006-4.365-3.006-7.717c0-4.758,2.519-8.051,7.559-9.879c-1.219-0.516-2.186-1.248-2.9-2.197
		c-0.715-0.949-1.072-2.01-1.072-3.182s0.328-2.209,0.984-3.111c0.656-0.902,1.758-1.951,3.305-3.146
		c-1.828-0.891-3.234-2.338-4.219-4.342s-1.477-4.342-1.477-7.014c0-4.148,0.943-7.389,2.83-9.721
		c1.886-2.332,4.518-3.498,7.893-3.498c1.43,0,2.848,0.258,4.254,0.773c0.305-0.023,1.219-0.035,2.742-0.035s3.68,0.012,6.469,0.035
		v3.375l-5.027,0.738c0.609,0.867,1.107,2.057,1.494,3.568s0.58,3.053,0.58,4.623c0,3.844-0.961,6.92-2.883,9.229
		s-4.418,3.463-7.488,3.463h-0.281c-0.703,0-1.243-0.047-1.617-0.141c-1.008,0.75-1.77,1.471-2.285,2.162
		c-0.516,0.691-0.773,1.5-0.773,2.426s0.398,1.658,1.195,2.197C638.753,695.254,639.867,695.523,641.297,695.523z M643.582,700.41
		h-2.672c-2.273,0-4.043,0.674-5.309,2.021s-1.898,3.141-1.898,5.379s0.585,3.949,1.758,5.133c1.172,1.184,2.895,1.775,5.168,1.775
		c3.023,0,5.385-0.727,7.084-2.18s2.549-3.457,2.549-6.012C650.262,702.449,648.035,700.41,643.582,700.41z M645.516,668.576
		c-0.914-1.582-2.25-2.373-4.008-2.373s-3.111,0.809-4.061,2.426s-1.424,3.885-1.424,6.803s0.486,5.115,1.459,6.592
		c0.972,1.477,2.326,2.215,4.061,2.215c3.562,0,5.344-2.965,5.344-8.895C646.887,672.414,646.43,670.158,645.516,668.576z"/>
	<path fill="#646464" stroke="#656565" stroke-miterlimit="10" d="M672.691,702.203c-4.336,0-7.693-1.717-10.072-5.15
		s-3.568-8.338-3.568-14.713s1.066-11.309,3.199-14.801s5.18-5.238,9.141-5.238c3.516,0,6.293,1.529,8.332,4.588
		s3.059,7.201,3.059,12.428v3.727h-18.316c0.141,9.703,3.07,14.555,8.789,14.555c2.672,0,5.391-0.832,8.156-2.496v4.711
		C678.785,701.406,675.879,702.203,672.691,702.203z M677.508,678.789c0-3.68-0.562-6.615-1.688-8.807s-2.66-3.287-4.605-3.287
		c-4.055,0-6.27,4.031-6.645,12.094H677.508z"/>
	<path fill="#646464" stroke="#656565" stroke-miterlimit="10" d="M710.766,662.969l-0.246,5.133h0.352
		c2.039-3.844,4.846-5.766,8.42-5.766s6.334,1.688,8.279,5.062s2.918,8.303,2.918,14.783s-0.967,11.438-2.9,14.871
		s-4.699,5.15-8.297,5.15s-6.439-1.898-8.525-5.695h-0.387c-0.188,1.289-0.457,2.953-0.809,4.992h-4.113v-54.703h5.309V662.969z
		 M710.766,681.848v0.914c0,5.016,0.598,8.73,1.793,11.145s3.006,3.621,5.432,3.621s4.201-1.26,5.326-3.779
		s1.688-6.352,1.688-11.496s-0.562-8.965-1.688-11.461s-2.924-3.744-5.396-3.744s-4.283,1.137-5.432,3.41
		S710.766,676.527,710.766,681.848z"/>
	<path fill="#646464" stroke="#656565" stroke-miterlimit="10" d="M743.9,716.002c-0.738,0.832-1.629,1.506-2.672,2.021
		s-2.191,0.773-3.445,0.773s-2.514-0.199-3.779-0.598v-4.641c0.984,0.328,1.957,0.492,2.918,0.492c1.453,0,2.625-0.568,3.516-1.705
		s1.629-2.959,2.215-5.467l1.371-5.238l-10.23-38.602h5.484l5.625,23.238c0.656,2.695,1.242,5.766,1.758,9.211h0.246
		c0.492-3.234,1.02-6.223,1.582-8.965c2.531-11.109,4.301-18.938,5.309-23.484h5.52c-3.141,12.281-6.41,25.172-9.809,38.672
		c-0.656,2.484-1.225,4.494-1.705,6.029s-1.066,3.088-1.758,4.658S744.639,715.17,743.9,716.002z"/>
	<path fill="#646464" stroke="#656565" stroke-miterlimit="10" d="M779.742,650.102h10.828c5.484,0,9.697,2.156,12.639,6.469
		s4.412,10.688,4.412,19.125s-1.477,14.848-4.43,19.23s-7.336,6.574-13.148,6.574h-10.301V650.102z M785.227,654.953v41.695h4.676
		c8.039,0,12.059-7.031,12.059-21.094c0-6.773-0.979-11.9-2.936-15.381s-4.846-5.221-8.666-5.221H785.227z"/>
	<path fill="#646464" stroke="#656565" stroke-miterlimit="10" d="M814.266,682.182c0-6.387,1.107-11.297,3.322-14.73
		s5.35-5.15,9.404-5.15s7.219,1.764,9.492,5.291s3.41,8.443,3.41,14.748s-1.125,11.191-3.375,14.66s-5.396,5.203-9.439,5.203
		s-7.189-1.74-9.439-5.221S814.266,688.568,814.266,682.182z M827.062,667.047c-2.555,0-4.412,1.242-5.572,3.727
		s-1.74,6.281-1.74,11.391s0.592,8.936,1.775,11.479s3.029,3.814,5.537,3.814c4.875,0,7.312-5.068,7.312-15.205
		S831.938,667.047,827.062,667.047z"/>
	<path fill="#646464" stroke="#656565" stroke-miterlimit="10" d="M858.492,702.203c-4.102,0-7.201-1.67-9.299-5.01
		s-3.146-8.244-3.146-14.713c0-13.453,4.148-20.18,12.445-20.18c2.672,0,4.969,0.562,6.891,1.688l-1.758,4.359
		c-1.664-0.867-3.199-1.301-4.605-1.301c-4.992,0-7.488,5.121-7.488,15.363c0,5.156,0.627,8.953,1.881,11.391
		s3.193,3.656,5.818,3.656c1.734,0,3.68-0.492,5.836-1.477v4.605C862.98,701.664,860.789,702.203,858.492,702.203z"/>
	<path fill="#646464" stroke="#656565" stroke-miterlimit="10" d="M877.02,663.039h6.398v4.43h-6.398v24.293
		c0,2.086,0.27,3.568,0.809,4.447s1.436,1.318,2.689,1.318s2.361-0.199,3.322-0.598v4.289c-1.195,0.656-2.836,0.984-4.922,0.984
		c-2.719,0-4.605-1.031-5.66-3.094s-1.582-5.344-1.582-9.844v-21.797h-3.586v-2.707l3.867-1.758l1.547-8.824h3.516V663.039z"/>
	<path fill="#646464" stroke="#656565" stroke-miterlimit="10" d="M888.059,682.182c0-6.387,1.107-11.297,3.322-14.73
		s5.35-5.15,9.404-5.15s7.219,1.764,9.492,5.291s3.41,8.443,3.41,14.748s-1.125,11.191-3.375,14.66s-5.396,5.203-9.439,5.203
		s-7.189-1.74-9.439-5.221S888.059,688.568,888.059,682.182z M900.855,667.047c-2.555,0-4.412,1.242-5.572,3.727
		s-1.74,6.281-1.74,11.391s0.592,8.936,1.775,11.479s3.029,3.814,5.537,3.814c4.875,0,7.312-5.068,7.312-15.205
		S905.73,667.047,900.855,667.047z"/>
	<path fill="#646464" stroke="#656565" stroke-miterlimit="10" d="M929.912,664.023c1.207-1.172,2.502-1.758,3.885-1.758
		s2.59,0.176,3.621,0.527l-0.879,5.238c-0.844-0.328-1.711-0.492-2.602-0.492c-2.039,0-3.738,1.301-5.098,3.902
		s-2.039,5.895-2.039,9.879v20.18h-5.344v-38.496h4.395l0.598,6.504h0.246C927.633,667.023,928.705,665.195,929.912,664.023z"/>
	<path fill="#646464" stroke="#656565" stroke-miterlimit="10" d="M970.5,675.062l9.949,26.438h-5.695l-7.594-21.902l-8.227,21.902
		h-5.625l11.109-27.105l-9.809-24.293h5.625L967.582,670l6.891-19.898h5.66L970.5,675.062z"/>
</g>
</svg>
