<?xml version="1.0" encoding="utf-8"?>
<!-- Generator: Adobe Illustrator 15.1.0, SVG Export Plug-In . SVG Version: 6.00 Build 0)  -->
<!DOCTYPE svg PUBLIC "-//W3C//DTD SVG 1.1//EN" "http://www.w3.org/Graphics/SVG/1.1/DTD/svg11.dtd">
<svg version="1.1" id="Layer_1" xmlns="http://www.w3.org/2000/svg" xmlns:xlink="http://www.w3.org/1999/xlink" x="0px" y="0px"
	 width="1280px" height="720px" viewBox="0 0 1280 720" enable-background="new 0 0 1280 720" xml:space="preserve">
<g id="Layer_2">
</g>
<g id="Ebene_1">
	<path fill="#C90012" d="M431.529,361.097L431.529,361.097L431.529,361.097z"/>
	<path fill="#C90012" d="M431.529,278.216L431.529,278.216L431.529,278.216z"/>
	<path fill="#C90012" d="M431.529,195.306L431.529,195.306L431.529,195.306z"/>
	<path fill="#C90012" d="M431.529,236.753L431.529,236.753L431.529,236.753z"/>
	<path fill="#C90012" d="M431.529,402.544L431.529,402.544L431.529,402.544z"/>
	<path fill="#C90012" d="M431.529,319.642L431.529,319.642L431.529,319.642z"/>
	<path fill="#C90012" d="M431.529,153.842L431.529,153.842L431.529,153.842z"/>
	
		<linearGradient id="SVGID_1_" gradientUnits="userSpaceOnUse" x1="118.3149" y1="532.3213" x2="323.8034" y2="217.3385" gradientTransform="matrix(1 0 0 1 0 -71)">
		<stop  offset="0" style="stop-color:#004E73"/>
		<stop  offset="1" style="stop-color:#00A1B0"/>
	</linearGradient>
	<path fill="url(#SVGID_1_)" d="M431.529,164.951c0-6.11-4.999-11.108-11.105-11.108H69.563c-6.112,0-14.644,3.534-18.963,7.855
		l-25.745,25.745C20.533,191.764,17,200.296,17,206.406v226.468c0,6.111,4.999,11.109,11.106,11.109h350.86
		c6.107,0,14.646-3.535,18.963-7.854l25.741-25.736c4.32-4.314,7.854-12.853,7.854-18.965L431.529,164.951z"/>
	<path opacity="0.2" enable-background="new    " d="M382.22,311.789l-25.729-25.729c-4.319-4.318-12.854-7.854-18.963-7.854H318.28
		c-6.112,0.001-11.11,0.001-11.11,0.001s3.532-3.534,7.854-7.855l67.194-67.193c4.32-4.321,2.854-7.855-3.253-7.855H276.832
		c-6.111,0-14.643,3.534-18.963,7.855L25.142,435.86c-1.825,1.819-3.517,3.514-4.871,4.864c2.012,2.013,4.786,3.261,7.836,3.261
		c0.005,0,0.01,0,0.016,0h99.953h167.988c6.111,0,11.122-0.015,11.133-0.023c0.015-0.016,3.559-3.562,7.88-7.88l67.144-67.132
		c4.32-4.316,7.854-12.854,7.854-18.964v-19.234C390.073,324.64,386.54,316.104,382.22,311.789z"/>
	
		<linearGradient id="SVGID_2_" gradientUnits="userSpaceOnUse" x1="144.813" y1="530.375" x2="399.8016" y2="278.3865" gradientTransform="matrix(1 0 0 1 0 -71)">
		<stop  offset="0.3077" style="stop-color:#D3D3D3"/>
		<stop  offset="0.6752" style="stop-color:#FFFFFF"/>
	</linearGradient>
	<path fill="url(#SVGID_2_)" d="M276.824,319.649c-6.108,0-14.643-3.536-18.96-7.857l-25.71-25.718
		c-4.321-4.321-7.857-12.855-7.865-18.966l-0.012-19.246c-0.008-6.11,3.525-14.643,7.846-18.964l25.741-25.737
		c4.321-4.321,12.852-7.855,18.963-7.855h102.14c6.107,0,7.573,3.534,3.253,7.855l-25.739,25.737
		c-4.32,4.321-12.854,7.855-18.965,7.855h-60.688c-6.112,0-11.11,4.998-11.11,11.108v19.246c0,6.11,4.998,11.108,11.106,11.106
		l60.702-0.007c6.105-0.002,14.644,3.533,18.963,7.853l25.729,25.729c4.32,4.313,7.854,12.851,7.854,18.963v19.235
		c0,6.107-3.532,14.646-7.854,18.963l-25.738,25.74c-4.321,4.314-12.854,7.854-18.966,7.854h-60.688
		c-6.112,0-14.643-3.536-18.963-7.854l-25.741-25.74c-4.32-4.316-2.858-7.854,3.253-7.854h102.14c6.112,0,11.11-4.997,11.11-11.106
		V330.75c0-6.112,0-11.11,0.003-11.11c0.004,0-4.994,0-11.103,0L276.824,319.649z"/>
	<g opacity="0.2">
		<path d="M17.008,289.877c0-6.109,0-11.238,0-11.393c0-0.155,3.532-3.818,7.854-8.138l67.185-67.186
			c4.321-4.321,12.855-7.855,18.963-7.855h102.15c6.108,0,7.574,3.534,3.253,7.855l-67.197,67.182
			c-4.32,4.321-7.853,7.855-7.853,7.855s4.998,0.002,11.11,0.006l19.228,0.007c6.108,0.004,10.75,4.993,10.318,11.086l-1.114,15.593
			c-0.433,6.092-1.707,11.997-2.833,13.122c-1.125,1.125-5.576,5.58-9.896,9.896l-25.201,25.2c-4.32,4.314-7.885,7.886-7.922,7.919
			c-0.034,0.032,4.933,0.062,11.041,0.062h17.979c6.108-0.004,14.784,3.379,19.281,7.521l26.836,24.692
			c4.497,4.139,8.181,7.623,8.058,7.75c-0.126,0.126-3.766,3.764-8.087,8.083l-34.827,34.852l-147.212,0.002
			c-6.107,0-11.105-4.998-11.105-11.11L17.008,289.877z"/>
	</g>
	
		<linearGradient id="SVGID_3_" gradientUnits="userSpaceOnUse" x1="71.269" y1="455.9561" x2="326.2581" y2="203.967" gradientTransform="matrix(1 0 0 1 0 -71)">
		<stop  offset="0.3077" style="stop-color:#D3D3D3"/>
		<stop  offset="0.6752" style="stop-color:#FFFFFF"/>
	</linearGradient>
	<path fill="url(#SVGID_3_)" d="M111.01,361.097c-6.107,0-11.104-4.997-11.104-11.106v-19.235c0-6.112,4.998-11.11,11.104-11.11
		h60.69c6.108,0,11.106-4.997,11.106-11.107V289.33c0-6.112-4.998-11.11-11.106-11.11h-60.69c-6.107,0-11.104-4.998-11.104-11.108
		v-19.246c0-6.11,4.998-11.108,11.104-11.108h60.69c6.108,0,14.643-3.534,18.964-7.854l25.749-25.741
		c4.321-4.319,2.855-7.853-3.253-7.853H111.01c-6.107,0-14.643,3.534-18.963,7.855L66.31,228.9
		c-4.32,4.321-7.857,12.854-7.857,18.964v102.125c0,6.109,3.537,14.646,7.857,18.964l25.737,25.74
		c4.321,4.314,12.855,7.854,18.963,7.854h102.143c6.112,0,7.574-3.536,3.253-7.854l-25.741-25.744
		c-4.32-4.321-12.854-7.857-18.964-7.857L111.01,361.097z"/>
	<g>
		<path fill="#FFFFFF" d="M558.605,245.562c-1.623,3.8-3.853,7.115-6.685,9.943c-2.832,2.836-6.146,5.06-9.947,6.682
			c-3.796,1.623-7.838,2.434-12.114,2.434h-8.496c-4.283,0-8.324-0.812-12.121-2.434c-3.8-1.623-7.115-3.846-9.942-6.682
			c-2.836-2.828-5.062-6.143-6.683-9.943c-1.626-3.796-2.437-7.838-2.437-12.121v-47.858c0-4.282,0.811-8.324,2.437-12.12
			c1.619-3.801,3.847-7.115,6.683-9.947c2.827-2.833,6.146-5.056,9.942-6.682c3.796-1.619,7.838-2.434,12.121-2.434h8.496
			c4.276,0,8.317,0.815,12.114,2.434c3.802,1.626,7.115,3.85,9.947,6.682s5.062,6.146,6.685,9.947
			c1.621,3.796,2.434,7.838,2.434,12.12v24.964h-58.114v23.618c0,2.556,0.481,4.956,1.45,7.202c0.965,2.243,2.277,4.195,3.936,5.852
			c1.66,1.657,3.608,2.97,5.854,3.938c2.243,0.964,4.643,1.447,7.199,1.447h8.495c2.554,0,4.951-0.482,7.197-1.447
			c2.243-0.968,4.195-2.281,5.854-3.938c1.657-1.657,2.971-3.609,3.938-5.852c0.964-2.246,1.451-4.646,1.451-7.202v-7.042
			l12.739,2.07v4.248C561.038,237.724,560.229,241.765,558.605,245.562z M548.299,184.855c0-2.553-0.486-4.952-1.451-7.199
			c-0.968-2.243-2.278-4.194-3.938-5.853c-1.656-1.658-3.608-2.97-5.854-3.938c-2.247-0.964-4.646-1.45-7.197-1.45h-8.496
			c-2.559,0-4.956,0.486-7.199,1.45c-2.246,0.969-4.194,2.281-5.854,3.938c-1.656,1.657-2.972,3.609-3.936,5.853
			c-0.969,2.247-1.451,4.646-1.451,7.199V200.6h45.375V184.855L548.299,184.855z"/>
		<path fill="#FFFFFF" d="M698.506,262.55v-77.695c0-2.553-0.48-4.952-1.45-7.199c-0.969-2.243-2.274-4.194-3.938-5.854
			c-1.652-1.657-3.608-2.97-5.854-3.938c-2.246-0.964-4.646-1.45-7.196-1.45h-6.317c-2.558,0-4.956,0.486-7.202,1.45
			c-2.243,0.969-4.21,2.281-5.901,3.938c-1.693,1.657-3.021,3.609-3.989,5.854c-0.968,2.247-1.445,4.646-1.445,7.199v77.695h-12.646
			v-77.695c0-2.553-0.479-4.952-1.447-7.199c-0.971-2.243-2.296-4.194-3.987-5.854c-1.688-1.657-3.658-2.97-5.905-3.938
			c-2.24-0.964-4.643-1.45-7.197-1.45h-6.317c-2.558,0-4.956,0.486-7.198,1.45c-2.247,0.969-4.195,2.281-5.854,3.938
			c-1.657,1.657-2.972,3.609-3.938,5.854c-0.968,2.247-1.45,4.646-1.45,7.199v77.695h-12.738V156.474h4.243l6.941,10.773
			c2.899-3.938,6.54-7.061,10.931-9.376c4.384-2.312,9.166-3.471,14.346-3.471h1.036c6.01,0,11.429,1.485,16.267,4.455
			c4.833,2.97,8.562,6.908,11.188,11.811c1.312-2.419,2.937-4.627,4.867-6.629c1.936-2.005,4.075-3.712,6.423-5.128
			c2.352-1.416,4.905-2.522,7.669-3.318c2.762-0.792,5.627-1.19,8.598-1.19h1.037c4.276,0,8.317,0.815,12.119,2.434
			c3.798,1.626,7.113,3.85,9.945,6.682c2.828,2.832,5.058,6.146,6.686,9.947c1.617,3.796,2.435,7.838,2.435,12.12v76.968h-12.747
			v-0.002H698.506z"/>
		<path fill="#FFFFFF" d="M803.343,262.55l-7.046-10.773c-2.9,3.938-6.525,7.061-10.878,9.376
			c-4.348,2.312-9.115,3.467-14.294,3.467h-3.211c-4.286,0-8.323-0.812-12.12-2.434c-3.801-1.623-7.114-3.846-9.946-6.682
			c-2.832-2.828-5.061-6.143-6.684-9.943c-1.622-3.796-2.434-7.838-2.434-12.121v-76.966h12.741v77.691
			c0,2.556,0.481,4.956,1.446,7.202c0.969,2.243,2.28,4.195,3.938,5.852c1.656,1.657,3.608,2.97,5.854,3.938
			c2.242,0.964,4.646,1.447,7.203,1.447h8.496c2.549,0,4.952-0.482,7.191-1.447c2.243-0.968,4.198-2.281,5.854-3.938
			c1.657-1.657,2.971-3.609,3.936-5.852c0.971-2.246,1.454-4.646,1.454-7.202v-77.691h12.736V262.55H803.343z"/>
		<path fill="#FFFFFF" d="M837.319,262.55V114h12.737v148.55H837.319z"/>
		<path fill="#FFFFFF" d="M946.404,262.55l-7.047-10.567c-2.899,3.8-6.524,6.854-10.883,9.17c-4.348,2.312-9.113,3.467-14.288,3.467
			h-3.217c-4.28,0-8.317-0.812-12.114-2.434c-3.807-1.623-7.118-3.846-9.946-6.682c-2.836-2.828-5.063-6.143-6.685-9.943
			c-1.627-3.796-2.436-7.838-2.436-12.121v-1.037c0-4.279,0.809-8.32,2.436-12.121c1.618-3.796,3.849-7.111,6.685-9.943
			c2.828-2.832,6.144-5.06,9.946-6.682c3.797-1.623,7.834-2.434,12.114-2.434h26.938v-16.368c0-2.553-0.481-4.952-1.45-7.199
			c-0.969-2.243-2.276-4.194-3.938-5.852c-1.65-1.657-3.606-2.97-5.853-3.938c-2.246-0.964-4.646-1.45-7.198-1.45h-7.459
			c-2.558,0-4.956,0.486-7.197,1.45c-2.246,0.969-4.193,2.281-5.854,3.938c-1.652,1.657-2.97,3.609-3.937,5.852
			c-0.969,2.247-1.448,4.646-1.448,7.199v3.835l-12.74-2.075v-1.033c0-4.282,0.812-8.324,2.436-12.12
			c1.622-3.801,3.853-7.115,6.685-9.947c2.828-2.833,6.146-5.056,9.94-6.682c3.798-1.619,7.841-2.434,12.12-2.434h7.459
			c4.278,0,8.319,0.815,12.117,2.434c3.8,1.626,7.113,3.85,9.949,6.682c2.828,2.832,5.057,6.146,6.68,9.947
			c1.622,3.796,2.436,7.838,2.436,12.12v76.968H946.404L946.404,262.55z M937.907,211.167H910.97c-2.558,0-4.956,0.486-7.198,1.451
			c-2.244,0.968-4.192,2.296-5.853,3.988c-1.661,1.695-2.971,3.663-3.938,5.905c-0.971,2.247-1.45,4.646-1.45,7.203v4.451
			c0,2.556,0.479,4.956,1.45,7.202c0.969,2.243,2.274,4.195,3.938,5.852c1.656,1.657,3.604,2.97,5.853,3.938
			c2.242,0.964,4.645,1.447,7.198,1.447h8.496c2.553,0,4.952-0.482,7.198-1.447c2.242-0.968,4.198-2.281,5.853-3.938
			c1.661-1.657,2.973-3.609,3.938-5.852c0.969-2.246,1.45-4.646,1.45-7.202L937.907,211.167L937.907,211.167z"/>
		<path fill="#FFFFFF" d="M1014.771,262.55c-3.864,0-7.511-0.724-10.933-2.174c-3.418-1.451-6.389-3.456-8.909-6.009
			c-2.52-2.557-4.521-5.526-6.009-8.91c-1.483-3.383-2.225-7.007-2.225-10.876V168.59h-19.063v-12.116h19.063v-25.485l12.737-2.07
			v27.555h26.938v12.116h-26.938v66.611c0,2.143,0.398,4.129,1.194,5.955c0.788,1.833,1.879,3.437,3.261,4.818
			c1.385,1.381,3.004,2.472,4.868,3.264c1.866,0.792,3.864,1.189,6.009,1.189h11.604v12.121L1014.771,262.55L1014.771,262.55z"/>
		<path fill="#FFFFFF" d="M1052.996,130.989V114h14.812v16.989H1052.996z M1054.033,262.55V156.474h12.74V262.55H1054.033z"/>
		<path fill="#FFFFFF" d="M1164.93,245.562c-1.623,3.8-3.852,7.115-6.679,9.943c-2.837,2.836-6.149,5.06-9.95,6.682
			c-3.797,1.623-7.838,2.434-12.114,2.434h-8.496c-4.282,0-8.319-0.812-12.116-2.434c-3.805-1.623-7.119-3.846-9.946-6.682
			c-2.837-2.828-5.062-6.143-6.683-9.943c-1.627-3.796-2.438-7.838-2.438-12.121v-47.858c0-4.282,0.811-8.324,2.438-12.12
			c1.619-3.801,3.846-7.115,6.683-9.947c2.827-2.833,6.146-5.056,9.946-6.682c3.797-1.619,7.834-2.434,12.116-2.434h8.496
			c4.276,0,8.317,0.815,12.114,2.434c3.803,1.626,7.114,3.85,9.95,6.682c2.827,2.832,5.056,6.146,6.679,9.947
			c1.622,3.796,2.437,7.838,2.437,12.12v47.858C1167.363,237.724,1166.552,241.765,1164.93,245.562z M1154.622,184.855
			c0-2.553-0.481-4.952-1.449-7.199c-0.97-2.243-2.276-4.194-3.938-5.853c-1.653-1.657-3.608-2.97-5.854-3.938
			c-2.246-0.964-4.646-1.45-7.199-1.45h-8.494c-2.559,0-4.955,0.486-7.197,1.45c-2.247,0.969-4.194,2.281-5.854,3.938
			c-1.661,1.657-2.971,3.609-3.938,5.853c-0.972,2.247-1.45,4.646-1.45,7.199v49.309c0,2.556,0.479,4.956,1.45,7.202
			c0.968,2.243,2.274,4.195,3.938,5.852c1.656,1.657,3.604,2.97,5.854,3.938c2.242,0.964,4.643,1.447,7.197,1.447h8.494
			c2.556,0,4.953-0.482,7.199-1.447c2.243-0.968,4.197-2.281,5.854-3.938c1.661-1.657,2.97-3.609,3.938-5.852
			c0.968-2.246,1.449-4.646,1.449-7.202V184.855z"/>
		<path fill="#FFFFFF" d="M1250.964,262.55v-77.695c0-2.553-0.485-4.952-1.451-7.199c-0.969-2.243-2.28-4.194-3.935-5.854
			c-1.661-1.657-3.612-2.97-5.855-3.938c-2.242-0.964-4.646-1.45-7.197-1.45h-8.49c-2.56,0-4.96,0.486-7.203,1.45
			c-2.241,0.969-4.193,2.281-5.854,3.938c-1.65,1.657-2.97,3.609-3.935,5.854c-0.969,2.247-1.45,4.646-1.45,7.199v77.695h-12.74
			V156.474h4.248l6.938,10.773c2.898-3.938,6.541-7.061,10.931-9.376c4.382-2.312,9.166-3.471,14.351-3.471h3.211
			c4.281,0,8.317,0.815,12.12,2.434c3.797,1.626,7.108,3.85,9.94,6.682s5.062,6.146,6.685,9.947
			c1.623,3.796,2.436,7.838,2.436,12.12v76.968L1250.964,262.55L1250.964,262.55z"/>
		<path fill="#FFFFFF" d="M563.109,415.258c0,4.278-0.865,8.198-2.588,11.757c-1.729,3.562-4.075,6.613-7.047,9.17
			c-2.971,2.561-6.404,4.539-10.308,5.955s-7.995,2.12-12.276,2.12h-8.49c-4.283,0-8.377-0.812-12.277-2.434
			c-3.903-1.623-7.32-3.843-10.257-6.686c-2.938-2.821-5.28-6.14-7.042-9.94c-1.76-3.797-2.643-7.838-2.643-12.116v-4.248
			l12.739-2.074v7.042c0,2.56,0.531,4.961,1.604,7.202c1.068,2.243,2.503,4.194,4.301,5.854c1.795,1.651,3.866,2.971,6.217,3.936
			c2.346,0.965,4.799,1.447,7.354,1.447h8.489c2.56,0,5.008-0.376,7.355-1.135c2.347-0.768,4.438-1.854,6.27-3.271
			c1.829-1.416,3.28-3.123,4.354-5.129c1.066-1.997,1.604-4.277,1.604-6.835c0-3.797-0.824-6.903-2.485-9.323
			c-1.657-2.419-3.853-4.438-6.575-6.062c-2.729-1.623-5.836-2.964-9.322-4.034c-3.49-1.071-7.062-2.146-10.725-3.215
			c-3.663-1.071-7.236-2.296-10.727-3.674c-3.483-1.39-6.594-3.2-9.32-5.442c-2.729-2.242-4.918-5.06-6.575-8.442
			c-1.661-3.384-2.487-7.593-2.487-12.638c0-4.278,0.826-8.196,2.487-11.757c1.657-3.562,3.897-6.613,6.729-9.17
			c2.832-2.559,6.127-4.539,9.896-5.955c3.763-1.416,7.785-2.128,12.065-2.128h7.459c4.282,0,8.323,0.817,12.12,2.435
			c3.796,1.631,7.115,3.854,9.947,6.684c2.827,2.834,5.056,6.146,6.683,9.951c1.618,3.797,2.436,7.838,2.436,12.115v0.413
			l-12.744,2.074v-3.215c0-2.55-0.48-4.953-1.45-7.195c-0.97-2.241-2.275-4.192-3.935-5.854c-1.657-1.652-3.608-2.973-5.854-3.938
			c-2.243-0.964-4.644-1.453-7.198-1.453h-7.459c-2.554,0-4.956,0.385-7.197,1.143c-2.243,0.767-4.195,1.854-5.854,3.262
			c-1.657,1.424-2.971,3.13-3.938,5.128c-0.971,2.006-1.451,4.287-1.451,6.844c0,3.658,0.831,6.646,2.488,8.955
			c1.655,2.319,3.85,4.271,6.578,5.855c2.726,1.592,5.833,2.916,9.321,3.983c3.486,1.072,7.042,2.176,10.67,3.314
			c3.625,1.141,7.183,2.436,10.67,3.889c3.486,1.446,6.597,3.314,9.323,5.588c2.729,2.28,4.922,5.129,6.579,8.554
			C562.282,405.989,563.109,410.214,563.109,415.258z"/>
		<path fill="#FFFFFF" d="M626.196,442.194c-3.865,0-7.509-0.729-10.929-2.177c-3.421-1.453-6.392-3.461-8.907-6.01
			c-2.521-2.557-4.522-5.522-6.011-8.908c-1.482-3.385-2.229-7.013-2.229-10.877v-65.996h-19.061v-12.115h19.061v-25.479
			l12.74-2.072v27.556H637.8v12.117h-26.937v66.611c0,2.146,0.396,4.126,1.191,5.955c0.792,1.829,1.879,3.438,3.264,4.813
			c1.381,1.386,3.004,2.473,4.865,3.27c1.868,0.788,3.869,1.188,6.01,1.188h11.604v12.123L626.196,442.194L626.196,442.194z"/>
		<path fill="#FFFFFF" d="M727.821,442.194l-7.042-10.57c-2.899,3.804-6.527,6.856-10.876,9.169
			c-4.354,2.312-9.116,3.468-14.3,3.468h-3.207c-4.285,0-8.327-0.812-12.123-2.434c-3.804-1.623-7.114-3.844-9.943-6.687
			c-2.836-2.821-5.062-6.139-6.682-9.939c-1.627-3.796-2.438-7.839-2.438-12.116v-1.041c0-4.277,0.811-8.32,2.438-12.116
			c1.615-3.797,3.846-7.107,6.682-9.939c2.829-2.832,6.144-5.062,9.943-6.686c3.796-1.622,7.838-2.435,12.123-2.435h26.933v-16.372
			c0-2.549-0.485-4.953-1.449-7.195c-0.97-2.24-2.28-4.191-3.936-5.854c-1.661-1.653-3.612-2.973-5.854-3.938
			c-2.242-0.964-4.646-1.452-7.199-1.452h-7.459c-2.557,0-4.953,0.488-7.199,1.452c-2.243,0.966-4.194,2.281-5.854,3.938
			c-1.657,1.66-2.971,3.611-3.936,5.854c-0.97,2.242-1.45,4.646-1.45,7.195v3.834l-12.744-2.074v-1.032
			c0-4.276,0.813-8.317,2.436-12.114c1.623-3.808,3.852-7.117,6.685-9.95c2.832-2.832,6.146-5.054,9.946-6.685
			c3.796-1.613,7.838-2.436,12.117-2.436h7.459c4.283,0,8.32,0.818,12.121,2.436c3.797,1.631,7.109,3.853,9.941,6.685
			c2.832,2.833,5.061,6.146,6.684,9.95c1.623,3.797,2.437,7.838,2.437,12.114v76.974L727.821,442.194L727.821,442.194z
			 M719.328,390.81h-26.932c-2.562,0-4.963,0.482-7.202,1.447c-2.247,0.976-4.193,2.296-5.854,3.988
			c-1.657,1.699-2.971,3.666-3.936,5.908c-0.971,2.239-1.45,4.646-1.45,7.202v4.444c0,2.561,0.479,4.96,1.45,7.202
			c0.965,2.243,2.274,4.194,3.936,5.855c1.661,1.649,3.607,2.97,5.854,3.935c2.239,0.965,4.643,1.447,7.202,1.447h8.489
			c2.556,0,4.957-0.482,7.199-1.447c2.241-0.965,4.193-2.28,5.854-3.935c1.65-1.661,2.966-3.612,3.936-5.855
			c0.964-2.242,1.449-4.646,1.449-7.202L719.328,390.81L719.328,390.81z"/>
		<path fill="#FFFFFF" d="M796.193,442.194c-3.869,0-7.516-0.729-10.93-2.177c-3.421-1.453-6.392-3.461-8.906-6.01
			c-2.526-2.557-4.523-5.522-6.012-8.908c-1.482-3.385-2.229-7.013-2.229-10.877v-65.996h-19.061v-12.115h19.061v-25.479
			l12.741-2.072v27.556h26.932v12.117h-26.93v66.611c0,2.146,0.395,4.126,1.188,5.955c0.796,1.829,1.883,3.438,3.268,4.813
			c1.382,1.386,3.005,2.473,4.865,3.27c1.864,0.788,3.869,1.188,6.012,1.188h11.6v12.123L796.193,442.194L796.193,442.194z"/>
		<path fill="#FFFFFF" d="M834.419,310.632v-16.987h14.813v16.987H834.419z M835.455,442.194V336.113h12.74v106.081H835.455
			L835.455,442.194z"/>
		<path fill="#FFFFFF" d="M946.352,425.201c-1.623,3.805-3.851,7.118-6.683,9.939c-2.832,2.843-6.146,5.062-9.942,6.687
			c-3.802,1.622-7.839,2.434-12.119,2.434h-8.492c-4.286,0-8.327-0.812-12.124-2.434c-3.796-1.623-7.109-3.844-9.941-6.687
			c-2.832-2.821-5.061-6.139-6.684-9.939c-1.623-3.796-2.438-7.839-2.438-12.116v-47.861c0-4.276,0.813-8.317,2.438-12.114
			c1.623-3.808,3.852-7.117,6.684-9.95c2.831-2.832,6.146-5.054,9.941-6.685c3.797-1.613,7.838-2.436,12.124-2.436h8.492
			c4.28,0,8.317,0.818,12.119,2.436c3.799,1.631,7.11,3.853,9.942,6.685c2.831,2.833,5.06,6.146,6.683,9.95
			c1.622,3.797,2.436,7.838,2.436,12.114v47.861C948.783,417.363,947.974,421.405,946.352,425.201z M936.044,364.496
			c0-2.549-0.485-4.953-1.45-7.195c-0.968-2.24-2.281-4.191-3.936-5.854c-1.661-1.653-3.611-2.973-5.854-3.938
			c-2.241-0.964-4.646-1.452-7.196-1.452h-8.492c-2.56,0-4.96,0.488-7.202,1.452c-2.242,0.966-4.193,2.281-5.854,3.938
			c-1.65,1.66-2.97,3.611-3.936,5.854c-0.968,2.242-1.449,4.646-1.449,7.195v49.31c0,2.56,0.481,4.959,1.449,7.201
			c0.966,2.243,2.281,4.194,3.936,5.855c1.661,1.649,3.612,2.97,5.854,3.935c2.242,0.966,4.646,1.447,7.202,1.447h8.492
			c2.554,0,4.955-0.481,7.196-1.447c2.243-0.965,4.193-2.28,5.854-3.935c1.65-1.661,2.968-3.612,3.936-5.855
			c0.965-2.242,1.45-4.646,1.45-7.201V364.496z"/>
		<path fill="#FFFFFF" d="M1032.385,442.194v-77.698c0-2.549-0.479-4.953-1.449-7.195c-0.97-2.24-2.275-4.191-3.938-5.854
			c-1.652-1.653-3.608-2.973-5.854-3.938c-2.245-0.964-4.646-1.452-7.197-1.452h-8.496c-2.56,0-4.956,0.488-7.198,1.452
			c-2.246,0.966-4.192,2.281-5.853,3.938c-1.661,1.66-2.972,3.611-3.938,5.854c-0.97,2.242-1.451,4.646-1.451,7.195v77.698h-12.737
			V336.113h4.241l6.942,10.773c2.9-3.938,6.545-7.062,10.931-9.375c4.389-2.312,9.17-3.477,14.347-3.477h3.215
			c4.278,0,8.318,0.816,12.117,2.436c3.8,1.629,7.112,3.853,9.948,6.684c2.827,2.834,5.058,6.146,6.681,9.951
			c1.622,3.795,2.435,7.838,2.435,12.113v76.976H1032.385L1032.385,442.194z"/>
	</g>
</g>
<g id="Layer_3">
</g>
<g>
	<path fill="#8DC63F" stroke="#8DC63F" stroke-width="3" d="M222.975,508.7v-1.836h20.77v1.836H222.975z"/>
	<path fill="#8DC63F" stroke="#8DC63F" stroke-width="3" d="M243.745,508.7v-1.836h20.77v1.836H243.745z"/>
	<path fill="#8DC63F" stroke="#8DC63F" stroke-width="3" d="M326.822,508.7v-1.836h20.77v1.836H326.822z"/>
	<path fill="#8DC63F" stroke="#8DC63F" stroke-width="3" d="M347.591,508.7v-1.836h20.77v1.836H347.591z"/>
	<path fill="#00FFFF" stroke="#00FFFF" stroke-width="3" d="M472.208,508.7v-1.836h20.77v1.836H472.208z"/>
	<path fill="#00FFFF" stroke="#00FFFF" stroke-width="3" d="M492.978,508.7v-1.836h20.77v1.836H492.978z"/>
	<path fill="#00FFFF" stroke="#00FFFF" stroke-width="3" d="M513.747,508.7v-1.836h20.77v1.836H513.747z"/>
	<path fill="#00FFFF" stroke="#00FFFF" stroke-width="3" d="M534.516,508.7v-1.836h20.769v1.836H534.516z"/>
	<path fill="#00FFFF" stroke="#00FFFF" stroke-width="3" d="M555.286,508.7v-1.836h20.77v1.836H555.286z"/>
	<path fill="#00FFFF" stroke="#00FFFF" stroke-width="3" d="M576.055,508.7v-1.836h20.77v1.836H576.055z"/>
	<path fill="#00FFFF" stroke="#00FFFF" stroke-width="3" d="M617.594,508.7v-1.836h20.77v1.836H617.594z"/>
	<path fill="#00FFFF" stroke="#00FFFF" stroke-width="3" d="M638.363,508.7v-1.836h20.77v1.836H638.363z"/>
	<path fill="#00FFFF" stroke="#00FFFF" stroke-width="3" d="M659.133,508.7v-1.836h20.77v1.836H659.133z"/>
	<path fill="#00FFFF" stroke="#00FFFF" stroke-width="3" d="M679.902,508.7v-1.836h20.77v1.836H679.902z"/>
	<path fill="#00FFFF" stroke="#00FFFF" stroke-width="3" d="M700.672,508.7v-1.836h20.77v1.836H700.672z"/>
	<path fill="#00FFFF" stroke="#00FFFF" stroke-width="3" d="M742.21,508.7v-1.836h20.77v1.836H742.21z"/>
	<path fill="#00FFFF" stroke="#00FFFF" stroke-width="3" d="M762.979,508.7v-1.836h20.77v1.836H762.979z"/>
	<path fill="#00FFFF" stroke="#00FFFF" stroke-width="3" d="M783.749,508.7v-1.836h20.77v1.836H783.749z"/>
	<path fill="#00FFFF" stroke="#00FFFF" stroke-width="3" d="M804.519,508.7v-1.836h20.77v1.836H804.519z"/>
	<path fill="#00FFFF" stroke="#00FFFF" stroke-width="3" d="M825.288,508.7v-1.836h20.77v1.836H825.288z"/>
	<path fill="#00FFFF" stroke="#00FFFF" stroke-width="3" d="M846.058,508.7v-1.836h20.77v1.836H846.058z"/>
	<path fill="#00FFFF" stroke="#00FFFF" stroke-width="3" d="M866.827,508.7v-1.836h20.77v1.836H866.827z"/>
	<path fill="#00FFFF" stroke="#00FFFF" stroke-width="3" d="M887.597,508.7v-1.836h20.77v1.836H887.597z"/>
	<path fill="#00FFFF" stroke="#00FFFF" stroke-width="3" d="M908.365,508.7v-1.836h20.77v1.836H908.365z"/>
	<path fill="#00FFFF" stroke="#00FFFF" stroke-width="3" d="M929.135,508.7v-1.836h20.77v1.836H929.135z"/>
	<path fill="#00FFFF" stroke="#00FFFF" stroke-width="3" d="M949.904,508.7v-1.836h20.77v1.836H949.904z"/>
	<path fill="#00FFFF" stroke="#00FFFF" stroke-width="3" d="M991.443,508.7v-1.836h20.77v1.836H991.443z"/>
	<path fill="#00FFFF" stroke="#00FFFF" stroke-width="3" d="M1012.213,508.7v-1.836h20.77v1.836H1012.213z"/>
	<path fill="#00FFFF" stroke="#00FFFF" stroke-width="3" d="M1032.982,508.7v-1.836h20.77v1.836H1032.982z"/>
	<path fill="#00FFFF" stroke="#00FFFF" stroke-width="3" d="M1053.752,508.7v-1.836h20.77v1.836H1053.752z"/>
	<path fill="#00FFFF" stroke="#00FFFF" stroke-width="3" d="M1074.521,508.7v-1.836h20.77v1.836H1074.521z"/>
	<path fill="#8DC63F" stroke="#8DC63F" stroke-width="3" d="M229.542,514.735l12.894,15.483h-4.39l-12.875-15.483H229.542z"/>
	<path fill="#8DC63F" stroke="#8DC63F" stroke-width="3" d="M271.08,514.735l12.894,15.483h-4.39l-12.875-15.483H271.08z"/>
	<path fill="#8DC63F" stroke="#8DC63F" stroke-width="3" d="M311.752,530.219h-4.372l12.875-15.483h4.39L311.752,530.219z"/>
	<path fill="#8DC63F" stroke="#8DC63F" stroke-width="3" d="M353.291,530.219h-4.372l12.875-15.483h4.39L353.291,530.219z"/>
	<path fill="#00FFFF" stroke="#00FFFF" stroke-width="3" d="M480.527,532.073v-19.478h4.15v19.478H480.527z"/>
	<path fill="#00FFFF" stroke="#00FFFF" stroke-width="3" d="M513.747,532.073v-1.836h20.77v1.836H513.747z"/>
	<path fill="#00FFFF" stroke="#00FFFF" stroke-width="3" d="M534.516,532.073v-1.836h20.769v1.836H534.516z"/>
	<path fill="#00FFFF" stroke="#00FFFF" stroke-width="3" d="M555.286,532.073v-1.836h20.77v1.836H555.286z"/>
	<path fill="#00FFFF" stroke="#00FFFF" stroke-width="3" d="M603.391,514.735l12.894,15.483h-4.39l-12.875-15.483H603.391z"/>
	<path fill="#00FFFF" stroke="#00FFFF" stroke-width="3" d="M659.133,532.073v-1.836h20.77v1.836H659.133z"/>
	<path fill="#00FFFF" stroke="#00FFFF" stroke-width="3" d="M679.902,532.073v-1.836h20.77v1.836H679.902z"/>
	<path fill="#00FFFF" stroke="#00FFFF" stroke-width="3" d="M700.672,532.073v-1.836h20.77v1.836H700.672z"/>
	<path fill="#00FFFF" stroke="#00FFFF" stroke-width="3" d="M729.76,532.073v-19.478h4.15v19.478H729.76z"/>
	<path fill="#00FFFF" stroke="#00FFFF" stroke-width="3" d="M742.21,532.073v-1.836h20.77v1.836H742.21z"/>
	<path fill="#00FFFF" stroke="#00FFFF" stroke-width="3" d="M825.288,532.073v-1.836h20.77v1.836H825.288z"/>
	<path fill="#00FFFF" stroke="#00FFFF" stroke-width="3" d="M854.376,532.073v-19.478h4.15v19.478H854.376z"/>
	<path fill="#00FFFF" stroke="#00FFFF" stroke-width="3" d="M887.597,532.073v-1.836h20.77v1.836H887.597z"/>
	<path fill="#00FFFF" stroke="#00FFFF" stroke-width="3" d="M908.365,532.073v-1.836h20.77v1.836H908.365z"/>
	<path fill="#00FFFF" stroke="#00FFFF" stroke-width="3" d="M929.135,532.073v-1.836h20.77v1.836H929.135z"/>
	<path fill="#00FFFF" stroke="#00FFFF" stroke-width="3" d="M977.24,514.735l12.894,15.483h-4.39l-12.875-15.483H977.24z"/>
	<path fill="#00FFFF" stroke="#00FFFF" stroke-width="3" d="M1032.982,532.073v-1.836h20.77v1.836H1032.982z"/>
	<path fill="#00FFFF" stroke="#00FFFF" stroke-width="3" d="M1103.608,532.073v-19.478h4.15v19.478H1103.608z"/>
	<path fill="#8DC63F" stroke="#8DC63F" stroke-width="3" d="M250.311,538.109l12.894,15.483h-4.39l-12.875-15.483H250.311z"/>
	<path fill="#8DC63F" stroke="#8DC63F" stroke-width="3" d="M298.656,551.548h-6.013l-7.36-12.431h5.146l4.076,7.485l1.31,2.453
		l1.365-2.596l4.039-7.343h4.833L298.656,551.548z"/>
	<path fill="#8DC63F" stroke="#8DC63F" stroke-width="3" d="M332.522,553.593h-4.372l12.875-15.483h4.39L332.522,553.593z"/>
	<path fill="#FF6400" stroke="#FF6400" stroke-width="3" d="M368.361,555.447v-1.836h20.77v1.836H368.361z"/>
	<path fill="#FF6400" stroke="#FF6400" stroke-width="3" d="M389.13,555.447v-1.836h20.77v1.836H389.13z"/>
	<path fill="#FF6400" stroke="#FF6400" stroke-width="3" d="M409.9,555.447v-1.836h20.77v1.836H409.9z"/>
	<path fill="#FF6400" stroke="#FF6400" stroke-width="3" d="M430.669,555.447v-1.836h20.77v1.836H430.669z"/>
	<path fill="#00FFFF" stroke="#00FFFF" stroke-width="3" d="M480.527,555.447V535.97h4.15v19.478H480.527z"/>
	<path fill="#00FFFF" stroke="#00FFFF" stroke-width="3" d="M522.066,555.447V535.97h4.15v19.478H522.066z"/>
	<path fill="#00FFFF" stroke="#00FFFF" stroke-width="3" d="M534.516,555.447v-1.836h20.769v1.836H534.516z"/>
	<path fill="#00FFFF" stroke="#00FFFF" stroke-width="3" d="M560.985,553.593h-4.371l12.875-15.483h4.39L560.985,553.593z"/>
	<path fill="#00FFFF" stroke="#00FFFF" stroke-width="3" d="M602.523,553.593h-4.371l12.875-15.483h4.39L602.523,553.593z"/>
	<path fill="#00FFFF" stroke="#00FFFF" stroke-width="3" d="M646.682,555.447V535.97h4.15v19.478H646.682z"/>
	<path fill="#00FFFF" stroke="#00FFFF" stroke-width="3" d="M659.133,555.447v-1.836h20.77v1.836H659.133z"/>
	<path fill="#00FFFF" stroke="#00FFFF" stroke-width="3" d="M679.902,555.447v-1.836h20.77v1.836H679.902z"/>
	<path fill="#00FFFF" stroke="#00FFFF" stroke-width="3" d="M771.298,555.447V535.97h4.15v19.478H771.298z"/>
	<path fill="#00FFFF" stroke="#00FFFF" stroke-width="3" d="M812.837,555.447V535.97h4.15v19.478H812.837z"/>
	<path fill="#00FFFF" stroke="#00FFFF" stroke-width="3" d="M854.376,555.447V535.97h4.15v19.478H854.376z"/>
	<path fill="#00FFFF" stroke="#00FFFF" stroke-width="3" d="M895.915,555.447V535.97h4.15v19.478H895.915z"/>
	<path fill="#00FFFF" stroke="#00FFFF" stroke-width="3" d="M908.365,555.447v-1.836h20.77v1.836H908.365z"/>
	<path fill="#00FFFF" stroke="#00FFFF" stroke-width="3" d="M934.834,553.593h-4.371l12.875-15.483h4.39L934.834,553.593z"/>
	<path fill="#00FFFF" stroke="#00FFFF" stroke-width="3" d="M976.373,553.593h-4.371l12.875-15.483h4.39L976.373,553.593z"/>
	<path fill="#00FFFF" stroke="#00FFFF" stroke-width="3" d="M1020.531,555.447V535.97h4.15v19.478H1020.531z"/>
	<path fill="#00FFFF" stroke="#00FFFF" stroke-width="3" d="M1062.07,555.447V535.97h4.15v19.478H1062.07z"/>
	<path fill="#00FFFF" stroke="#00FFFF" stroke-width="3" d="M1103.608,555.447V535.97h4.15v19.478H1103.608z"/>
	<path fill="#8DC63F" stroke="#8DC63F" stroke-width="3" d="M249.444,576.966h-4.372l12.875-15.483h4.39L249.444,576.966z"/>
	<path fill="#8DC63F" stroke="#8DC63F" stroke-width="3" d="M333.389,561.482l12.894,15.483h-4.39l-12.875-15.483H333.389z"/>
	<path fill="#FF6400" stroke="#FF6400" stroke-width="3" d="M355.91,578.82v-19.478h4.15v19.478H355.91z"/>
	<path fill="#FF6400" stroke="#FF6400" stroke-width="3" d="M368.361,578.82v-1.836h20.77v1.836H368.361z"/>
	<path fill="#FF6400" stroke="#FF6400" stroke-width="3" d="M389.13,578.82v-1.836h20.77v1.836H389.13z"/>
	<path fill="#FF6400" stroke="#FF6400" stroke-width="3" d="M409.9,578.82v-1.836h20.77v1.836H409.9z"/>
	<path fill="#FF6400" stroke="#FF6400" stroke-width="3" d="M430.669,578.82v-1.836h20.77v1.836H430.669z"/>
	<path fill="#FF6400" stroke="#FF6400" stroke-width="3" d="M459.757,578.82v-19.478h4.15v19.478H459.757z"/>
	<path fill="#00FFFF" stroke="#00FFFF" stroke-width="3" d="M480.527,578.82v-19.478h4.15v19.478H480.527z"/>
	<path fill="#00FFFF" stroke="#00FFFF" stroke-width="3" d="M581.754,576.966h-4.371l12.875-15.483h4.39L581.754,576.966z"/>
	<path fill="#00FFFF" stroke="#00FFFF" stroke-width="3" d="M605.143,578.82v-19.478h4.15v19.478H605.143z"/>
	<path fill="#00FFFF" stroke="#00FFFF" stroke-width="3" d="M659.133,578.82v-1.836h20.77v1.836H659.133z"/>
	<path fill="#00FFFF" stroke="#00FFFF" stroke-width="3" d="M679.902,578.82v-1.836h20.77v1.836H679.902z"/>
	<path fill="#00FFFF" stroke="#00FFFF" stroke-width="3" d="M708.99,578.82v-19.478h4.15v19.478H708.99z"/>
	<path fill="#00FFFF" stroke="#00FFFF" stroke-width="3" d="M771.298,578.82v-19.478h4.15v19.478H771.298z"/>
	<path fill="#00FFFF" stroke="#00FFFF" stroke-width="3" d="M812.837,578.82v-19.478h4.15v19.478H812.837z"/>
	<path fill="#00FFFF" stroke="#00FFFF" stroke-width="3" d="M854.376,578.82v-19.478h4.15v19.478H854.376z"/>
	<path fill="#00FFFF" stroke="#00FFFF" stroke-width="3" d="M955.604,576.966h-4.371l12.875-15.483h4.39L955.604,576.966z"/>
	<path fill="#00FFFF" stroke="#00FFFF" stroke-width="3" d="M978.992,578.82v-19.478h4.15v19.478H978.992z"/>
	<path fill="#00FFFF" stroke="#00FFFF" stroke-width="3" d="M1020.531,578.82v-19.478h4.15v19.478H1020.531z"/>
	<path fill="#00FFFF" stroke="#00FFFF" stroke-width="3" d="M1062.07,578.82v-19.478h4.15v19.478H1062.07z"/>
	<path fill="#00FFFF" stroke="#00FFFF" stroke-width="3" d="M1103.608,578.82v-19.478h4.15v19.478H1103.608z"/>
	<path fill="#8DC63F" stroke="#8DC63F" stroke-width="3" d="M228.675,600.34h-4.372l12.875-15.483h4.39L228.675,600.34z"/>
	<path fill="#8DC63F" stroke="#8DC63F" stroke-width="3" d="M270.213,600.34h-4.372l12.875-15.483h4.39L270.213,600.34z"/>
	<path fill="#8DC63F" stroke="#8DC63F" stroke-width="3" d="M300.298,591.941l-4.833-4.394l-4.759,4.394h-3.855l6.991-6.077h3.431
		l7.212,6.077H300.298z"/>
	<path fill="#8DC63F" stroke="#8DC63F" stroke-width="3" d="M312.619,584.856l12.894,15.483h-4.39l-12.875-15.483H312.619z"/>
	<path fill="#8DC63F" stroke="#8DC63F" stroke-width="3" d="M354.158,584.856l12.894,15.483h-4.39l-12.875-15.483H354.158z"/>
	<path fill="#00FFFF" stroke="#00FFFF" stroke-width="3" d="M480.527,602.194v-19.478h4.15v19.478H480.527z"/>
	<path fill="#00FFFF" stroke="#00FFFF" stroke-width="3" d="M522.066,602.194v-19.478h4.15v19.478H522.066z"/>
	<path fill="#00FFFF" stroke="#00FFFF" stroke-width="3" d="M541.083,584.856l12.894,15.483h-4.391l-12.875-15.483H541.083z"/>
	<path fill="#00FFFF" stroke="#00FFFF" stroke-width="3" d="M582.621,584.856l12.894,15.483h-4.39l-12.875-15.483H582.621z"/>
	<path fill="#00FFFF" stroke="#00FFFF" stroke-width="3" d="M605.143,602.194v-19.478h4.15v19.478H605.143z"/>
	<path fill="#00FFFF" stroke="#00FFFF" stroke-width="3" d="M646.682,602.194v-19.478h4.15v19.478H646.682z"/>
	<path fill="#00FFFF" stroke="#00FFFF" stroke-width="3" d="M659.133,602.194v-1.836h20.77v1.836H659.133z"/>
	<path fill="#00FFFF" stroke="#00FFFF" stroke-width="3" d="M679.902,602.194v-1.836h20.77v1.836H679.902z"/>
	<path fill="#00FFFF" stroke="#00FFFF" stroke-width="3" d="M700.672,602.194v-1.836h20.77v1.836H700.672z"/>
	<path fill="#00FFFF" stroke="#00FFFF" stroke-width="3" d="M771.298,602.194v-19.478h4.15v19.478H771.298z"/>
	<path fill="#00FFFF" stroke="#00FFFF" stroke-width="3" d="M812.837,602.194v-19.478h4.15v19.478H812.837z"/>
	<path fill="#00FFFF" stroke="#00FFFF" stroke-width="3" d="M854.376,602.194v-19.478h4.15v19.478H854.376z"/>
	<path fill="#00FFFF" stroke="#00FFFF" stroke-width="3" d="M895.915,602.194v-19.478h4.15v19.478H895.915z"/>
	<path fill="#00FFFF" stroke="#00FFFF" stroke-width="3" d="M914.932,584.856l12.894,15.483h-4.39l-12.875-15.483H914.932z"/>
	<path fill="#00FFFF" stroke="#00FFFF" stroke-width="3" d="M956.471,584.856l12.894,15.483h-4.39L952.1,584.856H956.471z"/>
	<path fill="#00FFFF" stroke="#00FFFF" stroke-width="3" d="M977.24,584.856l12.894,15.483h-4.39l-12.875-15.483H977.24z"/>
	<path fill="#00FFFF" stroke="#00FFFF" stroke-width="3" d="M1018.779,584.856l12.894,15.483h-4.39l-12.875-15.483H1018.779z"/>
	<path fill="#00FFFF" stroke="#00FFFF" stroke-width="3" d="M1032.982,602.194v-1.836h20.77v1.836H1032.982z"/>
	<path fill="#00FFFF" stroke="#00FFFF" stroke-width="3" d="M1059.451,600.34h-4.371l12.875-15.483h4.39L1059.451,600.34z"/>
	<path fill="#00FFFF" stroke="#00FFFF" stroke-width="3" d="M1100.989,600.34h-4.371l12.875-15.483h4.39L1100.989,600.34z"/>
	<path fill="#8DC63F" stroke="#8DC63F" stroke-width="3" d="M229.542,608.229l12.894,15.483h-4.39l-12.875-15.483H229.542z"/>
	<path fill="#8DC63F" stroke="#8DC63F" stroke-width="3" d="M249.444,623.713h-4.372l12.875-15.483h4.39L249.444,623.713z"/>
	<path fill="#8DC63F" stroke="#8DC63F" stroke-width="3" d="M333.389,608.229l12.894,15.483h-4.39l-12.875-15.483H333.389z"/>
	<path fill="#8DC63F" stroke="#8DC63F" stroke-width="3" d="M353.291,623.713h-4.372l12.875-15.483h4.39L353.291,623.713z"/>
	<path fill="#00FFFF" stroke="#00FFFF" stroke-width="3" d="M478.774,608.229l12.894,15.483h-4.39l-12.875-15.483H478.774z"/>
	<path fill="#00FFFF" stroke="#00FFFF" stroke-width="3" d="M492.978,625.567v-1.836h20.77v1.836H492.978z"/>
	<path fill="#00FFFF" stroke="#00FFFF" stroke-width="3" d="M522.066,625.567V606.09h4.15v19.478H522.066z"/>
	<path fill="#00FFFF" stroke="#00FFFF" stroke-width="3" d="M561.853,608.229l12.894,15.483h-4.39l-12.875-15.483H561.853z"/>
	<path fill="#00FFFF" stroke="#00FFFF" stroke-width="3" d="M576.055,625.567v-1.836h20.77v1.836H576.055z"/>
	<path fill="#00FFFF" stroke="#00FFFF" stroke-width="3" d="M603.391,608.229l12.894,15.483h-4.39l-12.875-15.483H603.391z"/>
	<path fill="#00FFFF" stroke="#00FFFF" stroke-width="3" d="M617.594,625.567v-1.836h20.77v1.836H617.594z"/>
	<path fill="#00FFFF" stroke="#00FFFF" stroke-width="3" d="M638.363,625.567v-1.836h20.77v1.836H638.363z"/>
	<path fill="#00FFFF" stroke="#00FFFF" stroke-width="3" d="M659.133,625.567v-1.836h20.77v1.836H659.133z"/>
	<path fill="#00FFFF" stroke="#00FFFF" stroke-width="3" d="M679.902,625.567v-1.836h20.77v1.836H679.902z"/>
	<path fill="#00FFFF" stroke="#00FFFF" stroke-width="3" d="M706.371,623.713H702l12.875-15.483h4.39L706.371,623.713z"/>
	<path fill="#00FFFF" stroke="#00FFFF" stroke-width="3" d="M769.546,608.229l12.894,15.483h-4.39l-12.875-15.483H769.546z"/>
	<path fill="#00FFFF" stroke="#00FFFF" stroke-width="3" d="M783.749,625.567v-1.836h20.77v1.836H783.749z"/>
	<path fill="#00FFFF" stroke="#00FFFF" stroke-width="3" d="M810.218,623.713h-4.371l12.875-15.483h4.39L810.218,623.713z"/>
	<path fill="#00FFFF" stroke="#00FFFF" stroke-width="3" d="M852.624,608.229l12.894,15.483h-4.39l-12.875-15.483H852.624z"/>
	<path fill="#00FFFF" stroke="#00FFFF" stroke-width="3" d="M866.827,625.567v-1.836h20.77v1.836H866.827z"/>
	<path fill="#00FFFF" stroke="#00FFFF" stroke-width="3" d="M895.915,625.567V606.09h4.15v19.478H895.915z"/>
	<path fill="#00FFFF" stroke="#00FFFF" stroke-width="3" d="M935.701,608.229l12.894,15.483h-4.39l-12.875-15.483H935.701z"/>
	<path fill="#00FFFF" stroke="#00FFFF" stroke-width="3" d="M949.904,625.567v-1.836h20.77v1.836H949.904z"/>
	<path fill="#00FFFF" stroke="#00FFFF" stroke-width="3" d="M978.992,625.567V606.09h4.15v19.478H978.992z"/>
	<path fill="#00FFFF" stroke="#00FFFF" stroke-width="3" d="M998.01,608.229l12.894,15.483h-4.39l-12.875-15.483H998.01z"/>
	<path fill="#00FFFF" stroke="#00FFFF" stroke-width="3" d="M1012.213,625.567v-1.836h20.77v1.836H1012.213z"/>
	<path fill="#00FFFF" stroke="#00FFFF" stroke-width="3" d="M1032.982,625.567v-1.836h20.77v1.836H1032.982z"/>
	<path fill="#00FFFF" stroke="#00FFFF" stroke-width="3" d="M1053.752,625.567v-1.836h20.77v1.836H1053.752z"/>
	<path fill="#00FFFF" stroke="#00FFFF" stroke-width="3" d="M1080.22,623.713h-4.371l12.875-15.483h4.39L1080.22,623.713z"/>
</g>
<g>
</g>
<g>
</g>
<g>
	<path fill="#FFFF00" stroke="#8DC63F" d="M577.36,669.309l4.986-20.596h14.958l-0.818,3.277h-10.2l-1.257,5.121h9.744l-0.742,3.199
		h-9.744l-1.389,5.721h10.2l-0.78,3.277H577.36z"/>
	<path fill="#FFFF00" stroke="#8DC63F" d="M618.581,655.757c0,0.431-0.028,0.956-0.086,1.575c-0.057,0.62-0.171,1.29-0.343,2.01
		c-0.171,0.72-0.412,1.465-0.723,2.237c-0.312,0.772-0.727,1.526-1.246,2.262c-0.521,0.735-1.151,1.434-1.894,2.096
		c-0.743,0.662-1.631,1.242-2.665,1.741s-2.227,0.896-3.577,1.189c-1.352,0.294-2.89,0.441-4.615,0.441h-6.509l4.986-20.596h7.137
		c3.146,0,5.521,0.585,7.127,1.757C617.778,651.641,618.581,653.403,618.581,655.757z M613.557,656.087
		c0-0.661-0.095-1.25-0.285-1.765s-0.495-0.945-0.913-1.292c-0.419-0.347-0.965-0.612-1.637-0.796
		c-0.673-0.184-1.491-0.275-2.455-0.275h-2.493l-3.406,14.104h1.96c1.332,0,2.486-0.176,3.464-0.528
		c0.977-0.352,1.805-0.812,2.483-1.379s1.233-1.213,1.665-1.938c0.431-0.726,0.764-1.455,0.999-2.19
		c0.234-0.735,0.396-1.45,0.485-2.144S613.557,656.592,613.557,656.087z"/>
	<path fill="#FFFF00" stroke="#8DC63F" d="M623.758,651.896l0.78-3.183h15.757l-0.78,3.183h-5.5l-3.444,14.229h5.462l-0.742,3.184
		h-15.738l0.742-3.184h5.519l3.464-14.229H623.758z"/>
	<path fill="#FFFF00" stroke="#8DC63F" d="M655.443,651.942l-4.167,17.366h-4.796l4.168-17.366h-6.813l0.818-3.229h18.422
		l-0.818,3.229H655.443z"/>
	<path fill="#FFFF00" stroke="#8DC63F" d="M666.615,651.896l0.78-3.183h15.757l-0.78,3.183h-5.5l-3.444,14.229h5.462l-0.742,3.184
		h-15.738l0.742-3.184h5.519l3.464-14.229H666.615z"/>
	<path fill="#FFFF00" stroke="#8DC63F" d="M691.792,669.671c-2.602,0-4.597-0.594-5.985-1.78c-1.39-1.188-2.084-2.91-2.084-5.169
		c0-1.051,0.107-2.133,0.323-3.246s0.546-2.204,0.99-3.271c0.443-1.065,1.008-2.074,1.693-3.025c0.686-0.95,1.504-1.78,2.455-2.489
		c0.951-0.71,2.039-1.274,3.264-1.694s2.591-0.631,4.102-0.631c2.601,0,4.596,0.592,5.984,1.773c1.39,1.182,2.084,2.902,2.084,5.161
		c0,1.05-0.107,2.135-0.323,3.254c-0.216,1.118-0.546,2.211-0.989,3.277c-0.444,1.066-1.009,2.072-1.694,3.018
		c-0.685,0.946-1.503,1.775-2.455,2.49c-0.951,0.715-2.039,1.282-3.264,1.702S693.302,669.671,691.792,669.671z M692.458,666.188
		c0.799,0,1.531-0.147,2.198-0.441c0.666-0.294,1.268-0.693,1.808-1.197c0.539-0.505,1.012-1.096,1.418-1.773
		c0.405-0.677,0.745-1.407,1.018-2.19c0.272-0.782,0.476-1.597,0.609-2.442c0.133-0.846,0.199-1.684,0.199-2.514
		c0-1.302-0.301-2.258-0.903-2.867s-1.577-0.914-2.922-0.914c-0.799,0-1.531,0.145-2.197,0.433c-0.666,0.289-1.27,0.686-1.809,1.19
		c-0.539,0.504-1.012,1.098-1.417,1.78c-0.406,0.684-0.746,1.413-1.019,2.19c-0.273,0.777-0.476,1.592-0.609,2.442
		c-0.133,0.852-0.199,1.691-0.199,2.521c0,1.303,0.298,2.259,0.895,2.868C690.123,665.884,691.1,666.188,692.458,666.188z"/>
	<path fill="#FFFF00" stroke="#8DC63F" d="M716.607,669.309l-3.691-12.292l-0.742-2.646l-2.074,8.541l-1.522,6.397h-4.244
		l4.986-20.596h5.5l3.787,12.37l0.608,2.411l2.188-9.093l1.408-5.688h4.282l-4.986,20.596H716.607z"/>
</g>
<g>
</g>
<g>
</g>
</svg>
